<svg width="4061" height="907" viewBox="0 0 4061 907" fill="none" xmlns="http://www.w3.org/2000/svg">
<g filter="url(#filter0_ddiii_34_13)">
<mask id="path-1-outside-1_34_13" maskUnits="userSpaceOnUse" x="40.905" y="35.6445" width="3980" height="823" fill="black">
<rect fill="white" x="40.905" y="35.6445" width="3980" height="823"/>
<path d="M383.25 562.11C386.39 575.716 370.952 596.388 336.935 624.125C295.592 657.618 255.557 677.243 216.83 683L193.28 679.075C169.73 659.711 146.965 640.348 124.985 620.985C85.2117 585.921 62.97 558.185 58.26 537.775C56.69 501.665 55.905 474.451 55.905 456.135C55.905 389.148 57.9984 317.713 62.185 241.83C123.415 195.253 187 159.666 252.94 135.07H272.565L342.43 222.205C350.803 230.578 357.607 242.876 362.84 259.1L253.725 343.095C267.332 324.778 274.135 308.816 274.135 295.21C274.135 291.546 273.612 287.883 272.565 284.22C273.088 282.126 273.35 279.771 273.35 277.155C273.35 268.781 264.192 240.26 245.875 191.59C231.222 197.87 211.335 207.29 186.215 219.85C172.085 229.27 162.927 241.306 158.74 255.96L157.17 580.165C160.31 589.061 168.945 599.79 183.075 612.35C195.635 623.863 206.887 631.975 216.83 636.685C256.08 624.125 279.63 610.518 287.48 595.865L286.695 521.29L381.68 541.7L383.25 562.11Z"/>
<path d="M765.784 562.11C768.924 575.716 753.486 596.388 719.469 624.125C678.126 657.618 638.091 677.243 599.364 683L575.814 679.075C552.264 659.711 529.499 640.348 507.519 620.985C467.746 585.921 445.504 558.185 440.794 537.775C439.224 501.665 438.439 463.985 438.439 424.735C438.439 357.748 440.533 286.313 444.719 210.43C505.949 163.853 569.534 128.266 635.474 103.67H655.099L724.964 190.805C744.851 211.215 756.364 253.605 759.504 317.975C761.074 350.421 763.168 431.8 765.784 562.11ZM670.014 595.865L666.874 368.215C665.828 294.948 653.006 225.606 628.409 160.19C613.756 166.47 593.869 175.89 568.749 188.45C554.619 197.87 545.461 209.906 541.274 224.56L539.704 580.165C542.844 589.061 551.479 599.79 565.609 612.35C578.169 623.863 589.421 631.975 599.364 636.685C638.614 624.125 662.164 610.518 670.014 595.865Z"/>
<path d="M972.478 553.475L942.648 507.945L939.508 501.665L944.218 706.55L919.098 667.3L901.828 855.7L845.308 531.495L873.568 550.335L843.738 355.655L882.988 372.925L861.008 188.45C853.682 178.506 845.308 168.563 835.888 158.62L857.868 159.405L977.188 160.19C968.815 162.283 964.628 172.226 964.628 190.02C964.628 191.59 966.198 194.991 969.339 200.225C972.478 205.458 974.31 208.598 974.833 209.645L1130.26 596.65V230.84C1130.26 209.906 1122.41 197.346 1106.71 193.16L1105.93 190.805H1236.24V191.59C1219.49 196.3 1211.12 209.383 1211.12 230.84V666.515C1211.12 689.018 1218.97 702.363 1234.67 706.55H1077.67C1082.38 705.503 1087.87 701.84 1094.15 695.56C1100.43 689.28 1103.57 683.785 1103.57 679.075C1103.57 681.691 1099.65 672.271 1091.8 650.815L970.908 324.255L972.478 553.475Z"/>
<path d="M1283.49 56.5695C1337.4 61.8029 1400.46 64.4195 1472.68 64.4195C1563.21 64.4195 1641.45 60.4945 1707.39 52.6445L1736.44 193.16C1728.59 180.076 1717.07 169.086 1701.9 160.19C1686.72 150.77 1671.81 146.06 1657.15 146.06L1556.67 147.63L1558.24 529.925L1528.41 484.395L1525.27 478.115L1529.98 683L1504.86 643.75L1487.59 832.15L1431.07 507.945L1459.33 526.785L1429.5 332.105L1468.75 349.375L1444.42 148.415L1340.01 149.985C1313.32 146.845 1286.89 159.666 1260.73 188.45L1283.49 56.5695Z"/>
<path d="M1992.38 504.02L1984.53 477.33L1930.37 296.78L1888.76 437.295C1930.63 476.021 1965.17 498.263 1992.38 504.02ZM1777.29 504.805L1741.97 466.34C1766.04 433.37 1794.3 414.53 1826.75 409.82L1882.48 234.765C1886.67 221.681 1888.76 211.738 1888.76 204.935C1888.76 185.048 1884.32 172.75 1875.42 168.04H1992.38C1982.44 172.75 1977.47 184.263 1977.47 202.58C1977.47 208.86 1979.04 216.971 1982.18 226.915L2068.53 494.6C2077.43 490.413 2091.82 482.825 2111.7 471.835C2100.19 493.291 2088.68 510.038 2077.16 522.075L2108.56 618.63C2113.8 634.853 2116.68 643.226 2117.2 643.75C2120.34 651.6 2125.31 658.665 2132.11 664.945L2154.88 678.29H1997.09L2016.72 664.945C2027.71 662.328 2033.2 654.478 2033.2 641.395C2033.2 638.255 2031.37 630.666 2027.71 618.63L2007.3 551.905C1974.85 545.101 1932.2 516.58 1879.34 466.34L1876.2 477.33L1815.76 664.945C1812.62 674.888 1811.05 682.738 1811.05 688.495C1811.05 697.391 1818.64 704.98 1833.81 711.26L1801.63 712.83H1749.82L1710.57 711.26C1723.13 707.073 1730.98 702.363 1734.12 697.13C1735.69 694.513 1738.83 685.878 1743.54 671.225L1817.33 441.22C1794.83 442.79 1775.2 452.471 1758.45 470.265L1777.29 504.805Z"/>
<path d="M2485.27 562.11C2488.41 575.716 2472.97 596.388 2438.96 624.125C2397.61 657.618 2357.58 677.243 2318.85 683L2295.3 679.075C2271.75 659.711 2248.99 640.348 2227.01 620.985C2187.23 585.921 2164.99 558.185 2160.28 537.775C2158.71 501.665 2157.93 474.451 2157.93 456.135C2157.93 389.148 2160.02 317.713 2164.21 241.83C2225.44 195.253 2289.02 159.666 2354.96 135.07H2374.59L2444.45 222.205C2452.83 230.578 2459.63 242.876 2464.86 259.1L2355.75 343.095C2369.35 324.778 2376.16 308.816 2376.16 295.21C2376.16 291.546 2375.63 287.883 2374.59 284.22C2375.11 282.126 2375.37 279.771 2375.37 277.155C2375.37 268.781 2366.21 240.26 2347.9 191.59C2333.24 197.87 2313.36 207.29 2288.24 219.85C2274.11 229.27 2264.95 241.306 2260.76 255.96L2259.19 580.165C2262.33 589.061 2270.97 599.79 2285.1 612.35C2297.66 623.863 2308.91 631.975 2318.85 636.685C2358.1 624.125 2381.65 610.518 2389.5 595.865L2388.72 521.29L2483.7 541.7L2485.27 562.11Z"/>
<path d="M2551.45 56.5695C2605.35 61.8029 2668.42 64.4195 2740.64 64.4195C2831.17 64.4195 2909.41 60.4945 2975.35 52.6445L3004.4 193.16C2996.55 180.076 2985.03 169.086 2969.86 160.19C2954.68 150.77 2939.76 146.06 2925.11 146.06L2824.63 147.63L2826.2 529.925L2796.37 484.395L2793.23 478.115L2797.94 683L2772.82 643.75L2755.55 832.15L2699.03 507.945L2727.29 526.785L2697.46 332.105L2736.71 349.375L2712.38 148.415L2607.97 149.985C2581.28 146.845 2554.85 159.666 2528.69 188.45L2551.45 56.5695Z"/>
<path d="M3645.62 166.47C3637.25 175.89 3632.53 181.646 3631.49 183.74C3626.78 193.16 3624.42 207.551 3624.42 226.915C3623.9 305.415 3624.16 417.146 3625.21 562.11C3628.35 575.716 3612.91 596.388 3578.89 624.125C3537.55 657.618 3497.51 677.243 3458.79 683L3435.24 679.075C3411.69 659.711 3388.92 640.348 3366.94 620.985C3327.17 585.921 3304.93 558.185 3300.22 537.775C3296.03 427.875 3296.82 305.676 3302.57 171.18C3303.1 162.283 3300.48 154.956 3294.72 149.2L3272.74 131.93L3271.96 132.715C3271.96 133.761 3284.78 134.023 3310.42 133.5L3380.29 132.715C3392.32 132.715 3401.48 133.238 3407.76 134.285C3414.04 135.331 3416.92 136.64 3416.4 138.21C3405.41 144.49 3399.91 154.171 3399.91 167.255C3399.91 171.441 3400.17 175.89 3400.7 180.6L3399.13 580.165C3402.27 589.061 3410.9 599.79 3425.03 612.35C3437.59 623.863 3448.84 631.975 3458.79 636.685C3498.04 624.125 3521.59 610.518 3529.44 595.865C3528.91 524.168 3527.87 394.643 3526.3 207.29C3527.87 201.533 3524.73 192.636 3516.88 180.6C3507.46 165.946 3502.49 158.096 3501.96 157.05C3514.52 159.666 3544.09 161.236 3590.67 161.76C3627.3 162.283 3645.62 163.853 3645.62 166.47Z"/>
<path d="M3990.47 549.55C3975.82 562.11 3947.3 585.398 3904.91 619.415C3848.91 664.421 3811.75 686.925 3793.44 686.925C3790.82 686.925 3788.99 686.14 3787.94 684.57L3689.82 566.82C3676.21 537.513 3669.41 518.15 3669.41 508.73C3669.41 497.216 3675.69 487.535 3688.25 479.685L3715.72 462.415L3775.38 448.285C3768.06 455.088 3760.73 461.63 3753.4 467.91C3745.55 476.283 3741.1 484.918 3740.06 493.815C3743.72 506.898 3757.85 529.663 3782.45 562.11C3808.61 596.65 3826.15 612.611 3835.04 609.995C3843.94 594.295 3860.95 572.576 3886.07 544.84L3879.79 546.41C3883.45 543.793 3885.28 539.868 3885.28 534.635C3885.28 522.598 3847.34 473.143 3771.46 386.27C3695.57 298.873 3657.63 251.773 3657.63 244.97C3657.63 240.783 3659.2 237.643 3662.34 235.55L3674.12 221.42L3760.47 152.34C3816.99 107.333 3853.88 84.8295 3871.15 84.8295C3873.77 84.8295 3875.86 85.6145 3877.43 87.1845L3975.56 204.935C3989.16 234.241 3995.97 253.605 3995.97 263.025C3995.97 274.538 3989.43 284.22 3976.34 292.07L3898.63 311.695L3897.84 306.2C3903.6 300.443 3910.4 295.21 3918.25 290.5C3920.87 289.453 3922.7 285.005 3923.75 277.155C3919.56 263.548 3901.24 242.876 3868.8 215.14C3836.35 186.88 3814.11 174.058 3802.07 176.675C3795.27 178.245 3787.94 185.31 3780.09 197.87C3772.24 209.906 3768.32 219.588 3768.32 226.915C3768.32 233.195 3770.67 239.475 3775.38 245.755C3807.83 287.621 3859.12 345.973 3929.24 420.81C3980.01 474.713 4005.39 510.038 4005.39 526.785C4005.39 532.541 4003.03 537.513 3998.32 541.7L3989.69 543.27L3990.47 549.55Z"/>
</mask>
<path d="M383.25 562.11C386.39 575.716 370.952 596.388 336.935 624.125C295.592 657.618 255.557 677.243 216.83 683L193.28 679.075C169.73 659.711 146.965 640.348 124.985 620.985C85.2117 585.921 62.97 558.185 58.26 537.775C56.69 501.665 55.905 474.451 55.905 456.135C55.905 389.148 57.9984 317.713 62.185 241.83C123.415 195.253 187 159.666 252.94 135.07H272.565L342.43 222.205C350.803 230.578 357.607 242.876 362.84 259.1L253.725 343.095C267.332 324.778 274.135 308.816 274.135 295.21C274.135 291.546 273.612 287.883 272.565 284.22C273.088 282.126 273.35 279.771 273.35 277.155C273.35 268.781 264.192 240.26 245.875 191.59C231.222 197.87 211.335 207.29 186.215 219.85C172.085 229.27 162.927 241.306 158.74 255.96L157.17 580.165C160.31 589.061 168.945 599.79 183.075 612.35C195.635 623.863 206.887 631.975 216.83 636.685C256.08 624.125 279.63 610.518 287.48 595.865L286.695 521.29L381.68 541.7L383.25 562.11Z" fill="#FFE600"/>
<path d="M765.784 562.11C768.924 575.716 753.486 596.388 719.469 624.125C678.126 657.618 638.091 677.243 599.364 683L575.814 679.075C552.264 659.711 529.499 640.348 507.519 620.985C467.746 585.921 445.504 558.185 440.794 537.775C439.224 501.665 438.439 463.985 438.439 424.735C438.439 357.748 440.533 286.313 444.719 210.43C505.949 163.853 569.534 128.266 635.474 103.67H655.099L724.964 190.805C744.851 211.215 756.364 253.605 759.504 317.975C761.074 350.421 763.168 431.8 765.784 562.11ZM670.014 595.865L666.874 368.215C665.828 294.948 653.006 225.606 628.409 160.19C613.756 166.47 593.869 175.89 568.749 188.45C554.619 197.87 545.461 209.906 541.274 224.56L539.704 580.165C542.844 589.061 551.479 599.79 565.609 612.35C578.169 623.863 589.421 631.975 599.364 636.685C638.614 624.125 662.164 610.518 670.014 595.865Z" fill="#FFE600"/>
<path d="M972.478 553.475L942.648 507.945L939.508 501.665L944.218 706.55L919.098 667.3L901.828 855.7L845.308 531.495L873.568 550.335L843.738 355.655L882.988 372.925L861.008 188.45C853.682 178.506 845.308 168.563 835.888 158.62L857.868 159.405L977.188 160.19C968.815 162.283 964.628 172.226 964.628 190.02C964.628 191.59 966.198 194.991 969.339 200.225C972.478 205.458 974.31 208.598 974.833 209.645L1130.26 596.65V230.84C1130.26 209.906 1122.41 197.346 1106.71 193.16L1105.93 190.805H1236.24V191.59C1219.49 196.3 1211.12 209.383 1211.12 230.84V666.515C1211.12 689.018 1218.97 702.363 1234.67 706.55H1077.67C1082.38 705.503 1087.87 701.84 1094.15 695.56C1100.43 689.28 1103.57 683.785 1103.57 679.075C1103.57 681.691 1099.65 672.271 1091.8 650.815L970.908 324.255L972.478 553.475Z" fill="#FFE600"/>
<path d="M1283.49 56.5695C1337.4 61.8029 1400.46 64.4195 1472.68 64.4195C1563.21 64.4195 1641.45 60.4945 1707.39 52.6445L1736.44 193.16C1728.59 180.076 1717.07 169.086 1701.9 160.19C1686.72 150.77 1671.81 146.06 1657.15 146.06L1556.67 147.63L1558.24 529.925L1528.41 484.395L1525.27 478.115L1529.98 683L1504.86 643.75L1487.59 832.15L1431.07 507.945L1459.33 526.785L1429.5 332.105L1468.75 349.375L1444.42 148.415L1340.01 149.985C1313.32 146.845 1286.89 159.666 1260.73 188.45L1283.49 56.5695Z" fill="#FFE600"/>
<path d="M1992.38 504.02L1984.53 477.33L1930.37 296.78L1888.76 437.295C1930.63 476.021 1965.17 498.263 1992.38 504.02ZM1777.29 504.805L1741.97 466.34C1766.04 433.37 1794.3 414.53 1826.75 409.82L1882.48 234.765C1886.67 221.681 1888.76 211.738 1888.76 204.935C1888.76 185.048 1884.32 172.75 1875.42 168.04H1992.38C1982.44 172.75 1977.47 184.263 1977.47 202.58C1977.47 208.86 1979.04 216.971 1982.18 226.915L2068.53 494.6C2077.43 490.413 2091.82 482.825 2111.7 471.835C2100.19 493.291 2088.68 510.038 2077.16 522.075L2108.56 618.63C2113.8 634.853 2116.68 643.226 2117.2 643.75C2120.34 651.6 2125.31 658.665 2132.11 664.945L2154.88 678.29H1997.09L2016.72 664.945C2027.71 662.328 2033.2 654.478 2033.2 641.395C2033.2 638.255 2031.37 630.666 2027.71 618.63L2007.3 551.905C1974.85 545.101 1932.2 516.58 1879.34 466.34L1876.2 477.33L1815.76 664.945C1812.62 674.888 1811.05 682.738 1811.05 688.495C1811.05 697.391 1818.64 704.98 1833.81 711.26L1801.63 712.83H1749.82L1710.57 711.26C1723.13 707.073 1730.98 702.363 1734.12 697.13C1735.69 694.513 1738.83 685.878 1743.54 671.225L1817.33 441.22C1794.83 442.79 1775.2 452.471 1758.45 470.265L1777.29 504.805Z" fill="#FFE600"/>
<path d="M2485.27 562.11C2488.41 575.716 2472.97 596.388 2438.96 624.125C2397.61 657.618 2357.58 677.243 2318.85 683L2295.3 679.075C2271.75 659.711 2248.99 640.348 2227.01 620.985C2187.23 585.921 2164.99 558.185 2160.28 537.775C2158.71 501.665 2157.93 474.451 2157.93 456.135C2157.93 389.148 2160.02 317.713 2164.21 241.83C2225.44 195.253 2289.02 159.666 2354.96 135.07H2374.59L2444.45 222.205C2452.83 230.578 2459.63 242.876 2464.86 259.1L2355.75 343.095C2369.35 324.778 2376.16 308.816 2376.16 295.21C2376.16 291.546 2375.63 287.883 2374.59 284.22C2375.11 282.126 2375.37 279.771 2375.37 277.155C2375.37 268.781 2366.21 240.26 2347.9 191.59C2333.24 197.87 2313.36 207.29 2288.24 219.85C2274.11 229.27 2264.95 241.306 2260.76 255.96L2259.19 580.165C2262.33 589.061 2270.97 599.79 2285.1 612.35C2297.66 623.863 2308.91 631.975 2318.85 636.685C2358.1 624.125 2381.65 610.518 2389.5 595.865L2388.72 521.29L2483.7 541.7L2485.27 562.11Z" fill="#FFE600"/>
<path d="M2551.45 56.5695C2605.35 61.8029 2668.42 64.4195 2740.64 64.4195C2831.17 64.4195 2909.41 60.4945 2975.35 52.6445L3004.4 193.16C2996.55 180.076 2985.03 169.086 2969.86 160.19C2954.68 150.77 2939.76 146.06 2925.11 146.06L2824.63 147.63L2826.2 529.925L2796.37 484.395L2793.23 478.115L2797.94 683L2772.82 643.75L2755.55 832.15L2699.03 507.945L2727.29 526.785L2697.46 332.105L2736.71 349.375L2712.38 148.415L2607.97 149.985C2581.28 146.845 2554.85 159.666 2528.69 188.45L2551.45 56.5695Z" fill="#FFE600"/>
<path d="M3645.62 166.47C3637.25 175.89 3632.53 181.646 3631.49 183.74C3626.78 193.16 3624.42 207.551 3624.42 226.915C3623.9 305.415 3624.16 417.146 3625.21 562.11C3628.35 575.716 3612.91 596.388 3578.89 624.125C3537.55 657.618 3497.51 677.243 3458.79 683L3435.24 679.075C3411.69 659.711 3388.92 640.348 3366.94 620.985C3327.17 585.921 3304.93 558.185 3300.22 537.775C3296.03 427.875 3296.82 305.676 3302.57 171.18C3303.1 162.283 3300.48 154.956 3294.72 149.2L3272.74 131.93L3271.96 132.715C3271.96 133.761 3284.78 134.023 3310.42 133.5L3380.29 132.715C3392.32 132.715 3401.48 133.238 3407.76 134.285C3414.04 135.331 3416.92 136.64 3416.4 138.21C3405.41 144.49 3399.91 154.171 3399.91 167.255C3399.91 171.441 3400.17 175.89 3400.7 180.6L3399.13 580.165C3402.27 589.061 3410.9 599.79 3425.03 612.35C3437.59 623.863 3448.84 631.975 3458.79 636.685C3498.04 624.125 3521.59 610.518 3529.44 595.865C3528.91 524.168 3527.87 394.643 3526.3 207.29C3527.87 201.533 3524.73 192.636 3516.88 180.6C3507.46 165.946 3502.49 158.096 3501.96 157.05C3514.52 159.666 3544.09 161.236 3590.67 161.76C3627.3 162.283 3645.62 163.853 3645.62 166.47Z" fill="#FFE600"/>
<path d="M3990.47 549.55C3975.82 562.11 3947.3 585.398 3904.91 619.415C3848.91 664.421 3811.75 686.925 3793.44 686.925C3790.82 686.925 3788.99 686.14 3787.94 684.57L3689.82 566.82C3676.21 537.513 3669.41 518.15 3669.41 508.73C3669.41 497.216 3675.69 487.535 3688.25 479.685L3715.72 462.415L3775.38 448.285C3768.06 455.088 3760.73 461.63 3753.4 467.91C3745.55 476.283 3741.1 484.918 3740.06 493.815C3743.72 506.898 3757.85 529.663 3782.45 562.11C3808.61 596.65 3826.15 612.611 3835.04 609.995C3843.94 594.295 3860.95 572.576 3886.07 544.84L3879.79 546.41C3883.45 543.793 3885.28 539.868 3885.28 534.635C3885.28 522.598 3847.34 473.143 3771.46 386.27C3695.57 298.873 3657.63 251.773 3657.63 244.97C3657.63 240.783 3659.2 237.643 3662.34 235.55L3674.12 221.42L3760.47 152.34C3816.99 107.333 3853.88 84.8295 3871.15 84.8295C3873.77 84.8295 3875.86 85.6145 3877.43 87.1845L3975.56 204.935C3989.16 234.241 3995.97 253.605 3995.97 263.025C3995.97 274.538 3989.43 284.22 3976.34 292.07L3898.63 311.695L3897.84 306.2C3903.6 300.443 3910.4 295.21 3918.25 290.5C3920.87 289.453 3922.7 285.005 3923.75 277.155C3919.56 263.548 3901.24 242.876 3868.8 215.14C3836.35 186.88 3814.11 174.058 3802.07 176.675C3795.27 178.245 3787.94 185.31 3780.09 197.87C3772.24 209.906 3768.32 219.588 3768.32 226.915C3768.32 233.195 3770.67 239.475 3775.38 245.755C3807.83 287.621 3859.12 345.973 3929.24 420.81C3980.01 474.713 4005.39 510.038 4005.39 526.785C4005.39 532.541 4003.03 537.513 3998.32 541.7L3989.69 543.27L3990.47 549.55Z" fill="#FFE600"/>
<path d="M383.25 562.11C386.39 575.716 370.952 596.388 336.935 624.125C295.592 657.618 255.557 677.243 216.83 683L193.28 679.075C169.73 659.711 146.965 640.348 124.985 620.985C85.2117 585.921 62.97 558.185 58.26 537.775C56.69 501.665 55.905 474.451 55.905 456.135C55.905 389.148 57.9984 317.713 62.185 241.83C123.415 195.253 187 159.666 252.94 135.07H272.565L342.43 222.205C350.803 230.578 357.607 242.876 362.84 259.1L253.725 343.095C267.332 324.778 274.135 308.816 274.135 295.21C274.135 291.546 273.612 287.883 272.565 284.22C273.088 282.126 273.35 279.771 273.35 277.155C273.35 268.781 264.192 240.26 245.875 191.59C231.222 197.87 211.335 207.29 186.215 219.85C172.085 229.27 162.927 241.306 158.74 255.96L157.17 580.165C160.31 589.061 168.945 599.79 183.075 612.35C195.635 623.863 206.887 631.975 216.83 636.685C256.08 624.125 279.63 610.518 287.48 595.865L286.695 521.29L381.68 541.7L383.25 562.11Z" stroke="#452C06" stroke-width="30" mask="url(#path-1-outside-1_34_13)"/>
<path d="M765.784 562.11C768.924 575.716 753.486 596.388 719.469 624.125C678.126 657.618 638.091 677.243 599.364 683L575.814 679.075C552.264 659.711 529.499 640.348 507.519 620.985C467.746 585.921 445.504 558.185 440.794 537.775C439.224 501.665 438.439 463.985 438.439 424.735C438.439 357.748 440.533 286.313 444.719 210.43C505.949 163.853 569.534 128.266 635.474 103.67H655.099L724.964 190.805C744.851 211.215 756.364 253.605 759.504 317.975C761.074 350.421 763.168 431.8 765.784 562.11ZM670.014 595.865L666.874 368.215C665.828 294.948 653.006 225.606 628.409 160.19C613.756 166.47 593.869 175.89 568.749 188.45C554.619 197.87 545.461 209.906 541.274 224.56L539.704 580.165C542.844 589.061 551.479 599.79 565.609 612.35C578.169 623.863 589.421 631.975 599.364 636.685C638.614 624.125 662.164 610.518 670.014 595.865Z" stroke="#452C06" stroke-width="30" mask="url(#path-1-outside-1_34_13)"/>
<path d="M972.478 553.475L942.648 507.945L939.508 501.665L944.218 706.55L919.098 667.3L901.828 855.7L845.308 531.495L873.568 550.335L843.738 355.655L882.988 372.925L861.008 188.45C853.682 178.506 845.308 168.563 835.888 158.62L857.868 159.405L977.188 160.19C968.815 162.283 964.628 172.226 964.628 190.02C964.628 191.59 966.198 194.991 969.339 200.225C972.478 205.458 974.31 208.598 974.833 209.645L1130.26 596.65V230.84C1130.26 209.906 1122.41 197.346 1106.71 193.16L1105.93 190.805H1236.24V191.59C1219.49 196.3 1211.12 209.383 1211.12 230.84V666.515C1211.12 689.018 1218.97 702.363 1234.67 706.55H1077.67C1082.38 705.503 1087.87 701.84 1094.15 695.56C1100.43 689.28 1103.57 683.785 1103.57 679.075C1103.57 681.691 1099.65 672.271 1091.8 650.815L970.908 324.255L972.478 553.475Z" stroke="#452C06" stroke-width="30" mask="url(#path-1-outside-1_34_13)"/>
<path d="M1283.49 56.5695C1337.4 61.8029 1400.46 64.4195 1472.68 64.4195C1563.21 64.4195 1641.45 60.4945 1707.39 52.6445L1736.44 193.16C1728.59 180.076 1717.07 169.086 1701.9 160.19C1686.72 150.77 1671.81 146.06 1657.15 146.06L1556.67 147.63L1558.24 529.925L1528.41 484.395L1525.27 478.115L1529.98 683L1504.86 643.75L1487.59 832.15L1431.07 507.945L1459.33 526.785L1429.5 332.105L1468.75 349.375L1444.42 148.415L1340.01 149.985C1313.32 146.845 1286.89 159.666 1260.73 188.45L1283.49 56.5695Z" stroke="#452C06" stroke-width="30" mask="url(#path-1-outside-1_34_13)"/>
<path d="M1992.38 504.02L1984.53 477.33L1930.37 296.78L1888.76 437.295C1930.63 476.021 1965.17 498.263 1992.38 504.02ZM1777.29 504.805L1741.97 466.34C1766.04 433.37 1794.3 414.53 1826.75 409.82L1882.48 234.765C1886.67 221.681 1888.76 211.738 1888.76 204.935C1888.76 185.048 1884.32 172.75 1875.42 168.04H1992.38C1982.44 172.75 1977.47 184.263 1977.47 202.58C1977.47 208.86 1979.04 216.971 1982.18 226.915L2068.53 494.6C2077.43 490.413 2091.82 482.825 2111.7 471.835C2100.19 493.291 2088.68 510.038 2077.16 522.075L2108.56 618.63C2113.8 634.853 2116.68 643.226 2117.2 643.75C2120.34 651.6 2125.31 658.665 2132.11 664.945L2154.88 678.29H1997.09L2016.72 664.945C2027.71 662.328 2033.2 654.478 2033.2 641.395C2033.2 638.255 2031.37 630.666 2027.71 618.63L2007.3 551.905C1974.85 545.101 1932.2 516.58 1879.34 466.34L1876.2 477.33L1815.76 664.945C1812.62 674.888 1811.05 682.738 1811.05 688.495C1811.05 697.391 1818.64 704.98 1833.81 711.26L1801.63 712.83H1749.82L1710.57 711.26C1723.13 707.073 1730.98 702.363 1734.12 697.13C1735.69 694.513 1738.83 685.878 1743.54 671.225L1817.33 441.22C1794.83 442.79 1775.2 452.471 1758.45 470.265L1777.29 504.805Z" stroke="#452C06" stroke-width="30" mask="url(#path-1-outside-1_34_13)"/>
<path d="M2485.27 562.11C2488.41 575.716 2472.97 596.388 2438.96 624.125C2397.61 657.618 2357.58 677.243 2318.85 683L2295.3 679.075C2271.75 659.711 2248.99 640.348 2227.01 620.985C2187.23 585.921 2164.99 558.185 2160.28 537.775C2158.71 501.665 2157.93 474.451 2157.93 456.135C2157.93 389.148 2160.02 317.713 2164.21 241.83C2225.44 195.253 2289.02 159.666 2354.96 135.07H2374.59L2444.45 222.205C2452.83 230.578 2459.63 242.876 2464.86 259.1L2355.75 343.095C2369.35 324.778 2376.16 308.816 2376.16 295.21C2376.16 291.546 2375.63 287.883 2374.59 284.22C2375.11 282.126 2375.37 279.771 2375.37 277.155C2375.37 268.781 2366.21 240.26 2347.9 191.59C2333.24 197.87 2313.36 207.29 2288.24 219.85C2274.11 229.27 2264.95 241.306 2260.76 255.96L2259.19 580.165C2262.33 589.061 2270.97 599.79 2285.1 612.35C2297.66 623.863 2308.91 631.975 2318.85 636.685C2358.1 624.125 2381.65 610.518 2389.5 595.865L2388.72 521.29L2483.7 541.7L2485.27 562.11Z" stroke="#452C06" stroke-width="30" mask="url(#path-1-outside-1_34_13)"/>
<path d="M2551.45 56.5695C2605.35 61.8029 2668.42 64.4195 2740.64 64.4195C2831.17 64.4195 2909.41 60.4945 2975.35 52.6445L3004.4 193.16C2996.55 180.076 2985.03 169.086 2969.86 160.19C2954.68 150.77 2939.76 146.06 2925.11 146.06L2824.63 147.63L2826.2 529.925L2796.37 484.395L2793.23 478.115L2797.94 683L2772.82 643.75L2755.55 832.15L2699.03 507.945L2727.29 526.785L2697.46 332.105L2736.71 349.375L2712.38 148.415L2607.97 149.985C2581.28 146.845 2554.85 159.666 2528.69 188.45L2551.45 56.5695Z" stroke="#452C06" stroke-width="30" mask="url(#path-1-outside-1_34_13)"/>
<path d="M3645.62 166.47C3637.25 175.89 3632.53 181.646 3631.49 183.74C3626.78 193.16 3624.42 207.551 3624.42 226.915C3623.9 305.415 3624.16 417.146 3625.21 562.11C3628.35 575.716 3612.91 596.388 3578.89 624.125C3537.55 657.618 3497.51 677.243 3458.79 683L3435.24 679.075C3411.69 659.711 3388.92 640.348 3366.94 620.985C3327.17 585.921 3304.93 558.185 3300.22 537.775C3296.03 427.875 3296.82 305.676 3302.57 171.18C3303.1 162.283 3300.48 154.956 3294.72 149.2L3272.74 131.93L3271.96 132.715C3271.96 133.761 3284.78 134.023 3310.42 133.5L3380.29 132.715C3392.32 132.715 3401.48 133.238 3407.76 134.285C3414.04 135.331 3416.92 136.64 3416.4 138.21C3405.41 144.49 3399.91 154.171 3399.91 167.255C3399.91 171.441 3400.17 175.89 3400.7 180.6L3399.13 580.165C3402.27 589.061 3410.9 599.79 3425.03 612.35C3437.59 623.863 3448.84 631.975 3458.79 636.685C3498.04 624.125 3521.59 610.518 3529.44 595.865C3528.91 524.168 3527.87 394.643 3526.3 207.29C3527.87 201.533 3524.73 192.636 3516.88 180.6C3507.46 165.946 3502.49 158.096 3501.96 157.05C3514.52 159.666 3544.09 161.236 3590.67 161.76C3627.3 162.283 3645.62 163.853 3645.62 166.47Z" stroke="#452C06" stroke-width="30" mask="url(#path-1-outside-1_34_13)"/>
<path d="M3990.47 549.55C3975.82 562.11 3947.3 585.398 3904.91 619.415C3848.91 664.421 3811.75 686.925 3793.44 686.925C3790.82 686.925 3788.99 686.14 3787.94 684.57L3689.82 566.82C3676.21 537.513 3669.41 518.15 3669.41 508.73C3669.41 497.216 3675.69 487.535 3688.25 479.685L3715.72 462.415L3775.38 448.285C3768.06 455.088 3760.73 461.63 3753.4 467.91C3745.55 476.283 3741.1 484.918 3740.06 493.815C3743.72 506.898 3757.85 529.663 3782.45 562.11C3808.61 596.65 3826.15 612.611 3835.04 609.995C3843.94 594.295 3860.95 572.576 3886.07 544.84L3879.79 546.41C3883.45 543.793 3885.28 539.868 3885.28 534.635C3885.28 522.598 3847.34 473.143 3771.46 386.27C3695.57 298.873 3657.63 251.773 3657.63 244.97C3657.63 240.783 3659.2 237.643 3662.34 235.55L3674.12 221.42L3760.47 152.34C3816.99 107.333 3853.88 84.8295 3871.15 84.8295C3873.77 84.8295 3875.86 85.6145 3877.43 87.1845L3975.56 204.935C3989.16 234.241 3995.97 253.605 3995.97 263.025C3995.97 274.538 3989.43 284.22 3976.34 292.07L3898.63 311.695L3897.84 306.2C3903.6 300.443 3910.4 295.21 3918.25 290.5C3920.87 289.453 3922.7 285.005 3923.75 277.155C3919.56 263.548 3901.24 242.876 3868.8 215.14C3836.35 186.88 3814.11 174.058 3802.07 176.675C3795.27 178.245 3787.94 185.31 3780.09 197.87C3772.24 209.906 3768.32 219.588 3768.32 226.915C3768.32 233.195 3770.67 239.475 3775.38 245.755C3807.83 287.621 3859.12 345.973 3929.24 420.81C3980.01 474.713 4005.39 510.038 4005.39 526.785C4005.39 532.541 4003.03 537.513 3998.32 541.7L3989.69 543.27L3990.47 549.55Z" stroke="#452C06" stroke-width="30" mask="url(#path-1-outside-1_34_13)"/>
</g>
<defs>
<filter id="filter0_ddiii_34_13" x="0.905029" y="0.12207" width="4059.48" height="906.153" filterUnits="userSpaceOnUse" color-interpolation-filters="sRGB">
<feFlood flood-opacity="0" result="BackgroundImageFix"/>
<feColorMatrix in="SourceAlpha" type="matrix" values="0 0 0 0 0 0 0 0 0 0 0 0 0 0 0 0 0 0 127 0" result="hardAlpha"/>
<feOffset dy="44"/>
<feGaussianBlur stdDeviation="2"/>
<feComposite in2="hardAlpha" operator="out"/>
<feColorMatrix type="matrix" values="0 0 0 0 0.305882 0 0 0 0 0.345098 0 0 0 0 0.113725 0 0 0 1 0"/>
<feBlend mode="normal" in2="BackgroundImageFix" result="effect1_dropShadow_34_13"/>
<feColorMatrix in="SourceAlpha" type="matrix" values="0 0 0 0 0 0 0 0 0 0 0 0 0 0 0 0 0 0 127 0" result="hardAlpha"/>
<feOffset dy="4"/>
<feGaussianBlur stdDeviation="20"/>
<feComposite in2="hardAlpha" operator="out"/>
<feColorMatrix type="matrix" values="0 0 0 0 0.635726 0 0 0 0 0.305148 0 0 0 0 0 0 0 0 1 0"/>
<feBlend mode="normal" in2="effect1_dropShadow_34_13" result="effect2_dropShadow_34_13"/>
<feBlend mode="normal" in="SourceGraphic" in2="effect2_dropShadow_34_13" result="shape"/>
<feColorMatrix in="SourceAlpha" type="matrix" values="0 0 0 0 0 0 0 0 0 0 0 0 0 0 0 0 0 0 127 0" result="hardAlpha"/>
<feOffset dx="-20.1282" dy="20.1282"/>
<feComposite in2="hardAlpha" operator="arithmetic" k2="-1" k3="1"/>
<feColorMatrix type="matrix" values="0 0 0 0 1 0 0 0 0 0.54 0 0 0 0 0 0 0 0 1 0"/>
<feBlend mode="normal" in2="shape" result="effect3_innerShadow_34_13"/>
<feColorMatrix in="SourceAlpha" type="matrix" values="0 0 0 0 0 0 0 0 0 0 0 0 0 0 0 0 0 0 127 0" result="hardAlpha"/>
<feOffset dx="50"/>
<feComposite in2="hardAlpha" operator="arithmetic" k2="-1" k3="1"/>
<feColorMatrix type="matrix" values="0 0 0 0 0.929412 0 0 0 0 0.117647 0 0 0 0 0 0 0 0 1 0"/>
<feBlend mode="plus-lighter" in2="effect3_innerShadow_34_13" result="effect4_innerShadow_34_13"/>
<feColorMatrix in="SourceAlpha" type="matrix" values="0 0 0 0 0 0 0 0 0 0 0 0 0 0 0 0 0 0 127 0" result="hardAlpha"/>
<feOffset dx="-47"/>
<feComposite in2="hardAlpha" operator="arithmetic" k2="-1" k3="1"/>
<feColorMatrix type="matrix" values="0 0 0 0 1 0 0 0 0 0.54 0 0 0 0 0 0 0 0 1 0"/>
<feBlend mode="normal" in2="effect4_innerShadow_34_13" result="effect5_innerShadow_34_13"/>
</filter>
</defs>
</svg>
