<svg xmlns="http://www.w3.org/2000/svg" viewBox="-0.5 -0.5 24 24" id="Logo-Social-Media-Instagram--Streamline-Pixel.svg" height="24" width="24"><desc>Logo Social Media Instagram Streamline Icon: https://streamlinehq.com</desc><title>logo-social-media-instagram</title><g><path d="M21.9003125 2.1921874999999997H23v18.615624999999998h-1.0996875Z" fill="#ffb900" stroke-width="1"></path><path d="M20.8078125 20.8078125h1.0925v1.0996875h-1.0925Z" fill="#ffb900" stroke-width="1"></path><path d="M20.8078125 1.0925h1.0925v1.0996875h-1.0925Z" fill="#ffb900" stroke-width="1"></path><path d="M2.185 21.9075h18.6228125V23H2.185Z" fill="#ffb900" stroke-width="1"></path><path d="M19.708125000000003 3.2846875000000004H18.615624999999998V2.1921874999999997H4.3771875v1.0925H3.2846875000000004v1.0925H2.185V18.615624999999998h1.0996875v1.0996875h1.0925v1.0925H18.615624999999998v-1.0925h1.0925V18.615624999999998h1.0996875V4.3771875h-1.0996875ZM18.615624999999998 17.523125h-1.0925v1.0925H5.4696875v-1.0925H4.3771875V5.476875h1.0925V4.3771875h12.0534375v1.0996875h1.0925Z" fill="#ffb900" stroke-width="1"></path><path d="M15.3309375 5.476875h2.1921874999999997v2.1921874999999997h-2.1921874999999997Z" fill="#ffb900" stroke-width="1"></path><path d="M15.3309375 8.7615625h-1.0925v-1.0925h-5.476875v1.0925h-1.0996875v1.0925H6.569375000000001v5.476875h1.0925v1.0996875h1.0996875v1.0925h5.476875v-1.0925h1.0925v-1.0996875h1.0925v-5.476875h-1.0925Zm-1.0925 5.476875h-1.0996875v1.0925h-3.2846875000000004v-1.0925h-1.0925v-3.2846875000000004h1.0925v-1.0996875h3.2846875000000004v1.0996875h1.0996875Z" fill="#ffb900" stroke-width="1"></path><path d="M2.185 0h18.6228125v1.0925H2.185Z" fill="#ffb900" stroke-width="1"></path><path d="M1.0925 20.8078125h1.0925v1.0996875H1.0925Z" fill="#ffb900" stroke-width="1"></path><path d="M1.0925 1.0925h1.0925v1.0996875H1.0925Z" fill="#ffb900" stroke-width="1"></path><path d="M0 2.1921874999999997h1.0925v18.615624999999998H0Z" fill="#ffb900" stroke-width="1"></path></g></svg>