<svg width="3440" height="869" viewBox="0 0 3440 869" fill="none" xmlns="http://www.w3.org/2000/svg">
<g filter="url(#filter0_ddiii_34_9)">
<mask id="path-1-outside-1_34_9" maskUnits="userSpaceOnUse" x="40.625" y="36.8398" width="3359" height="784" fill="black">
<rect fill="white" x="40.625" y="36.8398" width="3359" height="784"/>
<path d="M188.645 515.775L158.815 470.245L155.675 463.965L160.385 668.85L135.265 629.6L117.995 818L61.475 493.795L89.735 512.635L59.905 317.955L99.155 335.225L77.175 148.395L67.755 132.695C63.5683 126.938 58.8583 123.275 53.625 121.705H69.325L194.14 112.285L211.41 113.855C203.56 115.948 199.635 126.677 199.635 146.04C199.635 148.133 201.467 153.89 205.13 163.31L308.75 426.285L421.79 168.02C428.07 153.89 431.21 145.255 431.21 142.115C431.21 131.648 430.948 125.63 430.425 124.06C428.332 117.257 422.052 113.332 411.585 112.285H567.8C564.66 113.332 557.857 123.275 547.39 142.115L524.625 327.375L563.875 310.105L534.045 504.785L562.305 485.945L505.785 810.15L488.515 621.75L463.395 661L468.105 456.115L464.965 462.395L435.135 507.925L436.705 282.63L307.18 550.315L187.86 325.02L188.645 515.775Z"/>
<path d="M939.97 540.11C943.11 553.717 927.672 574.388 893.655 602.125C852.311 635.618 812.276 655.243 773.55 661L750 657.075C726.45 637.712 703.685 618.348 681.705 598.985C641.931 563.922 619.69 536.185 614.98 515.775C613.41 479.665 612.625 441.985 612.625 402.735C612.625 335.748 614.718 264.313 618.905 188.43C680.135 141.853 743.72 106.267 809.66 81.6698H829.285L899.15 168.805C919.037 189.215 930.55 231.605 933.69 295.975C935.26 328.422 937.353 409.8 939.97 540.11ZM844.2 573.865L841.06 346.215C840.013 272.948 827.191 203.607 802.595 138.19C787.941 144.47 768.055 153.89 742.935 166.45C728.805 175.87 719.646 187.906 715.46 202.56L713.89 558.165C717.03 567.062 725.665 577.79 739.795 590.35C752.355 601.863 763.606 609.975 773.55 614.685C812.8 602.125 836.35 588.518 844.2 573.865Z"/>
<path d="M1392.99 423.93C1411.83 421.313 1439.57 410.847 1476.2 392.53C1509.7 376.307 1537.7 368.195 1560.2 368.195C1569.62 368.195 1579.82 368.718 1590.81 369.765V433.35L1589.24 430.995L1590.81 540.11C1593.95 553.717 1578.52 574.388 1544.5 602.125C1503.16 635.618 1463.12 655.243 1424.39 661L1400.84 657.075C1377.29 637.712 1354.53 618.348 1332.55 598.985C1292.78 563.922 1270.53 536.185 1265.82 515.775C1264.25 479.665 1263.47 441.985 1263.47 402.735C1263.47 346.215 1265.56 280.013 1269.75 204.13C1330.98 157.553 1394.56 121.967 1460.5 97.3698H1480.13L1549.99 184.505C1558.37 192.878 1565.17 205.177 1570.4 221.4L1461.29 305.395C1474.9 287.078 1481.7 271.117 1481.7 257.51C1481.7 253.847 1481.18 250.183 1480.13 246.52C1480.65 244.427 1480.91 242.072 1480.91 239.455C1480.91 231.082 1471.76 202.56 1453.44 153.89C1438.79 160.17 1418.9 169.59 1393.78 182.15C1379.65 191.57 1370.49 203.607 1366.3 218.26L1364.73 558.165C1367.87 567.062 1376.51 577.79 1390.64 590.35C1403.2 601.863 1414.45 609.975 1424.39 614.685C1463.64 602.125 1487.19 588.518 1495.04 573.865L1494.26 438.06C1484.32 442.247 1473.59 444.34 1462.07 444.34C1441.66 444.34 1418.64 437.537 1392.99 423.93Z"/>
<path d="M1828.12 333.655L1818.7 103.65L1765.32 128.77L1766.11 325.805L1804.57 354.065L1828.12 333.655ZM1841.47 385.465C1845.66 425.762 1861.09 483.59 1887.78 558.95C1916.04 638.497 1936.72 675.915 1949.8 671.205C1963.41 672.252 1980.15 679.578 2000.04 693.185C2025.16 710.455 2046.09 722.492 2062.84 729.295C2058.13 729.818 2053.16 730.08 2047.92 730.08C2029.08 730.08 2000.82 725.37 1963.14 715.95C1925.99 706.53 1897.99 701.82 1879.15 701.82C1871.3 701.82 1864.23 702.605 1857.95 704.175C1861.62 698.942 1863.45 691.092 1863.45 680.625C1863.45 656.552 1852.72 612.592 1831.26 548.745C1804.57 469.198 1789.92 423.668 1787.3 412.155L1762.18 372.905L1766.89 507.925L1737.06 462.395L1733.92 456.115L1738.63 661L1713.51 621.75L1696.24 810.15L1639.72 485.945L1667.98 504.785L1638.15 310.105L1677.4 327.375L1644.43 51.8398H1765.32V94.2298L1824.98 62.8298L1920.75 179.795L1903.48 357.205L1841.47 385.465Z"/>
<path d="M2177.3 482.02L2169.45 455.33L2115.29 274.78L2073.68 415.295C2115.55 454.022 2150.09 476.263 2177.3 482.02ZM1962.21 482.805L1926.89 444.34C1950.96 411.37 1979.22 392.53 2011.67 387.82L2067.4 212.765C2071.59 199.682 2073.68 189.738 2073.68 182.935C2073.68 163.048 2069.23 150.75 2060.34 146.04H2177.3C2167.36 150.75 2162.39 162.263 2162.39 180.58C2162.39 186.86 2163.96 194.972 2167.1 204.915L2253.45 472.6C2262.34 468.413 2276.74 460.825 2296.62 449.835C2285.11 471.292 2273.6 488.038 2262.08 500.075L2293.48 596.63C2298.72 612.853 2301.59 621.227 2302.12 621.75C2305.26 629.6 2310.23 636.665 2317.03 642.945L2339.8 656.29H2182.01L2201.64 642.945C2212.63 640.328 2218.12 632.478 2218.12 619.395C2218.12 616.255 2216.29 608.667 2212.63 596.63L2192.22 529.905C2159.77 523.102 2117.12 494.58 2064.26 444.34L2061.12 455.33L2000.68 642.945C1997.54 652.888 1995.97 660.738 1995.97 666.495C1995.97 675.392 2003.56 682.98 2018.73 689.26L1986.55 690.83H1934.74L1895.49 689.26C1908.05 685.073 1915.9 680.363 1919.04 675.13C1920.61 672.513 1923.75 663.878 1928.46 649.225L2002.25 419.22C1979.74 420.79 1960.12 430.472 1943.37 448.265L1962.21 482.805Z"/>
<path d="M2625.44 179.795L2608.17 357.205L2523.39 402.735L2462.95 339.935L2463.73 507.925L2433.9 462.395L2430.76 456.115L2435.47 661L2410.35 621.75L2393.08 810.15L2336.56 485.945L2364.82 504.785L2334.99 310.105L2374.24 327.375L2341.27 51.8398H2462.16V94.2298L2537.52 62.8298L2625.44 179.795ZM2532.81 333.655L2523.39 103.65L2462.16 128.77L2462.95 325.805L2517.11 354.065L2532.81 333.655Z"/>
<path d="M2705.67 365.84L2677.41 376.83C2670.09 380.493 2666.95 385.465 2667.99 391.745C2668.52 412.678 2685.26 428.117 2718.23 438.06L2715.88 193.14C2713.79 174.823 2704.1 161.74 2686.83 153.89H2833.63C2821.59 163.31 2815.57 174.3 2815.57 186.86L2817.93 439.63C2839.91 432.303 2866.34 419.482 2897.21 401.165L2898 180.58C2898 167.497 2896.95 158.862 2894.86 154.675C2890.67 146.825 2879.94 138.975 2862.67 131.125L3014.18 128.77C2994.82 145.517 2984.35 159.908 2982.78 171.945L2985.92 348.57C3008.95 336.533 3025.95 330.515 3036.94 330.515C3047.93 330.515 3061.8 333.655 3078.55 339.935C3060.23 354.065 3051.34 372.12 3051.86 394.1C3041.39 379.447 3030.14 372.12 3018.1 372.12C3009.73 372.12 2999.26 375.783 2986.7 383.11L2991.41 666.495C2991.41 680.102 3003.19 691.615 3026.74 701.035L2861.1 698.68C2880.47 690.307 2892.24 677.747 2896.43 661L2897.21 439.63C2867.38 455.853 2840.96 466.843 2817.93 472.6L2819.5 628.815C2822.12 644.515 2834.41 656.813 2856.39 665.71L2676.63 663.355C2705.41 654.458 2719.8 638.758 2719.8 616.255L2718.23 464.75C2668.52 452.713 2644.18 424.453 2645.23 379.97C2663.55 370.027 2679.25 365.055 2692.33 365.055C2696.52 365.055 2700.96 365.317 2705.67 365.84Z"/>
<path d="M3369.69 527.55C3355.04 540.11 3326.52 563.398 3284.13 597.415C3228.13 642.422 3190.97 664.925 3172.66 664.925C3170.04 664.925 3168.21 664.14 3167.16 662.57L3069.04 544.82C3055.43 515.513 3048.63 496.15 3048.63 486.73C3048.63 475.217 3054.91 465.535 3067.47 457.685L3094.94 440.415L3154.6 426.285C3147.28 433.088 3139.95 439.63 3132.62 445.91C3124.77 454.283 3120.32 462.918 3119.28 471.815C3122.94 484.898 3137.07 507.663 3161.67 540.11C3187.83 574.65 3205.37 590.612 3214.26 587.995C3223.16 572.295 3240.17 550.577 3265.29 522.84L3259.01 524.41C3262.67 521.793 3264.5 517.868 3264.5 512.635C3264.5 500.598 3226.56 451.143 3150.68 364.27C3074.79 276.873 3036.85 229.773 3036.85 222.97C3036.85 218.783 3038.42 215.643 3041.56 213.55L3053.34 199.42L3139.69 130.34C3196.21 85.3332 3233.1 62.8298 3250.37 62.8298C3252.99 62.8298 3255.08 63.6148 3256.65 65.1848L3354.78 182.935C3368.38 212.242 3375.19 231.605 3375.19 241.025C3375.19 252.538 3368.65 262.22 3355.56 270.07L3277.85 289.695L3277.06 284.2C3282.82 278.443 3289.62 273.21 3297.47 268.5C3300.09 267.453 3301.92 263.005 3302.97 255.155C3298.78 241.548 3280.46 220.877 3248.02 193.14C3215.57 164.88 3193.33 152.058 3181.29 154.675C3174.49 156.245 3167.16 163.31 3159.31 175.87C3151.46 187.907 3147.54 197.588 3147.54 204.915C3147.54 211.195 3149.89 217.475 3154.6 223.755C3187.05 265.622 3238.34 323.973 3308.46 398.81C3359.23 452.713 3384.61 488.038 3384.61 504.785C3384.61 510.542 3382.25 515.513 3377.54 519.7L3368.91 521.27L3369.69 527.55Z"/>
</mask>
<path d="M188.645 515.775L158.815 470.245L155.675 463.965L160.385 668.85L135.265 629.6L117.995 818L61.475 493.795L89.735 512.635L59.905 317.955L99.155 335.225L77.175 148.395L67.755 132.695C63.5683 126.938 58.8583 123.275 53.625 121.705H69.325L194.14 112.285L211.41 113.855C203.56 115.948 199.635 126.677 199.635 146.04C199.635 148.133 201.467 153.89 205.13 163.31L308.75 426.285L421.79 168.02C428.07 153.89 431.21 145.255 431.21 142.115C431.21 131.648 430.948 125.63 430.425 124.06C428.332 117.257 422.052 113.332 411.585 112.285H567.8C564.66 113.332 557.857 123.275 547.39 142.115L524.625 327.375L563.875 310.105L534.045 504.785L562.305 485.945L505.785 810.15L488.515 621.75L463.395 661L468.105 456.115L464.965 462.395L435.135 507.925L436.705 282.63L307.18 550.315L187.86 325.02L188.645 515.775Z" fill="#FFE600"/>
<path d="M939.97 540.11C943.11 553.717 927.672 574.388 893.655 602.125C852.311 635.618 812.276 655.243 773.55 661L750 657.075C726.45 637.712 703.685 618.348 681.705 598.985C641.931 563.922 619.69 536.185 614.98 515.775C613.41 479.665 612.625 441.985 612.625 402.735C612.625 335.748 614.718 264.313 618.905 188.43C680.135 141.853 743.72 106.267 809.66 81.6698H829.285L899.15 168.805C919.037 189.215 930.55 231.605 933.69 295.975C935.26 328.422 937.353 409.8 939.97 540.11ZM844.2 573.865L841.06 346.215C840.013 272.948 827.191 203.607 802.595 138.19C787.941 144.47 768.055 153.89 742.935 166.45C728.805 175.87 719.646 187.906 715.46 202.56L713.89 558.165C717.03 567.062 725.665 577.79 739.795 590.35C752.355 601.863 763.606 609.975 773.55 614.685C812.8 602.125 836.35 588.518 844.2 573.865Z" fill="#FFE600"/>
<path d="M1392.99 423.93C1411.83 421.313 1439.57 410.847 1476.2 392.53C1509.7 376.307 1537.7 368.195 1560.2 368.195C1569.62 368.195 1579.82 368.718 1590.81 369.765V433.35L1589.24 430.995L1590.81 540.11C1593.95 553.717 1578.52 574.388 1544.5 602.125C1503.16 635.618 1463.12 655.243 1424.39 661L1400.84 657.075C1377.29 637.712 1354.53 618.348 1332.55 598.985C1292.78 563.922 1270.53 536.185 1265.82 515.775C1264.25 479.665 1263.47 441.985 1263.47 402.735C1263.47 346.215 1265.56 280.013 1269.75 204.13C1330.98 157.553 1394.56 121.967 1460.5 97.3698H1480.13L1549.99 184.505C1558.37 192.878 1565.17 205.177 1570.4 221.4L1461.29 305.395C1474.9 287.078 1481.7 271.117 1481.7 257.51C1481.7 253.847 1481.18 250.183 1480.13 246.52C1480.65 244.427 1480.91 242.072 1480.91 239.455C1480.91 231.082 1471.76 202.56 1453.44 153.89C1438.79 160.17 1418.9 169.59 1393.78 182.15C1379.65 191.57 1370.49 203.607 1366.3 218.26L1364.73 558.165C1367.87 567.062 1376.51 577.79 1390.64 590.35C1403.2 601.863 1414.45 609.975 1424.39 614.685C1463.64 602.125 1487.19 588.518 1495.04 573.865L1494.26 438.06C1484.32 442.247 1473.59 444.34 1462.07 444.34C1441.66 444.34 1418.64 437.537 1392.99 423.93Z" fill="#FFE600"/>
<path d="M1828.12 333.655L1818.7 103.65L1765.32 128.77L1766.11 325.805L1804.57 354.065L1828.12 333.655ZM1841.47 385.465C1845.66 425.762 1861.09 483.59 1887.78 558.95C1916.04 638.497 1936.72 675.915 1949.8 671.205C1963.41 672.252 1980.15 679.578 2000.04 693.185C2025.16 710.455 2046.09 722.492 2062.84 729.295C2058.13 729.818 2053.16 730.08 2047.92 730.08C2029.08 730.08 2000.82 725.37 1963.14 715.95C1925.99 706.53 1897.99 701.82 1879.15 701.82C1871.3 701.82 1864.23 702.605 1857.95 704.175C1861.62 698.942 1863.45 691.092 1863.45 680.625C1863.45 656.552 1852.72 612.592 1831.26 548.745C1804.57 469.198 1789.92 423.668 1787.3 412.155L1762.18 372.905L1766.89 507.925L1737.06 462.395L1733.92 456.115L1738.63 661L1713.51 621.75L1696.24 810.15L1639.72 485.945L1667.98 504.785L1638.15 310.105L1677.4 327.375L1644.43 51.8398H1765.32V94.2298L1824.98 62.8298L1920.75 179.795L1903.48 357.205L1841.47 385.465Z" fill="#FFE600"/>
<path d="M2177.3 482.02L2169.45 455.33L2115.29 274.78L2073.68 415.295C2115.55 454.022 2150.09 476.263 2177.3 482.02ZM1962.21 482.805L1926.89 444.34C1950.96 411.37 1979.22 392.53 2011.67 387.82L2067.4 212.765C2071.59 199.682 2073.68 189.738 2073.68 182.935C2073.68 163.048 2069.23 150.75 2060.34 146.04H2177.3C2167.36 150.75 2162.39 162.263 2162.39 180.58C2162.39 186.86 2163.96 194.972 2167.1 204.915L2253.45 472.6C2262.34 468.413 2276.74 460.825 2296.62 449.835C2285.11 471.292 2273.6 488.038 2262.08 500.075L2293.48 596.63C2298.72 612.853 2301.59 621.227 2302.12 621.75C2305.26 629.6 2310.23 636.665 2317.03 642.945L2339.8 656.29H2182.01L2201.64 642.945C2212.63 640.328 2218.12 632.478 2218.12 619.395C2218.12 616.255 2216.29 608.667 2212.63 596.63L2192.22 529.905C2159.77 523.102 2117.12 494.58 2064.26 444.34L2061.12 455.33L2000.68 642.945C1997.54 652.888 1995.97 660.738 1995.97 666.495C1995.97 675.392 2003.56 682.98 2018.73 689.26L1986.55 690.83H1934.74L1895.49 689.26C1908.05 685.073 1915.9 680.363 1919.04 675.13C1920.61 672.513 1923.75 663.878 1928.46 649.225L2002.25 419.22C1979.74 420.79 1960.12 430.472 1943.37 448.265L1962.21 482.805Z" fill="#FFE600"/>
<path d="M2625.44 179.795L2608.17 357.205L2523.39 402.735L2462.95 339.935L2463.73 507.925L2433.9 462.395L2430.76 456.115L2435.47 661L2410.35 621.75L2393.08 810.15L2336.56 485.945L2364.82 504.785L2334.99 310.105L2374.24 327.375L2341.27 51.8398H2462.16V94.2298L2537.52 62.8298L2625.44 179.795ZM2532.81 333.655L2523.39 103.65L2462.16 128.77L2462.95 325.805L2517.11 354.065L2532.81 333.655Z" fill="#FFE600"/>
<path d="M2705.67 365.84L2677.41 376.83C2670.09 380.493 2666.95 385.465 2667.99 391.745C2668.52 412.678 2685.26 428.117 2718.23 438.06L2715.88 193.14C2713.79 174.823 2704.1 161.74 2686.83 153.89H2833.63C2821.59 163.31 2815.57 174.3 2815.57 186.86L2817.93 439.63C2839.91 432.303 2866.34 419.482 2897.21 401.165L2898 180.58C2898 167.497 2896.95 158.862 2894.86 154.675C2890.67 146.825 2879.94 138.975 2862.67 131.125L3014.18 128.77C2994.82 145.517 2984.35 159.908 2982.78 171.945L2985.92 348.57C3008.95 336.533 3025.95 330.515 3036.94 330.515C3047.93 330.515 3061.8 333.655 3078.55 339.935C3060.23 354.065 3051.34 372.12 3051.86 394.1C3041.39 379.447 3030.14 372.12 3018.1 372.12C3009.73 372.12 2999.26 375.783 2986.7 383.11L2991.41 666.495C2991.41 680.102 3003.19 691.615 3026.74 701.035L2861.1 698.68C2880.47 690.307 2892.24 677.747 2896.43 661L2897.21 439.63C2867.38 455.853 2840.96 466.843 2817.93 472.6L2819.5 628.815C2822.12 644.515 2834.41 656.813 2856.39 665.71L2676.63 663.355C2705.41 654.458 2719.8 638.758 2719.8 616.255L2718.23 464.75C2668.52 452.713 2644.18 424.453 2645.23 379.97C2663.55 370.027 2679.25 365.055 2692.33 365.055C2696.52 365.055 2700.96 365.317 2705.67 365.84Z" fill="#FFE600"/>
<path d="M3369.69 527.55C3355.04 540.11 3326.52 563.398 3284.13 597.415C3228.13 642.422 3190.97 664.925 3172.66 664.925C3170.04 664.925 3168.21 664.14 3167.16 662.57L3069.04 544.82C3055.43 515.513 3048.63 496.15 3048.63 486.73C3048.63 475.217 3054.91 465.535 3067.47 457.685L3094.94 440.415L3154.6 426.285C3147.28 433.088 3139.95 439.63 3132.62 445.91C3124.77 454.283 3120.32 462.918 3119.28 471.815C3122.94 484.898 3137.07 507.663 3161.67 540.11C3187.83 574.65 3205.37 590.612 3214.26 587.995C3223.16 572.295 3240.17 550.577 3265.29 522.84L3259.01 524.41C3262.67 521.793 3264.5 517.868 3264.5 512.635C3264.5 500.598 3226.56 451.143 3150.68 364.27C3074.79 276.873 3036.85 229.773 3036.85 222.97C3036.85 218.783 3038.42 215.643 3041.56 213.55L3053.34 199.42L3139.69 130.34C3196.21 85.3332 3233.1 62.8298 3250.37 62.8298C3252.99 62.8298 3255.08 63.6148 3256.65 65.1848L3354.78 182.935C3368.38 212.242 3375.19 231.605 3375.19 241.025C3375.19 252.538 3368.65 262.22 3355.56 270.07L3277.85 289.695L3277.06 284.2C3282.82 278.443 3289.62 273.21 3297.47 268.5C3300.09 267.453 3301.92 263.005 3302.97 255.155C3298.78 241.548 3280.46 220.877 3248.02 193.14C3215.57 164.88 3193.33 152.058 3181.29 154.675C3174.49 156.245 3167.16 163.31 3159.31 175.87C3151.46 187.907 3147.54 197.588 3147.54 204.915C3147.54 211.195 3149.89 217.475 3154.6 223.755C3187.05 265.622 3238.34 323.973 3308.46 398.81C3359.23 452.713 3384.61 488.038 3384.61 504.785C3384.61 510.542 3382.25 515.513 3377.54 519.7L3368.91 521.27L3369.69 527.55Z" fill="#FFE600"/>
<path d="M188.645 515.775L158.815 470.245L155.675 463.965L160.385 668.85L135.265 629.6L117.995 818L61.475 493.795L89.735 512.635L59.905 317.955L99.155 335.225L77.175 148.395L67.755 132.695C63.5683 126.938 58.8583 123.275 53.625 121.705H69.325L194.14 112.285L211.41 113.855C203.56 115.948 199.635 126.677 199.635 146.04C199.635 148.133 201.467 153.89 205.13 163.31L308.75 426.285L421.79 168.02C428.07 153.89 431.21 145.255 431.21 142.115C431.21 131.648 430.948 125.63 430.425 124.06C428.332 117.257 422.052 113.332 411.585 112.285H567.8C564.66 113.332 557.857 123.275 547.39 142.115L524.625 327.375L563.875 310.105L534.045 504.785L562.305 485.945L505.785 810.15L488.515 621.75L463.395 661L468.105 456.115L464.965 462.395L435.135 507.925L436.705 282.63L307.18 550.315L187.86 325.02L188.645 515.775Z" stroke="#452C06" stroke-width="30" mask="url(#path-1-outside-1_34_9)"/>
<path d="M939.97 540.11C943.11 553.717 927.672 574.388 893.655 602.125C852.311 635.618 812.276 655.243 773.55 661L750 657.075C726.45 637.712 703.685 618.348 681.705 598.985C641.931 563.922 619.69 536.185 614.98 515.775C613.41 479.665 612.625 441.985 612.625 402.735C612.625 335.748 614.718 264.313 618.905 188.43C680.135 141.853 743.72 106.267 809.66 81.6698H829.285L899.15 168.805C919.037 189.215 930.55 231.605 933.69 295.975C935.26 328.422 937.353 409.8 939.97 540.11ZM844.2 573.865L841.06 346.215C840.013 272.948 827.191 203.607 802.595 138.19C787.941 144.47 768.055 153.89 742.935 166.45C728.805 175.87 719.646 187.906 715.46 202.56L713.89 558.165C717.03 567.062 725.665 577.79 739.795 590.35C752.355 601.863 763.606 609.975 773.55 614.685C812.8 602.125 836.35 588.518 844.2 573.865Z" stroke="#452C06" stroke-width="30" mask="url(#path-1-outside-1_34_9)"/>
<path d="M1392.99 423.93C1411.83 421.313 1439.57 410.847 1476.2 392.53C1509.7 376.307 1537.7 368.195 1560.2 368.195C1569.62 368.195 1579.82 368.718 1590.81 369.765V433.35L1589.24 430.995L1590.81 540.11C1593.95 553.717 1578.52 574.388 1544.5 602.125C1503.16 635.618 1463.12 655.243 1424.39 661L1400.84 657.075C1377.29 637.712 1354.53 618.348 1332.55 598.985C1292.78 563.922 1270.53 536.185 1265.82 515.775C1264.25 479.665 1263.47 441.985 1263.47 402.735C1263.47 346.215 1265.56 280.013 1269.75 204.13C1330.98 157.553 1394.56 121.967 1460.5 97.3698H1480.13L1549.99 184.505C1558.37 192.878 1565.17 205.177 1570.4 221.4L1461.29 305.395C1474.9 287.078 1481.7 271.117 1481.7 257.51C1481.7 253.847 1481.18 250.183 1480.13 246.52C1480.65 244.427 1480.91 242.072 1480.91 239.455C1480.91 231.082 1471.76 202.56 1453.44 153.89C1438.79 160.17 1418.9 169.59 1393.78 182.15C1379.65 191.57 1370.49 203.607 1366.3 218.26L1364.73 558.165C1367.87 567.062 1376.51 577.79 1390.64 590.35C1403.2 601.863 1414.45 609.975 1424.39 614.685C1463.64 602.125 1487.19 588.518 1495.04 573.865L1494.26 438.06C1484.32 442.247 1473.59 444.34 1462.07 444.34C1441.66 444.34 1418.64 437.537 1392.99 423.93Z" stroke="#452C06" stroke-width="30" mask="url(#path-1-outside-1_34_9)"/>
<path d="M1828.12 333.655L1818.7 103.65L1765.32 128.77L1766.11 325.805L1804.57 354.065L1828.12 333.655ZM1841.47 385.465C1845.66 425.762 1861.09 483.59 1887.78 558.95C1916.04 638.497 1936.72 675.915 1949.8 671.205C1963.41 672.252 1980.15 679.578 2000.04 693.185C2025.16 710.455 2046.09 722.492 2062.84 729.295C2058.13 729.818 2053.16 730.08 2047.92 730.08C2029.08 730.08 2000.82 725.37 1963.14 715.95C1925.99 706.53 1897.99 701.82 1879.15 701.82C1871.3 701.82 1864.23 702.605 1857.95 704.175C1861.62 698.942 1863.45 691.092 1863.45 680.625C1863.45 656.552 1852.72 612.592 1831.26 548.745C1804.57 469.198 1789.92 423.668 1787.3 412.155L1762.18 372.905L1766.89 507.925L1737.06 462.395L1733.92 456.115L1738.63 661L1713.51 621.75L1696.24 810.15L1639.72 485.945L1667.98 504.785L1638.15 310.105L1677.4 327.375L1644.43 51.8398H1765.32V94.2298L1824.98 62.8298L1920.75 179.795L1903.48 357.205L1841.47 385.465Z" stroke="#452C06" stroke-width="30" mask="url(#path-1-outside-1_34_9)"/>
<path d="M2177.3 482.02L2169.45 455.33L2115.29 274.78L2073.68 415.295C2115.55 454.022 2150.09 476.263 2177.3 482.02ZM1962.21 482.805L1926.89 444.34C1950.96 411.37 1979.22 392.53 2011.67 387.82L2067.4 212.765C2071.59 199.682 2073.68 189.738 2073.68 182.935C2073.68 163.048 2069.23 150.75 2060.34 146.04H2177.3C2167.36 150.75 2162.39 162.263 2162.39 180.58C2162.39 186.86 2163.96 194.972 2167.1 204.915L2253.45 472.6C2262.34 468.413 2276.74 460.825 2296.62 449.835C2285.11 471.292 2273.6 488.038 2262.08 500.075L2293.48 596.63C2298.72 612.853 2301.59 621.227 2302.12 621.75C2305.26 629.6 2310.23 636.665 2317.03 642.945L2339.8 656.29H2182.01L2201.64 642.945C2212.63 640.328 2218.12 632.478 2218.12 619.395C2218.12 616.255 2216.29 608.667 2212.63 596.63L2192.22 529.905C2159.77 523.102 2117.12 494.58 2064.26 444.34L2061.12 455.33L2000.68 642.945C1997.54 652.888 1995.97 660.738 1995.97 666.495C1995.97 675.392 2003.56 682.98 2018.73 689.26L1986.55 690.83H1934.74L1895.49 689.26C1908.05 685.073 1915.9 680.363 1919.04 675.13C1920.61 672.513 1923.75 663.878 1928.46 649.225L2002.25 419.22C1979.74 420.79 1960.12 430.472 1943.37 448.265L1962.21 482.805Z" stroke="#452C06" stroke-width="30" mask="url(#path-1-outside-1_34_9)"/>
<path d="M2625.44 179.795L2608.17 357.205L2523.39 402.735L2462.95 339.935L2463.73 507.925L2433.9 462.395L2430.76 456.115L2435.47 661L2410.35 621.75L2393.08 810.15L2336.56 485.945L2364.82 504.785L2334.99 310.105L2374.24 327.375L2341.27 51.8398H2462.16V94.2298L2537.52 62.8298L2625.44 179.795ZM2532.81 333.655L2523.39 103.65L2462.16 128.77L2462.95 325.805L2517.11 354.065L2532.81 333.655Z" stroke="#452C06" stroke-width="30" mask="url(#path-1-outside-1_34_9)"/>
<path d="M2705.67 365.84L2677.41 376.83C2670.09 380.493 2666.95 385.465 2667.99 391.745C2668.52 412.678 2685.26 428.117 2718.23 438.06L2715.88 193.14C2713.79 174.823 2704.1 161.74 2686.83 153.89H2833.63C2821.59 163.31 2815.57 174.3 2815.57 186.86L2817.93 439.63C2839.91 432.303 2866.34 419.482 2897.21 401.165L2898 180.58C2898 167.497 2896.95 158.862 2894.86 154.675C2890.67 146.825 2879.94 138.975 2862.67 131.125L3014.18 128.77C2994.82 145.517 2984.35 159.908 2982.78 171.945L2985.92 348.57C3008.95 336.533 3025.95 330.515 3036.94 330.515C3047.93 330.515 3061.8 333.655 3078.55 339.935C3060.23 354.065 3051.34 372.12 3051.86 394.1C3041.39 379.447 3030.14 372.12 3018.1 372.12C3009.73 372.12 2999.26 375.783 2986.7 383.11L2991.41 666.495C2991.41 680.102 3003.19 691.615 3026.74 701.035L2861.1 698.68C2880.47 690.307 2892.24 677.747 2896.43 661L2897.21 439.63C2867.38 455.853 2840.96 466.843 2817.93 472.6L2819.5 628.815C2822.12 644.515 2834.41 656.813 2856.39 665.71L2676.63 663.355C2705.41 654.458 2719.8 638.758 2719.8 616.255L2718.23 464.75C2668.52 452.713 2644.18 424.453 2645.23 379.97C2663.55 370.027 2679.25 365.055 2692.33 365.055C2696.52 365.055 2700.96 365.317 2705.67 365.84Z" stroke="#452C06" stroke-width="30" mask="url(#path-1-outside-1_34_9)"/>
<path d="M3369.69 527.55C3355.04 540.11 3326.52 563.398 3284.13 597.415C3228.13 642.422 3190.97 664.925 3172.66 664.925C3170.04 664.925 3168.21 664.14 3167.16 662.57L3069.04 544.82C3055.43 515.513 3048.63 496.15 3048.63 486.73C3048.63 475.217 3054.91 465.535 3067.47 457.685L3094.94 440.415L3154.6 426.285C3147.28 433.088 3139.95 439.63 3132.62 445.91C3124.77 454.283 3120.32 462.918 3119.28 471.815C3122.94 484.898 3137.07 507.663 3161.67 540.11C3187.83 574.65 3205.37 590.612 3214.26 587.995C3223.16 572.295 3240.17 550.577 3265.29 522.84L3259.01 524.41C3262.67 521.793 3264.5 517.868 3264.5 512.635C3264.5 500.598 3226.56 451.143 3150.68 364.27C3074.79 276.873 3036.85 229.773 3036.85 222.97C3036.85 218.783 3038.42 215.643 3041.56 213.55L3053.34 199.42L3139.69 130.34C3196.21 85.3332 3233.1 62.8298 3250.37 62.8298C3252.99 62.8298 3255.08 63.6148 3256.65 65.1848L3354.78 182.935C3368.38 212.242 3375.19 231.605 3375.19 241.025C3375.19 252.538 3368.65 262.22 3355.56 270.07L3277.85 289.695L3277.06 284.2C3282.82 278.443 3289.62 273.21 3297.47 268.5C3300.09 267.453 3301.92 263.005 3302.97 255.155C3298.78 241.548 3280.46 220.877 3248.02 193.14C3215.57 164.88 3193.33 152.058 3181.29 154.675C3174.49 156.245 3167.16 163.31 3159.31 175.87C3151.46 187.907 3147.54 197.588 3147.54 204.915C3147.54 211.195 3149.89 217.475 3154.6 223.755C3187.05 265.622 3238.34 323.973 3308.46 398.81C3359.23 452.713 3384.61 488.038 3384.61 504.785C3384.61 510.542 3382.25 515.513 3377.54 519.7L3368.91 521.27L3369.69 527.55Z" stroke="#452C06" stroke-width="30" mask="url(#path-1-outside-1_34_9)"/>
</g>
<defs>
<filter id="filter0_ddiii_34_9" x="0.690308" y="0.839844" width="3438.92" height="867.736" filterUnits="userSpaceOnUse" color-interpolation-filters="sRGB">
<feFlood flood-opacity="0" result="BackgroundImageFix"/>
<feColorMatrix in="SourceAlpha" type="matrix" values="0 0 0 0 0 0 0 0 0 0 0 0 0 0 0 0 0 0 127 0" result="hardAlpha"/>
<feOffset dy="44"/>
<feGaussianBlur stdDeviation="2"/>
<feComposite in2="hardAlpha" operator="out"/>
<feColorMatrix type="matrix" values="0 0 0 0 0.305882 0 0 0 0 0.345098 0 0 0 0 0.113725 0 0 0 1 0"/>
<feBlend mode="normal" in2="BackgroundImageFix" result="effect1_dropShadow_34_9"/>
<feColorMatrix in="SourceAlpha" type="matrix" values="0 0 0 0 0 0 0 0 0 0 0 0 0 0 0 0 0 0 127 0" result="hardAlpha"/>
<feOffset dy="4"/>
<feGaussianBlur stdDeviation="20"/>
<feComposite in2="hardAlpha" operator="out"/>
<feColorMatrix type="matrix" values="0 0 0 0 0.635726 0 0 0 0 0.305148 0 0 0 0 0 0 0 0 1 0"/>
<feBlend mode="normal" in2="effect1_dropShadow_34_9" result="effect2_dropShadow_34_9"/>
<feBlend mode="normal" in="SourceGraphic" in2="effect2_dropShadow_34_9" result="shape"/>
<feColorMatrix in="SourceAlpha" type="matrix" values="0 0 0 0 0 0 0 0 0 0 0 0 0 0 0 0 0 0 127 0" result="hardAlpha"/>
<feOffset dx="-20.1282" dy="20.1282"/>
<feComposite in2="hardAlpha" operator="arithmetic" k2="-1" k3="1"/>
<feColorMatrix type="matrix" values="0 0 0 0 1 0 0 0 0 0.54 0 0 0 0 0 0 0 0 1 0"/>
<feBlend mode="normal" in2="shape" result="effect3_innerShadow_34_9"/>
<feColorMatrix in="SourceAlpha" type="matrix" values="0 0 0 0 0 0 0 0 0 0 0 0 0 0 0 0 0 0 127 0" result="hardAlpha"/>
<feOffset dx="50"/>
<feComposite in2="hardAlpha" operator="arithmetic" k2="-1" k3="1"/>
<feColorMatrix type="matrix" values="0 0 0 0 0.929412 0 0 0 0 0.117647 0 0 0 0 0 0 0 0 1 0"/>
<feBlend mode="plus-lighter" in2="effect3_innerShadow_34_9" result="effect4_innerShadow_34_9"/>
<feColorMatrix in="SourceAlpha" type="matrix" values="0 0 0 0 0 0 0 0 0 0 0 0 0 0 0 0 0 0 127 0" result="hardAlpha"/>
<feOffset dx="-47"/>
<feComposite in2="hardAlpha" operator="arithmetic" k2="-1" k3="1"/>
<feColorMatrix type="matrix" values="0 0 0 0 1 0 0 0 0 0.54 0 0 0 0 0 0 0 0 1 0"/>
<feBlend mode="normal" in2="effect4_innerShadow_34_9" result="effect5_innerShadow_34_9"/>
</filter>
</defs>
</svg>
