<svg width="3915" height="907" viewBox="0 0 3915 907" fill="none" xmlns="http://www.w3.org/2000/svg">
<g filter="url(#filter0_ddiii_34_7)">
<mask id="path-1-outside-1_34_7" maskUnits="userSpaceOnUse" x="39.88" y="35.645" width="3835" height="823" fill="black">
<rect fill="white" x="39.88" y="35.645" width="3835" height="823"/>
<path d="M326.695 504.02L318.845 477.33L264.68 296.78L223.075 437.295C264.942 476.022 299.482 498.263 326.695 504.02ZM111.605 504.805L76.28 466.34C100.353 433.37 128.613 414.53 161.06 409.82L216.795 234.765C220.982 221.682 223.075 211.738 223.075 204.935C223.075 185.048 218.627 172.75 209.73 168.04H326.695C316.752 172.75 311.78 184.263 311.78 202.58C311.78 208.86 313.35 216.972 316.49 226.915L402.84 494.6C411.737 490.413 426.128 482.825 446.015 471.835C434.502 493.292 422.988 510.038 411.475 522.075L442.875 618.63C448.108 634.853 450.987 643.227 451.51 643.75C454.65 651.6 459.622 658.665 466.425 664.945L489.19 678.29H331.405L351.03 664.945C362.02 662.328 367.515 654.478 367.515 641.395C367.515 638.255 365.683 630.667 362.02 618.63L341.61 551.905C309.163 545.102 266.512 516.58 213.655 466.34L210.515 477.33L150.07 664.945C146.93 674.888 145.36 682.738 145.36 688.495C145.36 697.392 152.948 704.98 168.125 711.26L135.94 712.83H84.13L44.88 711.26C57.44 707.073 65.29 702.363 68.43 697.13C70 694.513 73.14 685.878 77.85 671.225L151.64 441.22C129.137 442.79 109.512 452.472 92.765 470.265L111.605 504.805Z"/>
<path d="M643.743 553.475L613.913 507.945L610.773 501.665L615.483 706.55L590.363 667.3L573.093 855.7L516.573 531.495L544.833 550.335L515.003 355.655L554.253 372.925L532.273 188.45C524.946 178.507 516.573 168.563 507.153 158.62L529.133 159.405L648.453 160.19C640.08 162.283 635.893 172.227 635.893 190.02C635.893 191.59 637.463 194.992 640.603 200.225C643.743 205.458 645.575 208.598 646.098 209.645L801.528 596.65V230.84C801.528 209.907 793.678 197.347 777.978 193.16L777.193 190.805H907.503V191.59C890.756 196.3 882.383 209.383 882.383 230.84V666.515C882.383 689.018 890.233 702.363 905.933 706.55H748.933C753.643 705.503 759.138 701.84 765.418 695.56C771.698 689.28 774.838 683.785 774.838 679.075C774.838 681.692 770.913 672.272 763.063 650.815L642.173 324.255L643.743 553.475Z"/>
<path d="M1045.03 635.115C1047.65 650.815 1059.95 663.113 1081.93 672.01L917.861 669.655C946.645 660.758 961.036 645.058 961.036 622.555L957.111 199.44C955.018 181.123 945.336 168.04 928.066 160.19H1059.16C1047.12 169.61 1041.11 180.6 1041.11 193.16L1045.03 635.115Z"/>
<path d="M1231.96 537.775L1202.13 492.245L1198.99 485.965L1203.7 690.85L1178.58 651.6L1161.31 840L1104.79 515.795L1133.05 534.635L1103.22 339.955L1142.47 357.225L1120.49 170.395L1111.07 154.695C1106.88 148.938 1102.17 145.275 1096.94 143.705H1112.64L1237.45 134.285L1254.72 135.855C1246.87 137.948 1242.95 148.677 1242.95 168.04C1242.95 170.133 1244.78 175.89 1248.44 185.31L1352.06 448.285L1465.1 190.02C1471.38 175.89 1474.52 167.255 1474.52 164.115C1474.52 153.648 1474.26 147.63 1473.74 146.06C1471.65 139.257 1465.37 135.332 1454.9 134.285H1611.11C1607.97 135.332 1601.17 145.275 1590.7 164.115L1567.94 349.375L1607.19 332.105L1577.36 526.785L1605.62 507.945L1549.1 832.15L1531.83 643.75L1506.71 683L1511.42 478.115L1508.28 484.395L1478.45 529.925L1480.02 304.63L1350.49 572.315L1231.17 347.02L1231.96 537.775Z"/>
<path d="M1886.73 504.02L1878.88 477.33L1824.71 296.78L1783.11 437.295C1824.98 476.022 1859.52 498.263 1886.73 504.02ZM1671.64 504.805L1636.31 466.34C1660.39 433.37 1688.65 414.53 1721.09 409.82L1776.83 234.765C1781.02 221.682 1783.11 211.738 1783.11 204.935C1783.11 185.048 1778.66 172.75 1769.76 168.04H1886.73C1876.79 172.75 1871.81 184.263 1871.81 202.58C1871.81 208.86 1873.38 216.972 1876.52 226.915L1962.87 494.6C1971.77 490.413 1986.16 482.825 2006.05 471.835C1994.54 493.292 1983.02 510.038 1971.51 522.075L2002.91 618.63C2008.14 634.853 2011.02 643.227 2011.54 643.75C2014.68 651.6 2019.66 658.665 2026.46 664.945L2049.22 678.29H1891.44L1911.06 664.945C1922.05 662.328 1927.55 654.478 1927.55 641.395C1927.55 638.255 1925.72 630.667 1922.05 618.63L1901.64 551.905C1869.2 545.102 1826.55 516.58 1773.69 466.34L1770.55 477.33L1710.1 664.945C1706.96 674.888 1705.39 682.738 1705.39 688.495C1705.39 697.392 1712.98 704.98 1728.16 711.26L1695.97 712.83H1644.16L1604.91 711.26C1617.47 707.073 1625.32 702.363 1628.46 697.13C1630.03 694.513 1633.17 685.878 1637.88 671.225L1711.67 441.22C1689.17 442.79 1669.55 452.472 1652.8 470.265L1671.64 504.805Z"/>
<path d="M2063.26 56.57C2117.17 61.8033 2180.23 64.42 2252.45 64.42C2342.98 64.42 2421.22 60.495 2487.16 52.645L2516.21 193.16C2508.36 180.077 2496.84 169.087 2481.67 160.19C2466.49 150.77 2451.58 146.06 2436.92 146.06L2336.44 147.63L2338.01 529.925L2308.18 484.395L2305.04 478.115L2309.75 683L2284.63 643.75L2267.36 832.15L2210.84 507.945L2239.1 526.785L2209.27 332.105L2248.52 349.375L2224.19 148.415L2119.78 149.985C2093.09 146.845 2066.66 159.667 2040.5 188.45L2063.26 56.57Z"/>
<path d="M2642.63 635.115C2645.25 650.815 2657.54 663.113 2679.52 672.01L2515.46 669.655C2544.24 660.758 2558.63 645.058 2558.63 622.555L2554.71 199.44C2552.62 181.123 2542.93 168.04 2525.66 160.19H2656.76C2644.72 169.61 2638.7 180.6 2638.7 193.16L2642.63 635.115Z"/>
<path d="M3028.16 562.11C3031.3 575.717 3015.86 596.388 2981.85 624.125C2940.5 657.618 2900.47 677.243 2861.74 683L2838.19 679.075C2814.64 659.712 2791.88 640.348 2769.9 620.985C2730.12 585.922 2707.88 558.185 2703.17 537.775C2701.6 501.665 2700.82 463.985 2700.82 424.735C2700.82 357.748 2702.91 286.313 2707.1 210.43C2768.33 163.853 2831.91 128.267 2897.85 103.67H2917.48L2987.34 190.805C3007.23 211.215 3018.74 253.605 3021.88 317.975C3023.45 350.422 3025.55 431.8 3028.16 562.11ZM2932.39 595.865L2929.25 368.215C2928.21 294.948 2915.38 225.607 2890.79 160.19C2876.13 166.47 2856.25 175.89 2831.13 188.45C2817 197.87 2807.84 209.907 2803.65 224.56L2802.08 580.165C2805.22 589.062 2813.86 599.79 2827.99 612.35C2840.55 623.863 2851.8 631.975 2861.74 636.685C2900.99 624.125 2924.54 610.518 2932.39 595.865Z"/>
<path d="M3234.86 553.475L3205.03 507.945L3201.89 501.665L3206.6 706.55L3181.48 667.3L3164.21 855.7L3107.69 531.495L3135.95 550.335L3106.12 355.655L3145.37 372.925L3123.39 188.45C3116.06 178.507 3107.69 168.563 3098.27 158.62L3120.25 159.405L3239.57 160.19C3231.19 162.283 3227.01 172.227 3227.01 190.02C3227.01 191.59 3228.58 194.992 3231.72 200.225C3234.86 205.458 3236.69 208.598 3237.21 209.645L3392.64 596.65V230.84C3392.64 209.907 3384.79 197.347 3369.09 193.16L3368.31 190.805H3498.62V191.59C3481.87 196.3 3473.5 209.383 3473.5 230.84V666.515C3473.5 689.018 3481.35 702.363 3497.05 706.55H3340.05C3344.76 705.503 3350.25 701.84 3356.53 695.56C3362.81 689.28 3365.95 683.785 3365.95 679.075C3365.95 681.692 3362.03 672.272 3354.18 650.815L3233.29 324.255L3234.86 553.475Z"/>
<path d="M3844.95 549.55C3830.3 562.11 3801.78 585.398 3759.39 619.415C3703.39 664.422 3666.24 686.925 3647.92 686.925C3645.3 686.925 3643.47 686.14 3642.42 684.57L3544.3 566.82C3530.69 537.513 3523.89 518.15 3523.89 508.73C3523.89 497.217 3530.17 487.535 3542.73 479.685L3570.2 462.415L3629.86 448.285C3622.54 455.088 3615.21 461.63 3607.88 467.91C3600.03 476.283 3595.59 484.918 3594.54 493.815C3598.2 506.898 3612.33 529.663 3636.93 562.11C3663.1 596.65 3680.63 612.612 3689.52 609.995C3698.42 594.295 3715.43 572.577 3740.55 544.84L3734.27 546.41C3737.93 543.793 3739.76 539.868 3739.76 534.635C3739.76 522.598 3701.82 473.143 3625.94 386.27C3550.06 298.873 3512.11 251.773 3512.11 244.97C3512.11 240.783 3513.68 237.643 3516.82 235.55L3528.6 221.42L3614.95 152.34C3671.47 107.333 3708.36 84.83 3725.63 84.83C3728.25 84.83 3730.34 85.615 3731.91 87.185L3830.04 204.935C3843.65 234.242 3850.45 253.605 3850.45 263.025C3850.45 274.538 3843.91 284.22 3830.82 292.07L3753.11 311.695L3752.32 306.2C3758.08 300.443 3764.88 295.21 3772.73 290.5C3775.35 289.453 3777.18 285.005 3778.23 277.155C3774.04 263.548 3755.73 242.877 3723.28 215.14C3690.83 186.88 3668.59 174.058 3656.55 176.675C3649.75 178.245 3642.42 185.31 3634.57 197.87C3626.72 209.907 3622.8 219.588 3622.8 226.915C3622.8 233.195 3625.15 239.475 3629.86 245.755C3662.31 287.622 3713.6 345.973 3783.72 420.81C3834.49 474.713 3859.87 510.038 3859.87 526.785C3859.87 532.542 3857.51 537.513 3852.8 541.7L3844.17 543.27L3844.95 549.55Z"/>
</mask>
<path d="M326.695 504.02L318.845 477.33L264.68 296.78L223.075 437.295C264.942 476.022 299.482 498.263 326.695 504.02ZM111.605 504.805L76.28 466.34C100.353 433.37 128.613 414.53 161.06 409.82L216.795 234.765C220.982 221.682 223.075 211.738 223.075 204.935C223.075 185.048 218.627 172.75 209.73 168.04H326.695C316.752 172.75 311.78 184.263 311.78 202.58C311.78 208.86 313.35 216.972 316.49 226.915L402.84 494.6C411.737 490.413 426.128 482.825 446.015 471.835C434.502 493.292 422.988 510.038 411.475 522.075L442.875 618.63C448.108 634.853 450.987 643.227 451.51 643.75C454.65 651.6 459.622 658.665 466.425 664.945L489.19 678.29H331.405L351.03 664.945C362.02 662.328 367.515 654.478 367.515 641.395C367.515 638.255 365.683 630.667 362.02 618.63L341.61 551.905C309.163 545.102 266.512 516.58 213.655 466.34L210.515 477.33L150.07 664.945C146.93 674.888 145.36 682.738 145.36 688.495C145.36 697.392 152.948 704.98 168.125 711.26L135.94 712.83H84.13L44.88 711.26C57.44 707.073 65.29 702.363 68.43 697.13C70 694.513 73.14 685.878 77.85 671.225L151.64 441.22C129.137 442.79 109.512 452.472 92.765 470.265L111.605 504.805Z" fill="#FFE600"/>
<path d="M643.743 553.475L613.913 507.945L610.773 501.665L615.483 706.55L590.363 667.3L573.093 855.7L516.573 531.495L544.833 550.335L515.003 355.655L554.253 372.925L532.273 188.45C524.946 178.507 516.573 168.563 507.153 158.62L529.133 159.405L648.453 160.19C640.08 162.283 635.893 172.227 635.893 190.02C635.893 191.59 637.463 194.992 640.603 200.225C643.743 205.458 645.575 208.598 646.098 209.645L801.528 596.65V230.84C801.528 209.907 793.678 197.347 777.978 193.16L777.193 190.805H907.503V191.59C890.756 196.3 882.383 209.383 882.383 230.84V666.515C882.383 689.018 890.233 702.363 905.933 706.55H748.933C753.643 705.503 759.138 701.84 765.418 695.56C771.698 689.28 774.838 683.785 774.838 679.075C774.838 681.692 770.913 672.272 763.063 650.815L642.173 324.255L643.743 553.475Z" fill="#FFE600"/>
<path d="M1045.03 635.115C1047.65 650.815 1059.95 663.113 1081.93 672.01L917.861 669.655C946.645 660.758 961.036 645.058 961.036 622.555L957.111 199.44C955.018 181.123 945.336 168.04 928.066 160.19H1059.16C1047.12 169.61 1041.11 180.6 1041.11 193.16L1045.03 635.115Z" fill="#FFE600"/>
<path d="M1231.96 537.775L1202.13 492.245L1198.99 485.965L1203.7 690.85L1178.58 651.6L1161.31 840L1104.79 515.795L1133.05 534.635L1103.22 339.955L1142.47 357.225L1120.49 170.395L1111.07 154.695C1106.88 148.938 1102.17 145.275 1096.94 143.705H1112.64L1237.45 134.285L1254.72 135.855C1246.87 137.948 1242.95 148.677 1242.95 168.04C1242.95 170.133 1244.78 175.89 1248.44 185.31L1352.06 448.285L1465.1 190.02C1471.38 175.89 1474.52 167.255 1474.52 164.115C1474.52 153.648 1474.26 147.63 1473.74 146.06C1471.65 139.257 1465.37 135.332 1454.9 134.285H1611.11C1607.97 135.332 1601.17 145.275 1590.7 164.115L1567.94 349.375L1607.19 332.105L1577.36 526.785L1605.62 507.945L1549.1 832.15L1531.83 643.75L1506.71 683L1511.42 478.115L1508.28 484.395L1478.45 529.925L1480.02 304.63L1350.49 572.315L1231.17 347.02L1231.96 537.775Z" fill="#FFE600"/>
<path d="M1886.73 504.02L1878.88 477.33L1824.71 296.78L1783.11 437.295C1824.98 476.022 1859.52 498.263 1886.73 504.02ZM1671.64 504.805L1636.31 466.34C1660.39 433.37 1688.65 414.53 1721.09 409.82L1776.83 234.765C1781.02 221.682 1783.11 211.738 1783.11 204.935C1783.11 185.048 1778.66 172.75 1769.76 168.04H1886.73C1876.79 172.75 1871.81 184.263 1871.81 202.58C1871.81 208.86 1873.38 216.972 1876.52 226.915L1962.87 494.6C1971.77 490.413 1986.16 482.825 2006.05 471.835C1994.54 493.292 1983.02 510.038 1971.51 522.075L2002.91 618.63C2008.14 634.853 2011.02 643.227 2011.54 643.75C2014.68 651.6 2019.66 658.665 2026.46 664.945L2049.22 678.29H1891.44L1911.06 664.945C1922.05 662.328 1927.55 654.478 1927.55 641.395C1927.55 638.255 1925.72 630.667 1922.05 618.63L1901.64 551.905C1869.2 545.102 1826.55 516.58 1773.69 466.34L1770.55 477.33L1710.1 664.945C1706.96 674.888 1705.39 682.738 1705.39 688.495C1705.39 697.392 1712.98 704.98 1728.16 711.26L1695.97 712.83H1644.16L1604.91 711.26C1617.47 707.073 1625.32 702.363 1628.46 697.13C1630.03 694.513 1633.17 685.878 1637.88 671.225L1711.67 441.22C1689.17 442.79 1669.55 452.472 1652.8 470.265L1671.64 504.805Z" fill="#FFE600"/>
<path d="M2063.26 56.57C2117.17 61.8033 2180.23 64.42 2252.45 64.42C2342.98 64.42 2421.22 60.495 2487.16 52.645L2516.21 193.16C2508.36 180.077 2496.84 169.087 2481.67 160.19C2466.49 150.77 2451.58 146.06 2436.92 146.06L2336.44 147.63L2338.01 529.925L2308.18 484.395L2305.04 478.115L2309.75 683L2284.63 643.75L2267.36 832.15L2210.84 507.945L2239.1 526.785L2209.27 332.105L2248.52 349.375L2224.19 148.415L2119.78 149.985C2093.09 146.845 2066.66 159.667 2040.5 188.45L2063.26 56.57Z" fill="#FFE600"/>
<path d="M2642.63 635.115C2645.25 650.815 2657.54 663.113 2679.52 672.01L2515.46 669.655C2544.24 660.758 2558.63 645.058 2558.63 622.555L2554.71 199.44C2552.62 181.123 2542.93 168.04 2525.66 160.19H2656.76C2644.72 169.61 2638.7 180.6 2638.7 193.16L2642.63 635.115Z" fill="#FFE600"/>
<path d="M3028.16 562.11C3031.3 575.717 3015.86 596.388 2981.85 624.125C2940.5 657.618 2900.47 677.243 2861.74 683L2838.19 679.075C2814.64 659.712 2791.88 640.348 2769.9 620.985C2730.12 585.922 2707.88 558.185 2703.17 537.775C2701.6 501.665 2700.82 463.985 2700.82 424.735C2700.82 357.748 2702.91 286.313 2707.1 210.43C2768.33 163.853 2831.91 128.267 2897.85 103.67H2917.48L2987.34 190.805C3007.23 211.215 3018.74 253.605 3021.88 317.975C3023.45 350.422 3025.55 431.8 3028.16 562.11ZM2932.39 595.865L2929.25 368.215C2928.21 294.948 2915.38 225.607 2890.79 160.19C2876.13 166.47 2856.25 175.89 2831.13 188.45C2817 197.87 2807.84 209.907 2803.65 224.56L2802.08 580.165C2805.22 589.062 2813.86 599.79 2827.99 612.35C2840.55 623.863 2851.8 631.975 2861.74 636.685C2900.99 624.125 2924.54 610.518 2932.39 595.865Z" fill="#FFE600"/>
<path d="M3234.86 553.475L3205.03 507.945L3201.89 501.665L3206.6 706.55L3181.48 667.3L3164.21 855.7L3107.69 531.495L3135.95 550.335L3106.12 355.655L3145.37 372.925L3123.39 188.45C3116.06 178.507 3107.69 168.563 3098.27 158.62L3120.25 159.405L3239.57 160.19C3231.19 162.283 3227.01 172.227 3227.01 190.02C3227.01 191.59 3228.58 194.992 3231.72 200.225C3234.86 205.458 3236.69 208.598 3237.21 209.645L3392.64 596.65V230.84C3392.64 209.907 3384.79 197.347 3369.09 193.16L3368.31 190.805H3498.62V191.59C3481.87 196.3 3473.5 209.383 3473.5 230.84V666.515C3473.5 689.018 3481.35 702.363 3497.05 706.55H3340.05C3344.76 705.503 3350.25 701.84 3356.53 695.56C3362.81 689.28 3365.95 683.785 3365.95 679.075C3365.95 681.692 3362.03 672.272 3354.18 650.815L3233.29 324.255L3234.86 553.475Z" fill="#FFE600"/>
<path d="M3844.95 549.55C3830.3 562.11 3801.78 585.398 3759.39 619.415C3703.39 664.422 3666.24 686.925 3647.92 686.925C3645.3 686.925 3643.47 686.14 3642.42 684.57L3544.3 566.82C3530.69 537.513 3523.89 518.15 3523.89 508.73C3523.89 497.217 3530.17 487.535 3542.73 479.685L3570.2 462.415L3629.86 448.285C3622.54 455.088 3615.21 461.63 3607.88 467.91C3600.03 476.283 3595.59 484.918 3594.54 493.815C3598.2 506.898 3612.33 529.663 3636.93 562.11C3663.1 596.65 3680.63 612.612 3689.52 609.995C3698.42 594.295 3715.43 572.577 3740.55 544.84L3734.27 546.41C3737.93 543.793 3739.76 539.868 3739.76 534.635C3739.76 522.598 3701.82 473.143 3625.94 386.27C3550.06 298.873 3512.11 251.773 3512.11 244.97C3512.11 240.783 3513.68 237.643 3516.82 235.55L3528.6 221.42L3614.95 152.34C3671.47 107.333 3708.36 84.83 3725.63 84.83C3728.25 84.83 3730.34 85.615 3731.91 87.185L3830.04 204.935C3843.65 234.242 3850.45 253.605 3850.45 263.025C3850.45 274.538 3843.91 284.22 3830.82 292.07L3753.11 311.695L3752.32 306.2C3758.08 300.443 3764.88 295.21 3772.73 290.5C3775.35 289.453 3777.18 285.005 3778.23 277.155C3774.04 263.548 3755.73 242.877 3723.28 215.14C3690.83 186.88 3668.59 174.058 3656.55 176.675C3649.75 178.245 3642.42 185.31 3634.57 197.87C3626.72 209.907 3622.8 219.588 3622.8 226.915C3622.8 233.195 3625.15 239.475 3629.86 245.755C3662.31 287.622 3713.6 345.973 3783.72 420.81C3834.49 474.713 3859.87 510.038 3859.87 526.785C3859.87 532.542 3857.51 537.513 3852.8 541.7L3844.17 543.27L3844.95 549.55Z" fill="#FFE600"/>
<path d="M326.695 504.02L318.845 477.33L264.68 296.78L223.075 437.295C264.942 476.022 299.482 498.263 326.695 504.02ZM111.605 504.805L76.28 466.34C100.353 433.37 128.613 414.53 161.06 409.82L216.795 234.765C220.982 221.682 223.075 211.738 223.075 204.935C223.075 185.048 218.627 172.75 209.73 168.04H326.695C316.752 172.75 311.78 184.263 311.78 202.58C311.78 208.86 313.35 216.972 316.49 226.915L402.84 494.6C411.737 490.413 426.128 482.825 446.015 471.835C434.502 493.292 422.988 510.038 411.475 522.075L442.875 618.63C448.108 634.853 450.987 643.227 451.51 643.75C454.65 651.6 459.622 658.665 466.425 664.945L489.19 678.29H331.405L351.03 664.945C362.02 662.328 367.515 654.478 367.515 641.395C367.515 638.255 365.683 630.667 362.02 618.63L341.61 551.905C309.163 545.102 266.512 516.58 213.655 466.34L210.515 477.33L150.07 664.945C146.93 674.888 145.36 682.738 145.36 688.495C145.36 697.392 152.948 704.98 168.125 711.26L135.94 712.83H84.13L44.88 711.26C57.44 707.073 65.29 702.363 68.43 697.13C70 694.513 73.14 685.878 77.85 671.225L151.64 441.22C129.137 442.79 109.512 452.472 92.765 470.265L111.605 504.805Z" stroke="#452C06" stroke-width="30" mask="url(#path-1-outside-1_34_7)"/>
<path d="M643.743 553.475L613.913 507.945L610.773 501.665L615.483 706.55L590.363 667.3L573.093 855.7L516.573 531.495L544.833 550.335L515.003 355.655L554.253 372.925L532.273 188.45C524.946 178.507 516.573 168.563 507.153 158.62L529.133 159.405L648.453 160.19C640.08 162.283 635.893 172.227 635.893 190.02C635.893 191.59 637.463 194.992 640.603 200.225C643.743 205.458 645.575 208.598 646.098 209.645L801.528 596.65V230.84C801.528 209.907 793.678 197.347 777.978 193.16L777.193 190.805H907.503V191.59C890.756 196.3 882.383 209.383 882.383 230.84V666.515C882.383 689.018 890.233 702.363 905.933 706.55H748.933C753.643 705.503 759.138 701.84 765.418 695.56C771.698 689.28 774.838 683.785 774.838 679.075C774.838 681.692 770.913 672.272 763.063 650.815L642.173 324.255L643.743 553.475Z" stroke="#452C06" stroke-width="30" mask="url(#path-1-outside-1_34_7)"/>
<path d="M1045.03 635.115C1047.65 650.815 1059.95 663.113 1081.93 672.01L917.861 669.655C946.645 660.758 961.036 645.058 961.036 622.555L957.111 199.44C955.018 181.123 945.336 168.04 928.066 160.19H1059.16C1047.12 169.61 1041.11 180.6 1041.11 193.16L1045.03 635.115Z" stroke="#452C06" stroke-width="30" mask="url(#path-1-outside-1_34_7)"/>
<path d="M1231.96 537.775L1202.13 492.245L1198.99 485.965L1203.7 690.85L1178.58 651.6L1161.31 840L1104.79 515.795L1133.05 534.635L1103.22 339.955L1142.47 357.225L1120.49 170.395L1111.07 154.695C1106.88 148.938 1102.17 145.275 1096.94 143.705H1112.64L1237.45 134.285L1254.72 135.855C1246.87 137.948 1242.95 148.677 1242.95 168.04C1242.95 170.133 1244.78 175.89 1248.44 185.31L1352.06 448.285L1465.1 190.02C1471.38 175.89 1474.52 167.255 1474.52 164.115C1474.52 153.648 1474.26 147.63 1473.74 146.06C1471.65 139.257 1465.37 135.332 1454.9 134.285H1611.11C1607.97 135.332 1601.17 145.275 1590.7 164.115L1567.94 349.375L1607.19 332.105L1577.36 526.785L1605.62 507.945L1549.1 832.15L1531.83 643.75L1506.71 683L1511.42 478.115L1508.28 484.395L1478.45 529.925L1480.02 304.63L1350.49 572.315L1231.17 347.02L1231.96 537.775Z" stroke="#452C06" stroke-width="30" mask="url(#path-1-outside-1_34_7)"/>
<path d="M1886.73 504.02L1878.88 477.33L1824.71 296.78L1783.11 437.295C1824.98 476.022 1859.52 498.263 1886.73 504.02ZM1671.64 504.805L1636.31 466.34C1660.39 433.37 1688.65 414.53 1721.09 409.82L1776.83 234.765C1781.02 221.682 1783.11 211.738 1783.11 204.935C1783.11 185.048 1778.66 172.75 1769.76 168.04H1886.73C1876.79 172.75 1871.81 184.263 1871.81 202.58C1871.81 208.86 1873.38 216.972 1876.52 226.915L1962.87 494.6C1971.77 490.413 1986.16 482.825 2006.05 471.835C1994.54 493.292 1983.02 510.038 1971.51 522.075L2002.91 618.63C2008.14 634.853 2011.02 643.227 2011.54 643.75C2014.68 651.6 2019.66 658.665 2026.46 664.945L2049.22 678.29H1891.44L1911.06 664.945C1922.05 662.328 1927.55 654.478 1927.55 641.395C1927.55 638.255 1925.72 630.667 1922.05 618.63L1901.64 551.905C1869.2 545.102 1826.55 516.58 1773.69 466.34L1770.55 477.33L1710.1 664.945C1706.96 674.888 1705.39 682.738 1705.39 688.495C1705.39 697.392 1712.98 704.98 1728.16 711.26L1695.97 712.83H1644.16L1604.91 711.26C1617.47 707.073 1625.32 702.363 1628.46 697.13C1630.03 694.513 1633.17 685.878 1637.88 671.225L1711.67 441.22C1689.17 442.79 1669.55 452.472 1652.8 470.265L1671.64 504.805Z" stroke="#452C06" stroke-width="30" mask="url(#path-1-outside-1_34_7)"/>
<path d="M2063.26 56.57C2117.17 61.8033 2180.23 64.42 2252.45 64.42C2342.98 64.42 2421.22 60.495 2487.16 52.645L2516.21 193.16C2508.36 180.077 2496.84 169.087 2481.67 160.19C2466.49 150.77 2451.58 146.06 2436.92 146.06L2336.44 147.63L2338.01 529.925L2308.18 484.395L2305.04 478.115L2309.75 683L2284.63 643.75L2267.36 832.15L2210.84 507.945L2239.1 526.785L2209.27 332.105L2248.52 349.375L2224.19 148.415L2119.78 149.985C2093.09 146.845 2066.66 159.667 2040.5 188.45L2063.26 56.57Z" stroke="#452C06" stroke-width="30" mask="url(#path-1-outside-1_34_7)"/>
<path d="M2642.63 635.115C2645.25 650.815 2657.54 663.113 2679.52 672.01L2515.46 669.655C2544.24 660.758 2558.63 645.058 2558.63 622.555L2554.71 199.44C2552.62 181.123 2542.93 168.04 2525.66 160.19H2656.76C2644.72 169.61 2638.7 180.6 2638.7 193.16L2642.63 635.115Z" stroke="#452C06" stroke-width="30" mask="url(#path-1-outside-1_34_7)"/>
<path d="M3028.16 562.11C3031.3 575.717 3015.86 596.388 2981.85 624.125C2940.5 657.618 2900.47 677.243 2861.74 683L2838.19 679.075C2814.64 659.712 2791.88 640.348 2769.9 620.985C2730.12 585.922 2707.88 558.185 2703.17 537.775C2701.6 501.665 2700.82 463.985 2700.82 424.735C2700.82 357.748 2702.91 286.313 2707.1 210.43C2768.33 163.853 2831.91 128.267 2897.85 103.67H2917.48L2987.34 190.805C3007.23 211.215 3018.74 253.605 3021.88 317.975C3023.45 350.422 3025.55 431.8 3028.16 562.11ZM2932.39 595.865L2929.25 368.215C2928.21 294.948 2915.38 225.607 2890.79 160.19C2876.13 166.47 2856.25 175.89 2831.13 188.45C2817 197.87 2807.84 209.907 2803.65 224.56L2802.08 580.165C2805.22 589.062 2813.86 599.79 2827.99 612.35C2840.55 623.863 2851.8 631.975 2861.74 636.685C2900.99 624.125 2924.54 610.518 2932.39 595.865Z" stroke="#452C06" stroke-width="30" mask="url(#path-1-outside-1_34_7)"/>
<path d="M3234.86 553.475L3205.03 507.945L3201.89 501.665L3206.6 706.55L3181.48 667.3L3164.21 855.7L3107.69 531.495L3135.95 550.335L3106.12 355.655L3145.37 372.925L3123.39 188.45C3116.06 178.507 3107.69 168.563 3098.27 158.62L3120.25 159.405L3239.57 160.19C3231.19 162.283 3227.01 172.227 3227.01 190.02C3227.01 191.59 3228.58 194.992 3231.72 200.225C3234.86 205.458 3236.69 208.598 3237.21 209.645L3392.64 596.65V230.84C3392.64 209.907 3384.79 197.347 3369.09 193.16L3368.31 190.805H3498.62V191.59C3481.87 196.3 3473.5 209.383 3473.5 230.84V666.515C3473.5 689.018 3481.35 702.363 3497.05 706.55H3340.05C3344.76 705.503 3350.25 701.84 3356.53 695.56C3362.81 689.28 3365.95 683.785 3365.95 679.075C3365.95 681.692 3362.03 672.272 3354.18 650.815L3233.29 324.255L3234.86 553.475Z" stroke="#452C06" stroke-width="30" mask="url(#path-1-outside-1_34_7)"/>
<path d="M3844.95 549.55C3830.3 562.11 3801.78 585.398 3759.39 619.415C3703.39 664.422 3666.24 686.925 3647.92 686.925C3645.3 686.925 3643.47 686.14 3642.42 684.57L3544.3 566.82C3530.69 537.513 3523.89 518.15 3523.89 508.73C3523.89 497.217 3530.17 487.535 3542.73 479.685L3570.2 462.415L3629.86 448.285C3622.54 455.088 3615.21 461.63 3607.88 467.91C3600.03 476.283 3595.59 484.918 3594.54 493.815C3598.2 506.898 3612.33 529.663 3636.93 562.11C3663.1 596.65 3680.63 612.612 3689.52 609.995C3698.42 594.295 3715.43 572.577 3740.55 544.84L3734.27 546.41C3737.93 543.793 3739.76 539.868 3739.76 534.635C3739.76 522.598 3701.82 473.143 3625.94 386.27C3550.06 298.873 3512.11 251.773 3512.11 244.97C3512.11 240.783 3513.68 237.643 3516.82 235.55L3528.6 221.42L3614.95 152.34C3671.47 107.333 3708.36 84.83 3725.63 84.83C3728.25 84.83 3730.34 85.615 3731.91 87.185L3830.04 204.935C3843.65 234.242 3850.45 253.605 3850.45 263.025C3850.45 274.538 3843.91 284.22 3830.82 292.07L3753.11 311.695L3752.32 306.2C3758.08 300.443 3764.88 295.21 3772.73 290.5C3775.35 289.453 3777.18 285.005 3778.23 277.155C3774.04 263.548 3755.73 242.877 3723.28 215.14C3690.83 186.88 3668.59 174.058 3656.55 176.675C3649.75 178.245 3642.42 185.31 3634.57 197.87C3626.72 209.907 3622.8 219.588 3622.8 226.915C3622.8 233.195 3625.15 239.475 3629.86 245.755C3662.31 287.622 3713.6 345.973 3783.72 420.81C3834.49 474.713 3859.87 510.038 3859.87 526.785C3859.87 532.542 3857.51 537.513 3852.8 541.7L3844.17 543.27L3844.95 549.55Z" stroke="#452C06" stroke-width="30" mask="url(#path-1-outside-1_34_7)"/>
</g>
<defs>
<filter id="filter0_ddiii_34_7" x="0.136597" y="0.12207" width="3914.73" height="906.154" filterUnits="userSpaceOnUse" color-interpolation-filters="sRGB">
<feFlood flood-opacity="0" result="BackgroundImageFix"/>
<feColorMatrix in="SourceAlpha" type="matrix" values="0 0 0 0 0 0 0 0 0 0 0 0 0 0 0 0 0 0 127 0" result="hardAlpha"/>
<feOffset dy="44"/>
<feGaussianBlur stdDeviation="2"/>
<feComposite in2="hardAlpha" operator="out"/>
<feColorMatrix type="matrix" values="0 0 0 0 0.305882 0 0 0 0 0.345098 0 0 0 0 0.113725 0 0 0 1 0"/>
<feBlend mode="normal" in2="BackgroundImageFix" result="effect1_dropShadow_34_7"/>
<feColorMatrix in="SourceAlpha" type="matrix" values="0 0 0 0 0 0 0 0 0 0 0 0 0 0 0 0 0 0 127 0" result="hardAlpha"/>
<feOffset dy="4"/>
<feGaussianBlur stdDeviation="20"/>
<feComposite in2="hardAlpha" operator="out"/>
<feColorMatrix type="matrix" values="0 0 0 0 0.635726 0 0 0 0 0.305148 0 0 0 0 0 0 0 0 1 0"/>
<feBlend mode="normal" in2="effect1_dropShadow_34_7" result="effect2_dropShadow_34_7"/>
<feBlend mode="normal" in="SourceGraphic" in2="effect2_dropShadow_34_7" result="shape"/>
<feColorMatrix in="SourceAlpha" type="matrix" values="0 0 0 0 0 0 0 0 0 0 0 0 0 0 0 0 0 0 127 0" result="hardAlpha"/>
<feOffset dx="-20.1282" dy="20.1282"/>
<feComposite in2="hardAlpha" operator="arithmetic" k2="-1" k3="1"/>
<feColorMatrix type="matrix" values="0 0 0 0 1 0 0 0 0 0.54 0 0 0 0 0 0 0 0 1 0"/>
<feBlend mode="normal" in2="shape" result="effect3_innerShadow_34_7"/>
<feColorMatrix in="SourceAlpha" type="matrix" values="0 0 0 0 0 0 0 0 0 0 0 0 0 0 0 0 0 0 127 0" result="hardAlpha"/>
<feOffset dx="50"/>
<feComposite in2="hardAlpha" operator="arithmetic" k2="-1" k3="1"/>
<feColorMatrix type="matrix" values="0 0 0 0 0.929412 0 0 0 0 0.117647 0 0 0 0 0 0 0 0 1 0"/>
<feBlend mode="plus-lighter" in2="effect3_innerShadow_34_7" result="effect4_innerShadow_34_7"/>
<feColorMatrix in="SourceAlpha" type="matrix" values="0 0 0 0 0 0 0 0 0 0 0 0 0 0 0 0 0 0 127 0" result="hardAlpha"/>
<feOffset dx="-47"/>
<feComposite in2="hardAlpha" operator="arithmetic" k2="-1" k3="1"/>
<feColorMatrix type="matrix" values="0 0 0 0 1 0 0 0 0 0.54 0 0 0 0 0 0 0 0 1 0"/>
<feBlend mode="normal" in2="effect4_innerShadow_34_7" result="effect5_innerShadow_34_7"/>
</filter>
</defs>
</svg>
