<svg width="421" height="550" viewBox="0 0 421 550" fill="none" xmlns="http://www.w3.org/2000/svg">
<path d="M116.326 298.62H106.685C82.7237 298.62 63.2992 279.195 63.2992 255.234L63.2992 155.382C63.2992 151.676 63.7742 147.984 64.7126 144.399L92.155 39.5328C97.5064 19.0836 115.982 4.82066 137.12 4.82066C167.569 4.82066 189.793 33.6099 182.085 63.0667L161.44 141.958C160.293 146.34 159.712 150.852 159.712 155.382V255.234C159.712 279.195 140.288 298.62 116.326 298.62Z" fill="#F1C9A4" stroke="#9D3D07" stroke-width="9.64131"/>
<path d="M193.451 149.179C177.477 149.179 164.527 162.129 164.527 178.103V242.065L112.309 243.339L60.0909 244.612C36.8209 245.18 17.28 262.294 13.6497 285.286L7.48024 324.359C-2.8495 389.781 19.4719 456.119 67.2492 501.989L69.5276 504.176C96.4603 530.033 132.349 544.473 169.685 544.473H270.582C350.453 544.473 415.201 479.724 415.201 399.853V274.516C415.201 242.568 389.302 216.668 357.354 216.668C349 216.668 341.474 220.209 336.194 225.872C329.342 198.431 304.527 178.103 274.964 178.103C261.894 178.103 251.299 188.698 251.299 201.768V207.027C251.299 175.079 225.4 149.179 193.451 149.179Z" fill="#F1C9A4"/>
<path d="M159.718 242.065V178.103C159.718 162.129 177.477 149.179 193.451 149.179C225.4 149.179 246.489 175.079 246.489 207.027V201.768C246.489 188.698 261.894 178.103 274.964 178.103C304.527 178.103 326.41 198.869 333.261 226.31C338.541 220.647 349 216.668 357.354 216.668C389.302 216.668 415.201 242.568 415.201 274.516V399.853C415.201 479.724 350.453 544.473 270.582 544.473H169.685C132.349 544.473 96.4603 530.033 69.5276 504.176L67.2492 501.989C19.4719 456.119 -2.8495 389.781 7.48024 324.359L13.6497 285.286C17.28 262.294 39.2012 245.592 68.1252 245.592" stroke="#9D3D07" stroke-width="9.64131"/>
<path fill-rule="evenodd" clip-rule="evenodd" d="M328.438 264.875V226.309H338.079V264.875H328.438Z" fill="#9D3D07"/>
<path fill-rule="evenodd" clip-rule="evenodd" d="M241.666 255.233V207.027H251.307V255.233H241.666Z" fill="#9D3D07"/>
<path fill-rule="evenodd" clip-rule="evenodd" d="M58.4805 313.081L58.4805 207.027H68.1218V313.081H58.4805Z" fill="#9D3D07"/>
<path fill-rule="evenodd" clip-rule="evenodd" d="M154.893 274.516V178.103H164.534V274.516H154.893Z" fill="#9D3D07"/>
</svg>
