<svg xmlns="http://www.w3.org/2000/svg" viewBox="-0.5 -0.5 24 24" id="Logo-Linkedin--Streamline-Pixel.svg" height="24" width="24"><desc>Logo Linkedin Streamline Icon: https://streamlinehq.com</desc><title>logo-linkedin</title><g><path d="M21.9003125 2.1921874999999997H23v18.615624999999998h-1.0996875Z" fill="#ffb900" stroke-width="1"></path><path d="M20.8078125 20.8078125h1.0925v1.0996875h-1.0925Z" fill="#ffb900" stroke-width="1"></path><path d="M20.8078125 1.0925h1.0925v1.0996875h-1.0925Z" fill="#ffb900" stroke-width="1"></path><path d="M19.708125000000003 3.2846875000000004h1.0996875v16.430625h-1.0996875Z" fill="#ffb900" stroke-width="1"></path><path d="M2.185 21.9075h18.6228125V23H2.185Z" fill="#ffb900" stroke-width="1"></path><path d="M3.2846875000000004 19.7153125h16.423437500000002v1.0925H3.2846875000000004Z" fill="#ffb900" stroke-width="1"></path><path d="m16.423437500000002 10.95375 -1.0925 0 0 -1.0996875 -2.1921874999999997 0 0 1.0996875 -1.0925 0 0 -1.0996875 -2.1921874999999997 0 0 6.5765625000000005 2.1921874999999997 0 0 -3.2846875000000004 1.0925 0 0 -1.0996875 1.0996875 0 0 1.0996875 1.0925 0 0 3.2846875000000004 2.1921874999999997 0 0 -4.3843749999999995 -1.0996875 0 0 -1.0925z" fill="#ffb900" stroke-width="1"></path><path d="M5.4696875 9.854062500000001h2.1921874999999997v6.5765625000000005H5.4696875Z" fill="#ffb900" stroke-width="1"></path><path d="M5.4696875 6.569375000000001h2.1921874999999997v2.1921874999999997H5.4696875Z" fill="#ffb900" stroke-width="1"></path><path d="M3.2846875000000004 2.1921874999999997h16.423437500000002v1.0925H3.2846875000000004Z" fill="#ffb900" stroke-width="1"></path><path d="M2.185 0h18.6228125v1.0925H2.185Z" fill="#ffb900" stroke-width="1"></path><path d="M2.185 3.2846875000000004h1.0996875v16.430625H2.185Z" fill="#ffb900" stroke-width="1"></path><path d="M1.0925 20.8078125h1.0925v1.0996875H1.0925Z" fill="#ffb900" stroke-width="1"></path><path d="M1.0925 1.0925h1.0925v1.0996875H1.0925Z" fill="#ffb900" stroke-width="1"></path><path d="M0 2.1921874999999997h1.0925v18.615624999999998H0Z" fill="#ffb900" stroke-width="1"></path></g></svg>