<?xml version="1.0" encoding="UTF-8"?>
<svg id="_Layer_" data-name="&amp;lt;Layer&amp;gt;" xmlns="http://www.w3.org/2000/svg" viewBox="0 0 2760 1840">
  <defs>
    <style>
      .cls-1 {
        fill: #fa7267;
      }

      .cls-1, .cls-2, .cls-3, .cls-4, .cls-5, .cls-6, .cls-7, .cls-8, .cls-9, .cls-10, .cls-11, .cls-12, .cls-13, .cls-14, .cls-15, .cls-16, .cls-17, .cls-18, .cls-19, .cls-20, .cls-21, .cls-22, .cls-23, .cls-24, .cls-25, .cls-26, .cls-27, .cls-28, .cls-29, .cls-30, .cls-31, .cls-32, .cls-33, .cls-34, .cls-35, .cls-36, .cls-37, .cls-38, .cls-39, .cls-40, .cls-41, .cls-42, .cls-43, .cls-44, .cls-45, .cls-46, .cls-47, .cls-48, .cls-49, .cls-50, .cls-51, .cls-52, .cls-53 {
        stroke-width: 0px;
      }

      .cls-2 {
        fill: #829ce8;
      }

      .cls-3 {
        fill: #8fa6ef;
      }

      .cls-4 {
        fill: #233862;
      }

      .cls-5 {
        fill: #e2eefd;
      }

      .cls-6 {
        fill: #7a96e5;
      }

      .cls-7 {
        fill: #15156d;
      }

      .cls-54 {
        opacity: .1;
      }

      .cls-8 {
        fill: #699dee;
      }

      .cls-9 {
        fill: #1b376d;
      }

      .cls-10 {
        fill: #182d4c;
      }

      .cls-11 {
        fill: #ea9963;
      }

      .cls-12 {
        fill: #1c3870;
      }

      .cls-13 {
        fill: #819dea;
      }

      .cls-14 {
        fill: #d5e5fb;
      }

      .cls-15 {
        fill: #ed975d;
      }

      .cls-16 {
        fill: #aec3ff;
      }

      .cls-17 {
        fill: #e27227;
      }

      .cls-18 {
        fill: #131375;
      }

      .cls-19 {
        fill: #ed7d2b;
      }

      .cls-20 {
        fill: #afcdfb;
      }

      .cls-21 {
        fill: #ebf2f9;
      }

      .cls-22 {
        fill: #ea6c2d;
      }

      .cls-23 {
        fill: #82b378;
      }

      .cls-24 {
        fill: #ffb583;
      }

      .cls-25 {
        fill: #060633;
      }

      .cls-26 {
        fill: #ffa255;
      }

      .cls-27 {
        fill: #f8fcff;
      }

      .cls-28 {
        fill: #9db0f4;
      }

      .cls-29 {
        fill: #6980e2;
      }

      .cls-30 {
        fill: #548ee2;
      }

      .cls-31 {
        fill: #505aba;
      }

      .cls-32 {
        fill: #f49540;
      }

      .cls-33 {
        fill: #bdd1ff;
      }

      .cls-34 {
        fill: #d86713;
      }

      .cls-35 {
        fill: #8c9df4;
      }

      .cls-36 {
        fill: #f77d48;
      }

      .cls-37 {
        fill: #c5d7ff;
      }

      .cls-55 {
        opacity: .3;
      }

      .cls-38 {
        fill: #dde7fe;
      }

      .cls-56 {
        opacity: .5;
      }

      .cls-57 {
        opacity: .7;
      }

      .cls-39 {
        fill: #efcbab;
      }

      .cls-40 {
        fill: #b5453c;
      }

      .cls-41 {
        fill: #2b478b;
      }

      .cls-42 {
        fill: #ef873a;
      }

      .cls-43 {
        fill: #fff;
      }

      .cls-44 {
        fill: #778de8;
      }

      .cls-45 {
        fill: #d36d1a;
      }

      .cls-46 {
        fill: #95c38b;
      }

      .cls-47 {
        fill: #283689;
      }

      .cls-48 {
        fill: #a9453d;
      }

      .cls-49 {
        fill: #f99746;
      }

      .cls-50 {
        fill: #ffb27d;
      }

      .cls-51 {
        fill: #17152b;
      }

      .cls-52 {
        fill: #9fb1ff;
      }

      .cls-53 {
        fill: #a8d29f;
      }
    </style>
  </defs>
  <rect class="cls-43" width="2760" height="1840"/>
  <g>
    <path class="cls-33" d="M2562.42,1480.95c-6.17,11.31-12.37,21.35-18.19,30.06-.17.26-.34.52-.52.77-16.83,25.07-45.07,40.08-75.26,40.08-161.8,0-720.25-.03-894.32-.09,0,0-913.16-2.59-1198.81-3.52-55.9-.18-106.37-33.27-129.01-84.38-25.72-58.03-53.6-141.64-56.84-236.39-5.14-150.34,51.77-328.74,277.8-477.56,194.23-127.88-12.16-212.3,142.3-354.67,177.49-163.6,371.21,17.39,568.6-56.8,34.87-13.1,69.86-34.17,104.89-66.52,19.73-18.19,41.34-34.09,64.47-47.83,3.55-2.11,7.13-4.17,10.75-6.18,13.86-7.68,28.22-14.62,43.01-20.87,9.94-4.18,20.05-8.06,30.38-11.61,16.36-5.65,33.19-10.52,50.35-14.64,24.38-5.86,49.49-10.22,75.07-13.17,11.17-1.3,22.43-2.3,33.77-3.07,220.54-14.83,468.74,68.52,596.82,190.32,25.78,24.54,143.04,151.45,50.62,325.89-58.37,110.13,186.12,215.33,273,341.1,54.36,78.69,82.17,151.09,93.18,215.61,18.81,110.19-11.39,197.36-42.08,253.47Z"/>
    <path class="cls-47" d="M1014.68,1227.79l-4.74-.61c.11-.85,2.92-21,22.78-33.56,17.55-11.1,11.55-45.8,11.49-46.15l4.7-.85c.07.38,1.69,9.54.92,20.35-1.04,14.7-6.07,25.31-14.57,30.69-17.98,11.38-20.57,29.95-20.59,30.14Z"/>
    <path class="cls-47" d="M1045.26,1228.63c-.12-.22-11.64-21.86,9.15-35.02,17.17-10.86,1.93-44.6,1.77-44.94l4.34-2c.17.38,4.27,9.38,6.03,20.05,2.42,14.73-.89,25.42-9.59,30.92-17.05,10.78-7.91,27.96-7.51,28.68l-4.19,2.29Z"/>
    <path class="cls-3" d="M2562.66,1532.08c-.4.9-.79,1.79-1.2,2.68-.8,1.78-1.6,3.53-2.4,5.25-5.37,11.59-10.72,22.01-15.79,31.2-.17.32-.34.62-.52.94-16.83,30.4-45.07,48.59-75.27,48.59-64.19,0-190.8,0-331.07-.02h-19.12c-76.45,0-156.26,0-231.69-.03h-22.54c-121.35,0-229.08-.03-289.89-.06,0,0-305.8-1.05-618.83-2.15-5.3-.02-10.6-.04-15.9-.06-91.12-.33-182.43-.65-266.55-.96-10.89-.04-21.65-.08-32.28-.11-108.03-.38-202.01-.74-265.25-.99-44.28-.17-85.15-25.38-111.48-66.65-1.39-2.17-2.73-4.39-4.03-6.65-5.2-9-9.73-18.7-13.5-28.99-25.72-70.35-53.6-171.71-56.84-286.58h2415.02c18.56,131.84-10.62,236.5-40.88,304.6Z"/>
    <g>
      <polygon class="cls-31" points="2039.7 1468.9 681.72 1468.9 818.59 1329.48 1920.42 1329.48 2039.7 1468.9"/>
      <rect class="cls-41" x="681.72" y="1468.9" width="1357.98" height="17.81"/>
      <g>
        <rect class="cls-41" x="826.42" y="1358.72" width="1082.34" height="4.75"/>
        <rect class="cls-41" x="789.73" y="1387.85" width="1148.06" height="4.76"/>
        <rect class="cls-41" x="759.15" y="1420.04" width="1209.21" height="4.75"/>
        <rect class="cls-41" x="831.9" y="1337.25" width="48.93" height="14.68"/>
        <rect class="cls-41" x="1206.74" y="1337.25" width="48.94" height="14.68"/>
        <rect class="cls-41" x="1285.44" y="1337.25" width="48.94" height="14.68"/>
        <rect class="cls-41" x="1494.65" y="1337.25" width="48.93" height="14.68"/>
        <rect class="cls-41" x="1567.42" y="1337.25" width="48.94" height="14.68"/>
        <rect class="cls-41" x="1646.12" y="1337.25" width="48.93" height="14.68"/>
      </g>
    </g>
    <path class="cls-41" d="M2544.49,1227.48h-9.61c-21.69-31.71-40.49-33.18-76.93-36.01-11.21-.86-23.92-1.85-38.8-3.86-33.19-4.46-44.1-22.27-56.73-42.9-5.72-9.34-11.62-19-20.25-28.76-26.49-29.97-86.04-21.22-86.64-21.13l-1.23-7.91c2.62-.4,64.47-9.53,93.86,23.73,9.09,10.3,15.47,20.71,21.09,29.89,12.5,20.43,21.54,35.18,50.97,39.14,14.65,1.97,27.24,2.94,38.34,3.81,39.63,3.08,60.85,4.72,85.92,44Z"/>
    <g>
      <path class="cls-44" d="M2045.12,1043.91h179.73c16.26,0,29.46,13.2,29.46,29.46v179.73c0,16.26-13.2,29.46-29.46,29.46h-179.73c-16.26,0-29.46-13.2-29.46-29.46v-179.72c0-16.26,13.2-29.46,29.46-29.46Z"/>
      <g>
        <path class="cls-17" d="M2216.79,1157.86c0,4.28-.33,8.49-.96,12.6-.15,1-.33,1.99-.53,2.98-1.35,7.06-3.62,13.8-6.66,20.09-.29.6-.59,1.2-.9,1.79-5.32,10.35-12.8,19.41-21.83,26.62-.49.39-.98.78-1.48,1.15-9.19,7-19.93,12.1-31.6,14.7h-.01l-2.1.45h-.01c-2.96.58-5.96,1-9.03,1.24-1,.09-1.99.16-2.99.19h-.01c-1.25.08-2.52.1-3.78.1-8.72,0-17.12-1.37-25.01-3.9-1.23-.39-2.44-.8-3.65-1.26-2.82-1.04-5.56-2.24-8.22-3.6-.6-.3-1.19-.6-1.78-.91-11.39-6.11-21.15-14.83-28.51-25.35-.36-.51-.73-1.03-1.08-1.55-5.05-7.59-8.87-16.07-11.17-25.16-.31-1.24-.6-2.49-.85-3.76-.63-3.07-1.08-6.19-1.35-9.37-.06-.79-.13-1.58-.16-2.37h0c-.09-1.57-.14-3.12-.14-4.68,0-8.52,1.3-16.72,3.71-24.45.21-.68.44-1.36.67-2.04,3.83-11.25,10.06-21.39,18.05-29.84.44-.45.86-.9,1.32-1.34,8.08-8.17,17.87-14.63,28.81-18.83.63-.25,1.25-.48,1.89-.7,8.59-3.06,17.84-4.72,27.47-4.72,4.61,0,9.13.38,13.53,1.12.78.12,1.55.26,2.33.43.55.1,1.1.21,1.65.34,1.08.24,2.15.49,3.22.78,11.82,3.07,22.62,8.74,31.73,16.35.49.4.96.8,1.44,1.23,9.63,8.42,17.26,19.05,22.11,31.1.26.61.5,1.23.73,1.85,2,5.32,3.46,10.92,4.31,16.71.16,1.08.3,2.17.4,3.26h0c.31,2.89.48,5.81.48,8.77Z"/>
        <g>
          <path class="cls-12" d="M2185.9,1221.94c-.49.39-.98.78-1.48,1.15l-10.91-12.16-1.25-1.39-22.42-25.01-1.25-1.39-25.31-28.22-1.25-1.39-24.99-27.87-1.25-1.4-20.39-22.72c.44-.45.86-.9,1.32-1.34l20.47,22.82,1.25,1.39,24.99,27.87,1.25,1.39,25.31,28.22,1.25,1.39,22.43,25.01,1.24,1.39,11,12.26Z"/>
          <path class="cls-12" d="M2208.63,1193.53c-.29.6-.59,1.2-.9,1.79l-7.5-8.37-1.25-1.39-22.42-25-1.25-1.39-25.31-28.22-1.25-1.39-25-27.88-1.24-1.39-16.98-18.93c.63-.25,1.25-.48,1.89-.7l16.48,18.39,1.25,1.39,24.99,27.87,1.25,1.39,25.31,28.22,1.25,1.39,22.42,25.01,1.25,1.39,7.01,7.82Z"/>
          <path class="cls-12" d="M2215.91,1145.84c.16,1.08.3,2.17.4,3.26l-12.03-13.4-1.24-1.39-25.33-28.23-1.24-1.39-24.1-26.85c1.08.24,2.15.49,3.22.78l22.27,24.83,1.25,1.39,25.31,28.23,1.24,1.39,10.23,11.4Z"/>
          <path class="cls-12" d="M2152.81,1237.8l-2.1.45h-.01l-3.41-3.81-1.24-1.39-22.43-25-1.25-1.39-25.3-28.22-1.25-1.4-25-27.86-1.25-1.4-12.89-14.37c.21-.68.44-1.36.67-2.04l13.6,15.17,1.25,1.39,25,27.87,1.24,1.39,25.33,28.22,1.24,1.39,22.43,25.01,1.25,1.39,4.12,4.6Z"/>
          <path class="cls-12" d="M2150.73,1077.49l-25.59,22.96-1.4,1.24-25.31,22.72-1.39,1.25-24.84,22.27-1.39,1.25-17.55,15.73c-.06-.79-.13-1.58-.16-2.37h0s16.46-14.77,16.46-14.77l1.39-1.24,24.84-22.28,1.39-1.24,25.33-22.72,1.39-1.24,24.51-21.99c.78.12,1.55.26,2.33.43Z"/>
          <path class="cls-12" d="M2188.77,1096.17l-9.65,8.64-1.4,1.25-26.34,23.63-1.39,1.25-25.33,22.71-1.39,1.25-24.84,22.27-1.38,1.25-21.47,19.24-1.39,1.25-6.49,5.82c-.36-.51-.73-1.03-1.08-1.55l6.33-5.66,1.39-1.25,21.45-19.25,1.39-1.24,24.83-22.27,1.39-1.25,25.33-22.71,1.39-1.25,26.35-23.63,1.39-1.25,9.46-8.48c.49.4.96.8,1.44,1.23Z"/>
          <path class="cls-12" d="M2211.6,1129.13l-5.92,5.31-1.39,1.25-26.34,23.62-1.39,1.25-25.33,22.71-1.39,1.25-24.84,22.27-1.39,1.25-21.46,19.24-1.39,1.25-2.77,2.48c-.6-.3-1.19-.6-1.78-.91l3.29-2.96,1.39-1.25,21.46-19.24,1.4-1.25,24.82-22.27,1.39-1.25,25.33-22.71,1.39-1.25,26.35-23.62,1.39-1.25,6.44-5.77c.26.61.5,1.23.73,1.85Z"/>
          <path class="cls-12" d="M2215.82,1170.46c-.15,1-.33,1.99-.53,2.98l-13.68,12.28-1.39,1.24-25.33,22.72-1.39,1.25-24.83,22.27-1.4,1.24-5.62,5.05c-1,.09-1.99.16-2.99.19l7.38-6.63,1.39-1.24,24.83-22.27,1.4-1.25,25.31-22.72,1.39-1.24,15.46-13.87Z"/>
          <path class="cls-12" d="M2109.86,1235.88c-1.23-.39-2.44-.8-3.65-1.26l-5.45-6.08-1.25-1.39-25.31-28.22-1.24-1.39-17.5-19.5c-.31-1.24-.6-2.49-.85-3.76l19.74,22.01,1.24,1.39,25.31,28.22,1.25,1.39,7.7,8.59Z"/>
        </g>
      </g>
    </g>
    <g>
      <path class="cls-35" d="M2045.12,806.03h179.73c16.26,0,29.46,13.2,29.46,29.46v179.73c0,16.26-13.2,29.46-29.46,29.46h-179.73c-16.26,0-29.46-13.2-29.46-29.46v-179.73c0-16.26,13.2-29.46,29.46-29.46Z"/>
      <g>
        <path class="cls-17" d="M2216.79,919.98c0,4.28-.33,8.49-.96,12.6-.15,1-.33,1.99-.53,2.98-1.35,7.06-3.62,13.8-6.66,20.09-.29.6-.59,1.2-.9,1.79-5.32,10.35-12.8,19.42-21.83,26.62-.49.39-.98.78-1.48,1.15-9.19,7-19.93,12.1-31.6,14.71h-.01l-2.1.45h-.01c-2.96.58-5.96,1-9.03,1.24-1,.09-1.99.16-2.99.19h-.01c-1.25.08-2.52.1-3.78.1-8.72,0-17.12-1.37-25.01-3.9-1.23-.39-2.44-.8-3.65-1.26-2.82-1.04-5.56-2.24-8.22-3.59-.6-.3-1.19-.6-1.78-.92-11.39-6.11-21.15-14.83-28.51-25.35-.36-.51-.73-1.03-1.08-1.55-5.05-7.59-8.87-16.07-11.17-25.16-.31-1.24-.6-2.49-.85-3.76-.63-3.07-1.08-6.19-1.35-9.37-.06-.79-.13-1.58-.16-2.37h0c-.09-1.56-.14-3.12-.14-4.68,0-8.52,1.3-16.72,3.71-24.45.21-.68.44-1.37.67-2.04,3.83-11.25,10.06-21.39,18.05-29.83.44-.45.86-.9,1.32-1.34,8.08-8.17,17.87-14.63,28.81-18.83.63-.25,1.25-.47,1.89-.7,8.59-3.06,17.84-4.72,27.47-4.72,4.61,0,9.13.38,13.53,1.12.78.12,1.55.26,2.33.42.55.1,1.1.21,1.65.34,1.08.24,2.15.49,3.22.78,11.82,3.07,22.62,8.74,31.73,16.34.49.4.96.8,1.44,1.23,9.63,8.42,17.26,19.05,22.11,31.1.26.61.5,1.23.73,1.85,2,5.32,3.46,10.92,4.31,16.71.16,1.08.3,2.17.4,3.26h0c.31,2.89.48,5.81.48,8.77Z"/>
        <g>
          <path class="cls-12" d="M2185.9,984.06c-.49.39-.98.78-1.48,1.15l-10.91-12.16-1.25-1.39-22.42-25.01-1.25-1.39-25.31-28.22-1.25-1.39-24.99-27.87-1.25-1.4-20.39-22.72c.44-.45.86-.9,1.32-1.34l20.47,22.82,1.25,1.39,24.99,27.87,1.25,1.39,25.31,28.22,1.25,1.39,22.43,25.01,1.24,1.39,11,12.26Z"/>
          <path class="cls-12" d="M2208.63,955.66c-.29.6-.59,1.2-.9,1.79l-7.5-8.37-1.25-1.39-22.42-25-1.25-1.39-25.31-28.22-1.25-1.39-25-27.88-1.24-1.39-16.98-18.93c.63-.25,1.25-.47,1.89-.7l16.48,18.39,1.25,1.39,24.99,27.87,1.25,1.39,25.31,28.22,1.25,1.39,22.42,25.01,1.25,1.39,7.01,7.82Z"/>
          <path class="cls-12" d="M2215.91,907.96c.16,1.08.3,2.17.4,3.26l-12.03-13.4-1.24-1.39-25.33-28.23-1.24-1.39-24.1-26.85c1.08.24,2.15.49,3.22.78l22.27,24.82,1.25,1.39,25.31,28.23,1.24,1.39,10.23,11.4Z"/>
          <path class="cls-12" d="M2152.81,999.92l-2.1.45h-.01l-3.41-3.81-1.24-1.39-22.43-25-1.25-1.39-25.3-28.22-1.25-1.4-25-27.86-1.25-1.4-12.89-14.37c.21-.68.44-1.37.67-2.04l13.6,15.17,1.25,1.39,25,27.87,1.24,1.39,25.33,28.22,1.24,1.39,22.43,25.01,1.25,1.39,4.12,4.6Z"/>
          <path class="cls-12" d="M2150.73,839.61l-25.59,22.96-1.4,1.24-25.31,22.72-1.39,1.25-24.84,22.27-1.39,1.25-17.55,15.73c-.06-.79-.13-1.58-.16-2.37h0s16.46-14.77,16.46-14.77l1.39-1.24,24.84-22.28,1.39-1.24,25.33-22.72,1.39-1.24,24.51-22c.78.12,1.55.26,2.33.42Z"/>
          <path class="cls-12" d="M2188.77,858.3l-9.65,8.64-1.4,1.25-26.34,23.64-1.39,1.25-25.33,22.71-1.39,1.25-24.84,22.27-1.38,1.25-21.47,19.24-1.39,1.25-6.49,5.83c-.36-.51-.73-1.03-1.08-1.55l6.33-5.66,1.39-1.25,21.45-19.25,1.39-1.24,24.83-22.27,1.39-1.25,25.33-22.71,1.39-1.25,26.35-23.63,1.39-1.25,9.46-8.48c.49.4.96.8,1.44,1.23Z"/>
          <path class="cls-12" d="M2211.6,891.25l-5.92,5.31-1.39,1.25-26.34,23.62-1.39,1.25-25.33,22.71-1.39,1.25-24.84,22.27-1.39,1.25-21.46,19.24-1.39,1.25-2.77,2.48c-.6-.3-1.19-.6-1.78-.92l3.29-2.96,1.39-1.25,21.46-19.24,1.4-1.25,24.82-22.27,1.39-1.25,25.33-22.71,1.39-1.25,26.35-23.62,1.39-1.25,6.44-5.77c.26.61.5,1.23.73,1.85Z"/>
          <path class="cls-12" d="M2215.82,932.58c-.15,1-.33,1.99-.53,2.98l-13.68,12.27-1.39,1.24-25.33,22.72-1.39,1.25-24.83,22.27-1.4,1.24-5.62,5.05c-1,.09-1.99.16-2.99.19l7.38-6.63,1.39-1.24,24.83-22.27,1.4-1.25,25.31-22.72,1.39-1.24,15.46-13.87Z"/>
          <path class="cls-12" d="M2109.86,998c-1.23-.39-2.44-.8-3.65-1.26l-5.45-6.08-1.25-1.39-25.31-28.22-1.24-1.39-17.5-19.5c-.31-1.24-.6-2.49-.85-3.76l19.74,22.01,1.24,1.39,25.31,28.22,1.25,1.39,7.7,8.59Z"/>
        </g>
      </g>
    </g>
    <g>
      <g>
        <g>
          <path class="cls-9" d="M2167.13,1434.79l126.59-113.9c5.16-4.64,19.24-7.83,31.46-7.12l162.41,9.4c12.21.71,17.93,5.04,12.77,9.69l-126.59,113.9c-5.16,4.64-19.24,7.83-31.45,7.12l-162.41-9.4c-12.21-.71-17.93-5.04-12.77-9.69Z"/>
          <polygon class="cls-9" points="2502.25 1327.49 2502.25 1313.67 2168.37 1421.07 2165.49 1424.05 2165.23 1438.68 2312.74 1443.5 2502.25 1327.49"/>
        </g>
        <g>
          <path class="cls-31" d="M2322.87,1299.48l159.64,9.24c12.81.74,18.81,5.29,13.4,10.16l-119,107.07c-7.79,7.01-29.06,11.83-47.5,10.76l-143.05-8.28c-13.58-.79-19.93-5.61-14.2-10.77l124.84-112.32c4.24-3.82,15.82-6.44,25.87-5.86Z"/>
          <path class="cls-41" d="M2502.2,1313.69c-.54-2.99-5.95-5.3-14.62-5.81l-162.41-9.4c-12.22-.72-26.29,2.48-31.45,7.12l-126.59,113.89c-1.78,1.6-2.28,3.16-1.64,4.55h0c.88,1.94,3.91,3.55,8.63,4.46h0c1.71.32,3.64.56,5.76.69l142.73,8.26h0l19.67,1.14c12.21.71,26.3-2.49,31.45-7.12l88-79.18h0s31.59-28.43,31.59-28.43l7-6.29c1.29-1.17,1.9-2.3,1.9-3.37,0-.17-.02-.33-.05-.5ZM2494.75,1317.23l-6.63,5.96h0s-44.92,40.45-44.92,40.45l-.07.06-73.28,65.91h0s-1.39,1.26-1.39,1.26h0s-.29.27-.29.27c-3.85,3.47-14.37,5.84-23.48,5.31l-.66-.03h-.05l-17.95-1.05-143.75-8.32c-2.16-.13-4.06-.41-5.64-.81-5.06-1.26-6.83-3.77-3.9-6.42l.29-.24.02-.02,1.39-1.25,124.9-112.39c3.85-3.45,14.38-5.83,23.49-5.3l162.39,9.39c7.75.45,12,2.86,10.73,5.7-.21.51-.6,1-1.2,1.53Z"/>
          <path class="cls-41" d="M2177.39,1427.91l165.3,9.57c11.11.64,23.91-2.26,28.61-6.48l1.35-1.21-201.03-11.63-3.25,2.92c-3.64,3.28.39,6.34,9.02,6.84Z"/>
        </g>
      </g>
      <path class="cls-9" d="M2562.66,1532.08c-.4.9-.79,1.79-1.2,2.68-.8,1.78-1.6,3.53-2.4,5.25-30.54-.26-69.38,2.39-109.76,5.15-104.46,7.13-212.45,14.5-246.93-18.99-11.4-11.1-15.49-22.84-12.16-34.93,5.21-18.88,27.55-34.32,44.43-43.59,0-.01,0-.01,0-.01,4.72-2.6,9.03-4.71,12.42-6.28h0c4.13-1.92,6.9-3.04,7.38-3.22l2.33,3.54,2.33,3.55c-.12.05-3.09,1.24-7.63,3.4-14.62,6.91-45.58,23.72-51.26,44.29-2.69,9.77.6,19.01,10.11,28.26,31.07,30.18,141.05,22.67,238.07,16.05,42.1-2.88,82.54-5.63,114.24-5.13Z"/>
    </g>
    <g>
      <rect class="cls-49" x="761.64" y="449.15" width="1198.14" height="703.38"/>
      <rect class="cls-47" x="761.64" y="449.15" width="1198.14" height="591.01"/>
      <path class="cls-49" d="M1517.51,1267.11v17.09h-351.8v-17.09c24.86,0,45.22-19.19,47.1-43.55.09-1.22.14-2.45.14-3.69v-67.34h257.32v67.34c0,1.24.05,2.47.14,3.69.89,11.57,5.96,21.98,13.69,29.72,8.55,8.54,20.37,13.83,33.41,13.83Z"/>
      <g class="cls-57">
        <rect class="cls-34" x="1212.95" y="1152.53" width="257.32" height="14.07"/>
      </g>
      <g class="cls-57">
        <path class="cls-34" d="M1517.51,1267.11h-351.8c24.86,0,45.22-19.19,47.1-43.55h257.6c.89,11.57,5.96,21.98,13.69,29.72,8.55,8.54,20.37,13.83,33.41,13.83Z"/>
      </g>
    </g>
    <g>
      <path class="cls-53" d="M503.46,1051.43s-12.47-110.68,35.42-203.94c5.08-9.89,17.68-7.4,19.76,3.92,7.45,40.58,14.87,121.63-19.45,207.74-48.84,122.54-35.73-7.72-35.73-7.72Z"/>
      <path class="cls-53" d="M560.65,1073.31s7.82-111.1,71.84-194.13c6.79-8.8,18.73-4.07,18.72,7.44-.04,41.25-7.45,122.31-56.83,200.76-70.27,111.64-33.73-14.08-33.73-14.08Z"/>
      <path class="cls-23" d="M528.79,1051.19s.23-111.38,58.43-198.58c6.17-9.25,18.41-5.33,19.18,6.15,2.77,41.16.91,122.53-43,204.17-62.49,116.18-34.61-11.74-34.61-11.74Z"/>
      <path class="cls-23" d="M566.42,1056.81s21.98-84.13,83.04-138.64c6.47-5.78,14.96-.43,13.29,8.4-5.96,31.65-23.3,92.78-72.48,145.89-69.97,75.57-23.86-15.65-23.86-15.65Z"/>
      <path class="cls-53" d="M484.25,1064.41s12.47-110.68-35.42-203.94c-5.08-9.89-17.68-7.4-19.76,3.92-7.45,40.58-14.87,121.63,19.45,207.74,48.84,122.54,35.73-7.72,35.73-7.72Z"/>
      <path class="cls-53" d="M427.06,1086.29s-7.82-111.1-71.84-194.13c-6.79-8.8-18.73-4.07-18.72,7.44.04,41.25,7.45,122.31,56.83,200.76,70.27,111.64,33.73-14.08,33.73-14.08Z"/>
      <path class="cls-23" d="M458.92,1064.16s-.23-111.38-58.43-198.58c-6.17-9.25-18.41-5.33-19.18,6.15-2.77,41.16-.91,122.53,43,204.17,62.49,116.17,34.61-11.74,34.61-11.74Z"/>
      <path class="cls-23" d="M523.75,1070.15s21-109.38-19.52-206.08c-4.3-10.25-17.06-8.74-20,2.38-10.57,39.88-24.25,120.11,3.31,208.63,39.21,125.95,36.22-4.93,36.22-4.93Z"/>
      <path class="cls-23" d="M421.29,1069.79s-21.98-84.13-83.04-138.64c-6.47-5.78-14.96-.43-13.29,8.4,5.96,31.65,23.3,92.78,72.48,145.89,69.97,75.57,23.86-15.65,23.86-15.65Z"/>
      <path class="cls-41" d="M349.92,1048.2h296.63v114.24c0,50.04-40.62,90.66-90.66,90.66h-120.07c-50.04,0-90.66-40.62-90.66-90.66v-109.48c0-2.63,2.13-4.76,4.76-4.76Z"/>
    </g>
    <rect class="cls-31" x="777.17" y="464.71" width="1164.71" height="553.16"/>
    <g>
      <g class="cls-54">
        <rect class="cls-38" x="804.62" y="490.24" width="249.73" height="249.73"/>
      </g>
      <g class="cls-54">
        <rect class="cls-38" x="804.62" y="767.46" width="249.73" height="227.52"/>
      </g>
      <g class="cls-54">
        <rect class="cls-38" x="1102.73" y="796.1" width="804.31" height="198.88"/>
      </g>
      <rect class="cls-21" x="1102.73" y="490.23" width="514.1" height="281.35"/>
      <g>
        <path class="cls-14" d="M1592.39,567v204.58h-489.66v-152.77h18.29v9.48h15.03v-5.51h13.93v-21.84h6.94v-10.19h1.05v10.19h16.65v-19.1h1.64v19.1h11.01v-.27h-.02v-2.42h.02v-2.29h-.02v-3.82h.02v-2.44h-.02v-3.81h.02v-2.44h-.02v-3.81h.02v-2.64h-.02v-3.82h.02v-3.34h-.02v-3.82h.02v-2.52h3.28v-2.86h.53v2.86h24.32v-2.86h.52v2.86h4.44v19.97h3.12s0,0,0,0h-.02v-3.81h.02v-2.64h-.02v-3.82h.02v-2.62h-.02v-3.81h.02v-.02h29.48v.02h5.08c.26.1.52.2.78.29v21.79h21.54v28.62h17.41v-52.93h3.8v-3.7h.68v3.7h13.75v-3.7h.68v3.7h19.47v-3.7h.68v3.7h12.25v-3.7h.68v3.7h5.04v49.4h19.24v-7.98l22.69.07v-12.95h4.57v-2.55h.6v2.55h17.52s3.51,0,3.51,0v-2.56h.6v2.56h4.22v25.74h27.02v9.48h15.02v-5.51h13.93v-21.84h6.95v-10.19h1.04v10.19h16.65v-19.1h1.63v19.1h11.01v-.27h-.02v-2.42h.02v-2.29h-.02v-3.82h.02v-2.44h-.02v-3.81h.02v-2.44h-.02v-3.81h.02v-2.64h-.02v-3.82h.02v-3.34h-.02v-3.82h.02v-2.52h3.29v-2.86h.53v2.86h24.31v-2.86h.53v2.86h4.43v19.97h3.08s.05,0,.05,0h0s-.03,0-.03,0v-3.81h.03v-2.64h-.03v-3.82h.03v-2.62h-.03v-3.81h.03v-.02h29.48v.02h5.07c.22.08.43.17.66.25Z"/>
        <g>
          <rect class="cls-5" x="1311.27" y="564.54" width="43.5" height="8.37"/>
          <g>
            <rect class="cls-5" x="1521.04" y="563.49" width="20.29" height="5.08"/>
            <rect class="cls-5" x="1521.04" y="571.32" width="20.29" height="5.09"/>
            <rect class="cls-5" x="1521.04" y="579.31" width="20.29" height="5.09"/>
            <rect class="cls-5" x="1521.04" y="587.43" width="20.29" height="5.08"/>
            <rect class="cls-5" x="1521.04" y="595.26" width="20.29" height="5.09"/>
          </g>
          <g>
            <rect class="cls-5" x="1521.04" y="603.88" width="20.29" height="5.09"/>
            <rect class="cls-5" x="1521.04" y="611.71" width="20.29" height="5.08"/>
            <rect class="cls-5" x="1521.04" y="619.7" width="20.29" height="5.09"/>
            <rect class="cls-5" x="1521.04" y="627.81" width="20.29" height="5.08"/>
            <rect class="cls-5" x="1521.04" y="635.65" width="20.29" height="5.08"/>
          </g>
          <g>
            <rect class="cls-5" x="1187.05" y="563.49" width="21.75" height="5.08"/>
            <rect class="cls-5" x="1187.05" y="571.32" width="21.75" height="5.09"/>
            <rect class="cls-5" x="1187.05" y="579.31" width="21.75" height="5.09"/>
            <rect class="cls-5" x="1187.05" y="587.43" width="21.75" height="5.08"/>
            <rect class="cls-5" x="1187.05" y="595.26" width="21.75" height="5.09"/>
          </g>
          <g>
            <rect class="cls-5" x="1187.05" y="603.88" width="21.75" height="5.09"/>
            <rect class="cls-5" x="1187.05" y="611.71" width="21.75" height="5.08"/>
            <rect class="cls-5" x="1187.05" y="619.7" width="21.75" height="5.09"/>
            <rect class="cls-5" x="1187.05" y="627.81" width="21.75" height="5.08"/>
            <rect class="cls-5" x="1187.05" y="635.65" width="21.75" height="5.08"/>
          </g>
          <g>
            <rect class="cls-5" x="1223.88" y="566.82" width="24.72" height="5.09"/>
            <rect class="cls-5" x="1223.88" y="574.65" width="24.72" height="5.08"/>
            <rect class="cls-5" x="1223.88" y="582.64" width="24.72" height="5.08"/>
            <rect class="cls-5" x="1223.88" y="590.76" width="24.72" height="5.09"/>
            <rect class="cls-5" x="1223.88" y="598.59" width="24.72" height="5.08"/>
          </g>
          <g>
            <rect class="cls-5" x="1223.88" y="606.76" width="24.72" height="5.09"/>
            <rect class="cls-5" x="1223.88" y="614.59" width="24.72" height="5.08"/>
            <rect class="cls-5" x="1223.88" y="622.58" width="24.72" height="5.08"/>
            <rect class="cls-5" x="1223.88" y="630.69" width="24.72" height="5.09"/>
            <rect class="cls-5" x="1223.88" y="638.53" width="24.72" height="5.09"/>
          </g>
        </g>
      </g>
      <g>
        <path class="cls-28" d="M1548.51,545.89h-1.91l.02-.15.58-5.1c.02-.16.16-.29.32-.29.02,0,.04,0,.06,0,.11.01.21.06.28.13.09.08.15.2.17.33l.49,5.07Z"/>
        <path class="cls-20" d="M1546.78,544.73h-.07s.48-4.09.48-4.09c.02-.16.16-.29.32-.29.02,0,.04,0,.06,0,.02.02.04.03.05.05.09.09.13.21.14.34l.03,2.94c0,.56-.44,1.03-1.01,1.04Z"/>
        <rect class="cls-28" x="1546.04" y="568.56" width="3.68" height="162.64"/>
        <rect class="cls-16" x="1546.04" y="568.56" width="1.7" height="162.64"/>
        <rect class="cls-28" x="1542.02" y="705.25" width="11.73" height="43.03"/>
        <rect class="cls-16" x="1542.02" y="705.25" width="6.99" height="43.03"/>
        <path class="cls-28" d="M1554.29,548.34c0,2.01-3.02,3.64-6.74,3.64-.29,0-.56,0-.84-.03-3.33-.22-5.9-1.75-5.9-3.61s2.58-3.39,5.9-3.61c.28-.02.55-.03.84-.03,3.72,0,6.74,1.63,6.74,3.64Z"/>
        <path class="cls-16" d="M1550.8,548.34c0,1.62-1.69,3.01-4.09,3.61-3.33-.22-5.9-1.75-5.9-3.61s2.58-3.39,5.9-3.61c2.41.6,4.09,1.99,4.09,3.61Z"/>
        <polygon class="cls-16" points="1553.73 571.77 1542 571.77 1537.87 551.85 1557.24 551.85 1553.73 571.77"/>
        <rect class="cls-28" x="1536.82" y="550.35" width="21.46" height="1.91"/>
        <rect class="cls-16" x="1536.82" y="550.35" width="13.49" height="1.91"/>
        <path class="cls-13" d="M1543.94,705.25h7.5l-1.1-3.33c-.1-.29-.37-.49-.68-.49h-3.51c-.38,0-.72.23-.87.58l-1.33,3.24Z"/>
        <polygon class="cls-37" points="1539.25 552.82 1555.8 552.82 1552.56 570.72 1543.06 570.72 1539.25 552.82"/>
        <polygon class="cls-28" points="1556.91 550.35 1538.19 550.35 1539.72 548.16 1555.46 548.16 1556.91 550.35"/>
        <polygon class="cls-16" points="1552.3 550.35 1538.19 550.35 1539.72 548.16 1550.84 548.16 1552.3 550.35"/>
      </g>
      <path class="cls-53" d="M1221,748.46l-118.27-.04v-28.88c.38.18.76.36,1.15.55,16.14,8.22,14.02,19.17,34,15.15,19.98-4,36.46-5.69,45.4,0,8.95,5.7,15.51,3.43,26.64,3.39,9.22-.03,10.8,7.31,11.08,9.82Z"/>
      <g>
        <polygon class="cls-45" points="1245.54 715.38 1132.85 715.38 1127.64 688.89 1240.13 688.89 1245.54 715.38"/>
        <polygon class="cls-32" points="1247.47 715.38 1134.78 715.38 1129.57 688.89 1242.06 688.89 1247.47 715.38"/>
        <path class="cls-45" d="M1132.85,715.38h33.26v3.24h-30.8c-1.36,0-2.47-1.11-2.47-2.47v-.78h0Z"/>
        <rect class="cls-26" x="1165.86" y="715.38" width="102.35" height="3.24"/>
        <path class="cls-26" d="M1139.58,718.62l-1.93,7.59h0s-5.71,22.48-5.71,22.48c-.08.29-.34.5-.64.5-.58,0-1.02-.53-.91-1.1l5.09-26.22.63-3.26h3.46Z"/>
        <path class="cls-45" d="M1137.65,726.21c.19-3.88-2.16-4.33-2.16-4.33l.63-3.26h3.46l-1.93,7.59Z"/>
        <path class="cls-26" d="M1164.02,718.62l-1.93,7.59h0s-5.71,22.48-5.71,22.48c-.08.29-.34.5-.64.5-.58,0-1.02-.53-.91-1.1l5.1-26.22.63-3.26h3.46Z"/>
        <path class="cls-45" d="M1162.09,726.21c.19-3.88-2.16-4.33-2.16-4.33l.63-3.26h3.46l-1.93,7.59Z"/>
        <path class="cls-26" d="M1258.88,718.62l1.93,7.59h0s5.71,22.48,5.71,22.48c.08.29.34.5.64.5.58,0,1.02-.53.91-1.1l-5.1-26.22-.63-3.26h-3.46Z"/>
        <path class="cls-45" d="M1260.8,726.21c-.19-3.88,2.16-4.33,2.16-4.33l-.63-3.26h-3.46l1.93,7.59Z"/>
        <path class="cls-26" d="M1234.43,718.62l1.93,7.59h0s5.71,22.48,5.71,22.48c.08.29.34.5.64.5.58,0,1.02-.53.91-1.1l-5.1-26.22-.63-3.26h-3.46Z"/>
        <path class="cls-45" d="M1236.36,726.21c-.18-3.88,2.16-4.33,2.16-4.33l-.63-3.26h-3.46l1.93,7.59Z"/>
      </g>
      <path class="cls-53" d="M1172.99,562.71c-2.91,1.68-6.33,2.75-10.05,3-16.32,1.02-21.98,7.09-35.18,19.94-7.09,6.88-16.87,8.37-25.03,8.61v-87.28c2.3,1.64,4.66,3.34,7.08,4.94,8.98,6.02,18.72,10.91,29.36,8.32,10.71-2.61,18.97-2.45,25.45-.36,8.26,2.6,13.67,8.26,17.54,15.2,5.35,9.53.72,21.98-9.18,27.63Z"/>
      <path class="cls-27" d="M1306.25,531.85c0-4.04,3.27-7.31,7.31-7.31s7.31,3.27,7.31,7.31-3.27,7.31-7.31,7.31-7.31-3.27-7.31-7.31Z"/>
      <path class="cls-27" d="M1426.64,525.34s6.35-10.21,21.55-9.08c0,0,22.06-17.02,45.58-2.27,0,0,25-3.66,43.52,3.16,12.34,4.55,16.42,9.32,16.42,9.32l-127.07-1.13Z"/>
      <g class="cls-56">
        <path class="cls-27" d="M1502.54,551.58s4.16-6.68,14.09-5.94c0,0,14.43-11.13,29.81-1.48,0,0,16.35-2.39,28.46,2.07,8.07,2.97,10.74,6.09,10.74,6.09l-83.11-.74Z"/>
      </g>
      <g class="cls-56">
        <path class="cls-27" d="M1192.22,546.95s4.16-6.68,14.09-5.94c0,0,14.43-11.13,29.81-1.48,0,0,16.35-2.39,28.46,2.07,8.08,2.97,10.74,6.09,10.74,6.09l-83.11-.74Z"/>
      </g>
      <rect class="cls-28" x="1102.73" y="748.28" width="514.1" height="23.3"/>
      <g>
        <path class="cls-49" d="M1426.64,741.16s-2.52-9.14,4.35-18.03c6.87-8.89,18.52-6.5,18.52-6.5,0,0,1.62,2.5-1.59,4.48-3.22,1.98-14.43-1.98-17.25,17.49,0,0-1.35,4.03-4.02,2.56Z"/>
        <path class="cls-19" d="M1339.47,609.64c0-2.29,1.86-4.14,4.14-4.14s4.14,1.86,4.14,4.14-1.85,4.14-4.14,4.14-4.14-1.85-4.14-4.14Z"/>
        <path class="cls-28" d="M1439.77,735.73c0-3.21,2.6-5.81,5.81-5.81s5.81,2.6,5.81,5.81-2.6,5.81-5.81,5.81-5.81-2.6-5.81-5.81Z"/>
        <path class="cls-28" d="M1310.92,731.29c0-4.91,3.98-8.9,8.9-8.9s8.9,3.98,8.9,8.9-3.98,8.9-8.9,8.9-8.9-3.98-8.9-8.9Z"/>
        <rect class="cls-18" x="1276.46" y="663.44" width="103.96" height="3.55" transform="translate(488.9 1890.96) rotate(-82.19)"/>
        <polygon class="cls-19" points="1325.07 617.04 1325.07 613.06 1343.17 609.1 1344.36 612.45 1325.07 617.04"/>
        <path class="cls-25" d="M1320.11,748.18c-9.14,0-16.57-7.43-16.57-16.57s7.43-16.57,16.57-16.57,16.57,7.43,16.57,16.57-7.43,16.57-16.57,16.57ZM1320.11,718.39c-7.29,0-13.22,5.93-13.22,13.22s5.93,13.22,13.22,13.22,13.22-5.93,13.22-13.22-5.93-13.22-13.22-13.22Z"/>
        <path class="cls-25" d="M1445.59,747.84c-6.68,0-12.11-5.43-12.11-12.11s5.43-12.11,12.11-12.11,12.11,5.43,12.11,12.11-5.43,12.11-12.11,12.11ZM1445.59,726.28c-5.21,0-9.45,4.24-9.45,9.45s4.24,9.44,9.45,9.44,9.45-4.24,9.45-9.44-4.24-9.45-9.45-9.45Z"/>
        <path class="cls-18" d="M1345.47,736.05h82.24c1.47,0,2.67,1.2,2.67,2.67v1.28c0,1.47-1.2,2.67-2.67,2.67h-82.24c-1.47,0-2.67-1.2-2.67-2.67v-1.28c0-1.47,1.2-2.67,2.67-2.67Z"/>
        <path class="cls-18" d="M1428.67,742.71c-.56,0-1.08-.35-1.26-.91-.23-.7.14-1.45.84-1.68l16.91-5.64c.7-.23,1.45.14,1.68.84.23.7-.14,1.45-.84,1.68l-16.91,5.64c-.14.05-.28.07-.42.07Z"/>
        <polygon class="cls-18" points="1324.7 690.84 1353.04 736.19 1360.24 736.19 1326.2 682.41 1324.7 690.84"/>
        <path class="cls-25" d="M1326.31,717.06l-2.6-.79-2.71,8.91c-.9,2.95-3.74,4.88-6.81,4.62l-8.61-.73-.23,2.71,8.63.73c3.58.3,6.81,2.25,8.74,5.28l4.57,7.15,2.29-1.46-4.41-6.91c-2.06-3.23-2.61-7.19-1.49-10.85l2.63-8.65Z"/>
        <path class="cls-25" d="M1449.49,726.45l-1.69-.51-1.76,5.79c-.58,1.92-2.43,3.17-4.43,3l-5.59-.47-.15,1.76,5.61.47c2.32.2,4.42,1.46,5.68,3.43l2.97,4.65,1.49-.95-2.87-4.49c-1.34-2.1-1.69-4.67-.97-7.05l1.71-5.62Z"/>
        <path class="cls-49" d="M1444.01,735.51c0-.74.6-1.33,1.33-1.33s1.33.6,1.33,1.33-.6,1.33-1.33,1.33-1.33-.6-1.33-1.33Z"/>
        <path class="cls-49" d="M1318.49,731.29c0-.74.6-1.33,1.33-1.33s1.33.6,1.33,1.33-.6,1.33-1.33,1.33-1.33-.6-1.33-1.33Z"/>
        <path class="cls-49" d="M1309.67,714.12s7.77-5.44,18.44-1.94c10.68,3.5,12.33,15.27,12.33,15.27,0,0-1.81,2.37-4.76,0-2.94-2.37-2.96-14.26-22.26-10.4,0,0-4.25.08-3.76-2.93Z"/>
        <path class="cls-2" d="M1383.49,510.64s-13.41,21.56-13.41,27.42,4.27,12.58,4.27,12.58l13.57-11.27,6.75-12.11-11.18-16.62Z"/>
        <path class="cls-15" d="M1394.09,542.27s-4.53,8.16-12.62,6.71c0,0-2.38-3.59-2.97-6.47-.07-.35-.14-.7-.21-1.02-.68-3.24-1.14-5.04-1.14-5.04,0,0,0,0,0,0,.31-.21,10.56-6.97,10.63-6.59,1.53,8.82,6.31,12.42,6.31,12.42Z"/>
        <path class="cls-50" d="M1373.62,536.94s12.44,4.17,14.92-3.62c2.47-7.79,5.75-12.5-2.09-15.49-7.84-2.99-10.33-.51-11.79,1.89-1.46,2.4-4.2,15.94-1.03,17.22Z"/>
        <path class="cls-48" d="M1359.5,736.18h20.5c.2-.04.35-.08.44-.13,1.37-.69.94-5.93.78-7.54-.03-.3-.05-.48-.05-.48,0,0-7.21-5.76-8.2-1.35-.03.14-.07.27-.11.41h0c-1.25,4.13-6.85,6.01-10.08,6.53-2.47.4-3.11,1.84-3.27,2.56Z"/>
        <path class="cls-48" d="M1399.64,736.18h20.5c.2-.04.34-.08.44-.13,1.37-.69.94-5.93.78-7.54-.03-.3-.05-.48-.05-.48,0,0-7.21-5.76-8.2-1.35-.03.14-.07.27-.11.41h0c-1.25,4.13-6.85,6.01-10.08,6.53-2.47.4-3.11,1.84-3.28,2.56Z"/>
        <path class="cls-49" d="M1363.64,617.95s1.09,13.66,2.38,30.08c1.75,22.31,3.85,49.71,4.06,54.9.36,9.01,2.78,24.16,2.78,24.16,0,0,1.46,2.39,8.31.94,0,0,7.1-20.27,8.84-42.05.03-.36.05-.72.08-1.08,1.62-22.17,4.14-68.85,4.14-68.85l-30.59,1.89Z"/>
        <path class="cls-19" d="M1363.64,617.95s1.09,13.66,2.38,30.08l23.98,37.95c.03-.36.05-.72.08-1.08,1.62-22.17,4.14-68.85,4.14-68.85l-30.59,1.89Z"/>
        <path class="cls-49" d="M1368.64,619.57s13.45,51.5,26.42,74.74c12.98,23.25,17.61,33.6,17.61,33.6,0,0,7.95,2.15,8.63.12,0,0-6.8-55.34-12.06-68.28-2.73-6.7-4-27.3-4.27-33.79-.27-6.49-4.83-15.32-4.83-15.32l-31.49,8.92Z"/>
        <path class="cls-28" d="M1364.21,639.64c24.95,12.34,52.26,8.35,52.21,7.5-.05-.93-10.4-55.98-13.98-72.03-3.34-14.95-7.85-28.05-12.03-31.04-.55-.38-3.83,1.31-6.86,2.88-2.79,1.45-5.61,1.66-8.28,1.17,0,0-1.36,1.8-2.16,3.76-1.68,4.09-10.44,32.06-10.55,36.9,0,.29-.01.58-.02.86-.03,1.4-.06,2.8-.08,4.2-.02,1.59,1.46,45.67,1.73,45.81Z"/>
        <path class="cls-6" d="M1363.28,618.64c24.54-13.76,22.11-45.44,22.11-45.44l-22.91,20.63c-.02,1.59-.04,3.18-.04,4.74,0,1.17,0,2.34.02,3.49v.15c-.03.43-.02.89,0,1.32.01,1.92.81,13.37.84,15.11Z"/>
        <path class="cls-50" d="M1338.53,609.19c-1.22-2.11-.27-3.03-.27-3.03,0,0,20.27-14.89,21.87-16.4,1.6-1.52,9.55-26.22,9.55-26.22,0,0,2.78-10.01,8.61-10.94,5.06-.81,8.46,1.79,10.65,4.77,2.6,3.56,2.72,8.37.36,12.09-5.32,8.36-16.03,24.95-19.09,27.74-6.82,6.22-28.81,13.71-28.81,13.71,0,0-1.91-.06-2.87-1.71Z"/>
        <path class="cls-4" d="M1387.9,535.45c.16.13,2.82,1.22,8.96-8.63.96-1.54,1.84-5,.23-8.27-1.61-3.27-8.11-6.33-13.6-7.91-5.49-1.58-7.12,1.44-8.73,4.48-1.69,3.19-5.93,5.55-5.93,5.55,4.57,3.14,10.73-.18,12.68.64,1.95.82,2.37,4.05,2.43,5.08.06,1.03.21,1.89,2.82,1.22,2.61-.67.81,3.69.33,4.51,0,0-.56,2.26.81,3.32Z"/>
        <path class="cls-28" d="M1383.49,510.64s6.86,11.73,7.08,16.74c.22,5.01-15.29,20.74-15.29,20.74,0,0,13.3,3.49,18.78,0,0,0,12.66-17.63,12.66-20.85s-7.41-16.43-23.22-16.62Z"/>
        <path class="cls-6" d="M1371.38,617.47s12.04,1.97,19.61.87l-.17,12.1-9.63,3.69-9.8-5.44v-11.22Z"/>
        <path class="cls-50" d="M1338.22,606.16s-7.76.39-9.32,1.85c-1.55,1.46-4.61,4.22-2.3,4.71l5.57-1.22c2.85.67,3.88,2.22,5.69,1.25s3.8-2.02,3.8-2.02l-3.44-4.58Z"/>
        <path class="cls-49" d="M1319.62,614.5c0-2.29,1.85-4.14,4.14-4.14s4.14,1.86,4.14,4.14-1.85,4.14-4.14,4.14-4.14-1.85-4.14-4.14Z"/>
        <path class="cls-49" d="M1431.9,585.34c-.04.61-.11,1.14-.23,1.58-1.63,6.22-22.67,10.92-25.03,8.67-.44-.42-.9-1.03-1.37-1.8-5.99-9.85-13.59-45.73-10.6-43.6,0,0,5.59-1.75,10.19-2.18l.81-.06h.03c1.45-.09,2.76-.01,3.68.33,3.91,1.45,7.04,11.67,7.04,11.67,0,0,3.22-.46,6.1-.11.35.04.7.1,1.04.17h0c.88.18,1.68.47,2.28.89,2.46,1.75,6.49,17.72,6.06,24.45Z"/>
        <path class="cls-49" d="M1397.32,549.66s-7.22-6.9-19.3-4.44l-2.75,2.89s12.13-2.92,18.81,3.46l3.24-1.91Z"/>
        <path class="cls-49" d="M1376.34,582.51s7.22,12.81,26.92,6.45l2.02,4.82s-23.42,6.66-31.33-6.24l2.4-5.03Z"/>
        <path class="cls-28" d="M1378.93,550.64s-5-.57-6.85,4.09c-1.32,3.33-4.26,18.97-10.91,30.37-2.66,4.57-12.81,13.49-17.04,16.73,0,0,1.54,4.95,4.85,6.27,0,0,16.01,1.62,26.53-10.35,3.01-3.4,20.9-32.55,17.21-38.57-3.69-6.02-13.8-8.54-13.8-8.54Z"/>
        <path class="cls-19" d="M1405.7,547.93c-.72.69-2.11,2.52-1.65,6.02.62,4.69,2.13,8.04,2.15,8.07l-.52.24s-1.55-3.46-2.19-8.24c-.42-3.12.57-5.03,1.38-6.03l.84-.07Z"/>
        <path class="cls-19" d="M1426.06,585.48l-.55.17c-.24-.77-5.83-18.8-5.45-22.13.24-2.09,1.49-3.17,2.45-3.7.35.04.7.1,1.04.17-.67.21-2.62,1.04-2.92,3.6-.37,3.2,5.37,21.7,5.42,21.89Z"/>
        <path class="cls-19" d="M1400.96,577.54l4.97,14.1s6.89.21,11.1-2.67l-4.59-14.49s-3.83,2.93-11.48,3.06Z"/>
        <path class="cls-19" d="M1431.9,585.34c-.04.61-.11,1.14-.23,1.58-1.63,6.22-22.67,10.92-25.03,8.67-.44-.42-.9-1.03-1.37-1.8.19,0,12.14-.42,26.63-8.44Z"/>
        <path class="cls-42" d="M1400.96,577.54l1.46,4.14,6.58.45,4.72-3.62-1.28-4.04s-7.41,1.53-11.48,3.06Z"/>
        <path class="cls-18" d="M1408.01,580.88c0-.23.19-.41.41-.41s.41.18.41.41-.18.41-.41.41-.41-.18-.41-.41Z"/>
      </g>
      <rect class="cls-28" x="1139.43" y="820.67" width="616.64" height="15.51"/>
      <rect class="cls-28" x="1139.43" y="851.97" width="616.64" height="15.5"/>
      <rect class="cls-28" x="1414.15" y="883.27" width="341.92" height="15.5"/>
      <rect class="cls-28" x="1344.24" y="914.56" width="265.16" height="15.51"/>
      <rect class="cls-28" x="1414.15" y="945.86" width="341.92" height="15.51"/>
      <rect class="cls-28" x="822.58" y="695" width="163.3" height="7.75"/>
      <rect class="cls-28" x="1001.63" y="695" width="17.97" height="17.97"/>
      <rect class="cls-36" x="883.65" y="695" width="74.92" height="7.75"/>
      <rect class="cls-28" x="822.58" y="652.5" width="163.3" height="7.74"/>
      <rect class="cls-28" x="1001.63" y="652.5" width="17.97" height="17.97"/>
      <rect class="cls-36" x="843.96" y="652.5" width="52.18" height="7.74"/>
      <rect class="cls-28" x="822.58" y="610" width="163.3" height="7.74"/>
      <rect class="cls-6" x="1001.63" y="610" width="17.97" height="17.97"/>
      <rect class="cls-6" x="903.39" y="610" width="52.18" height="7.74"/>
      <rect class="cls-28" x="822.58" y="567.5" width="163.3" height="7.74"/>
      <rect class="cls-6" x="1001.63" y="567.5" width="17.97" height="17.97"/>
      <rect class="cls-6" x="843.96" y="567.5" width="79.38" height="7.74"/>
      <rect class="cls-28" x="822.58" y="525" width="163.3" height="7.74"/>
      <rect class="cls-36" x="1001.63" y="525" width="17.97" height="17.97"/>
      <rect class="cls-36" x="899.62" y="525" width="69.6" height="7.74"/>
      <g>
        <rect class="cls-28" x="896.14" y="791.62" width="15.86" height="15.86"/>
        <rect class="cls-28" x="924.48" y="791.62" width="15.86" height="15.86"/>
        <rect class="cls-28" x="951.29" y="793.66" width="82.71" height="5.89"/>
        <polygon class="cls-28" points="872.46 789.63 885.47 799.54 872.46 807.13 872.46 789.63"/>
      </g>
      <rect class="cls-6" x="896.14" y="821.96" width="15.86" height="15.86"/>
      <rect class="cls-28" x="924.48" y="821.96" width="15.86" height="15.86"/>
      <rect class="cls-28" x="951.29" y="824.01" width="82.71" height="5.88"/>
      <polygon class="cls-28" points="872.46 819.98 885.47 829.89 872.46 837.48 872.46 819.98"/>
      <rect class="cls-36" x="896.14" y="852.31" width="15.86" height="15.86"/>
      <rect class="cls-28" x="924.48" y="852.31" width="15.86" height="15.86"/>
      <rect class="cls-28" x="951.29" y="854.35" width="82.71" height="5.88"/>
      <polygon class="cls-28" points="872.46 850.33 885.47 860.24 872.46 867.83 872.46 850.33"/>
      <rect class="cls-36" x="896.14" y="882.66" width="15.86" height="15.86"/>
      <rect class="cls-28" x="924.48" y="882.66" width="15.86" height="15.86"/>
      <rect class="cls-28" x="951.29" y="884.7" width="82.71" height="5.89"/>
      <polygon class="cls-28" points="872.46 880.67 885.47 890.59 872.46 898.17 872.46 880.67"/>
      <rect class="cls-6" x="896.14" y="913" width="15.86" height="15.86"/>
      <rect class="cls-28" x="924.48" y="913" width="15.86" height="15.86"/>
      <rect class="cls-28" x="951.29" y="915.05" width="82.71" height="5.89"/>
      <polygon class="cls-28" points="872.46 911.02 885.47 920.93 872.46 928.52 872.46 911.02"/>
      <rect class="cls-6" x="896.14" y="943.35" width="15.86" height="15.86"/>
      <rect class="cls-28" x="924.48" y="943.35" width="15.86" height="15.86"/>
      <rect class="cls-28" x="951.29" y="945.39" width="82.71" height="5.88"/>
      <polygon class="cls-28" points="872.46 941.37 885.47 951.28 872.46 958.87 872.46 941.37"/>
      <g class="cls-56">
        <path class="cls-38" d="M820.11,798.38s4.19-5.4,9.86-5.4,9.36,5.4,9.36,5.4c0,0-3.02,5.41-9.36,5.41-6.68,0-9.86-5.41-9.86-5.41Z"/>
        <path class="cls-7" d="M825.98,798.38c0-2.07,1.68-3.74,3.74-3.74s3.74,1.67,3.74,3.74-1.68,3.74-3.74,3.74-3.74-1.68-3.74-3.74Z"/>
        <path class="cls-38" d="M827.43,798.38c0-1.26,1.02-2.29,2.29-2.29s2.29,1.02,2.29,2.29-1.02,2.29-2.29,2.29-2.29-1.02-2.29-2.29Z"/>
      </g>
      <g class="cls-56">
        <path class="cls-38" d="M820.11,828.73s4.19-5.41,9.86-5.41,9.36,5.41,9.36,5.41c0,0-3.02,5.41-9.36,5.41-6.68,0-9.86-5.41-9.86-5.41Z"/>
        <path class="cls-7" d="M825.98,828.73c0-2.07,1.68-3.74,3.74-3.74s3.74,1.68,3.74,3.74-1.68,3.74-3.74,3.74-3.74-1.68-3.74-3.74Z"/>
        <path class="cls-38" d="M827.43,828.73c0-1.26,1.02-2.29,2.29-2.29s2.29,1.02,2.29,2.29-1.02,2.29-2.29,2.29-2.29-1.02-2.29-2.29Z"/>
      </g>
      <g class="cls-56">
        <path class="cls-38" d="M820.11,859.08s4.19-5.41,9.86-5.41,9.36,5.41,9.36,5.41c0,0-3.02,5.41-9.36,5.41-6.68,0-9.86-5.41-9.86-5.41Z"/>
        <path class="cls-7" d="M825.98,859.08c0-2.07,1.68-3.74,3.74-3.74s3.74,1.67,3.74,3.74-1.68,3.74-3.74,3.74-3.74-1.67-3.74-3.74Z"/>
        <path class="cls-38" d="M827.43,859.08c0-1.26,1.02-2.29,2.29-2.29s2.29,1.02,2.29,2.29-1.02,2.28-2.29,2.28-2.29-1.02-2.29-2.28Z"/>
      </g>
      <g class="cls-56">
        <path class="cls-38" d="M820.11,889.42s4.19-5.41,9.86-5.41,9.36,5.41,9.36,5.41c0,0-3.02,5.41-9.36,5.41-6.68,0-9.86-5.41-9.86-5.41Z"/>
        <path class="cls-7" d="M825.98,889.42c0-2.07,1.68-3.74,3.74-3.74s3.74,1.67,3.74,3.74-1.68,3.74-3.74,3.74-3.74-1.67-3.74-3.74Z"/>
        <path class="cls-38" d="M827.43,889.42c0-1.26,1.02-2.29,2.29-2.29s2.29,1.02,2.29,2.29-1.02,2.29-2.29,2.29-2.29-1.02-2.29-2.29Z"/>
      </g>
      <g class="cls-56">
        <path class="cls-38" d="M820.11,919.77s4.19-5.4,9.86-5.4,9.36,5.4,9.36,5.4c0,0-3.02,5.41-9.36,5.41-6.68,0-9.86-5.41-9.86-5.41Z"/>
        <path class="cls-7" d="M825.98,919.77c0-2.07,1.68-3.74,3.74-3.74s3.74,1.67,3.74,3.74-1.68,3.74-3.74,3.74-3.74-1.68-3.74-3.74Z"/>
        <path class="cls-38" d="M827.43,919.77c0-1.26,1.02-2.29,2.29-2.29s2.29,1.02,2.29,2.29-1.02,2.29-2.29,2.29-2.29-1.02-2.29-2.29Z"/>
      </g>
      <g class="cls-56">
        <path class="cls-38" d="M820.11,950.12s4.19-5.41,9.86-5.41,9.36,5.41,9.36,5.41c0,0-3.02,5.41-9.36,5.41-6.68,0-9.86-5.41-9.86-5.41Z"/>
        <path class="cls-7" d="M825.98,950.12c0-2.07,1.68-3.74,3.74-3.74s3.74,1.67,3.74,3.74-1.68,3.74-3.74,3.74-3.74-1.68-3.74-3.74Z"/>
        <path class="cls-38" d="M827.43,950.12c0-1.26,1.02-2.29,2.29-2.29s2.29,1.02,2.29,2.29-1.02,2.29-2.29,2.29-2.29-1.02-2.29-2.29Z"/>
      </g>
      <rect class="cls-49" x="1521.12" y="914.56" width="234.95" height="15.51"/>
      <rect class="cls-49" x="1562.64" y="883.27" width="136.51" height="15.5"/>
      <rect class="cls-49" x="1547.55" y="820.67" width="157.98" height="15.51"/>
      <rect class="cls-6" x="1595.59" y="851.97" width="136.51" height="15.5"/>
      <g>
        <path class="cls-7" d="M1220.86,591.29c-32.28-41.24-68.2-42.69-68.56-42.7l.03-.93c.36,0,36.72,1.47,69.27,43.05l-.73.57Z"/>
        <path class="cls-36" d="M1148.13,548.12c0-2.12,1.72-3.83,3.83-3.83s3.83,1.72,3.83,3.83-1.72,3.83-3.83,3.83-3.83-1.72-3.83-3.83Z"/>
        <path class="cls-36" d="M1217.39,590.61c0-2.12,1.72-3.83,3.83-3.83s3.83,1.72,3.83,3.83-1.72,3.83-3.83,3.83-3.83-1.72-3.83-3.83Z"/>
      </g>
      <g>
        <path class="cls-7" d="M1230.52,540.15l-.71-.6c.24-.28,24.24-27.68,76.98-26.94v.93c-52.37-.71-76.04,26.34-76.27,26.62Z"/>
        <path class="cls-36" d="M1227.54,543.11c-1.65-1.33-1.91-3.74-.58-5.39,1.33-1.65,3.74-1.91,5.39-.58,1.65,1.33,1.91,3.74.58,5.39-1.33,1.65-3.74,1.91-5.39.58Z"/>
        <path class="cls-36" d="M1304.08,515.81c-1.65-1.33-1.91-3.74-.58-5.39,1.33-1.65,3.74-1.91,5.39-.58,1.65,1.33,1.91,3.74.58,5.39-1.33,1.65-3.74,1.91-5.39.58Z"/>
      </g>
      <g>
        <path class="cls-7" d="M1475.05,540.05l-.84-.72c.27-.31,27.39-31.06,90.85-26.98l-.07,1.1c-62.93-4.04-89.68,26.29-89.95,26.6Z"/>
        <path class="cls-36" d="M1471.68,543.36c-2.06-1.66-2.52-4.51-1.03-6.37,1.49-1.86,4.38-2.01,6.44-.35,2.06,1.66,2.52,4.51,1.03,6.37-1.49,1.86-4.38,2.01-6.44.35Z"/>
        <path class="cls-36" d="M1561.95,515.96c-2.06-1.66-2.52-4.51-1.03-6.37,1.5-1.86,4.38-2.01,6.44-.35,2.06,1.66,2.52,4.51,1.03,6.37-1.49,1.86-4.38,2.01-6.44.35Z"/>
      </g>
      <rect class="cls-7" x="1366.04" y="554.42" width="64.43" height=".93"/>
      <path class="cls-1" d="M1362.2,554.88c0-2.12,1.72-3.83,3.83-3.83s3.83,1.72,3.83,3.83-1.72,3.84-3.83,3.84-3.83-1.72-3.83-3.84Z"/>
      <path class="cls-1" d="M1426.64,554.88c0-2.12,1.72-3.83,3.83-3.83s3.83,1.72,3.83,3.83-1.72,3.84-3.83,3.84-3.83-1.72-3.83-3.84Z"/>
      <rect class="cls-36" x="1494.35" y="802" width="9.29" height="9.29" transform="translate(1009.3 -823.65) rotate(45)"/>
      <path class="cls-7" d="M1329.77,671.48c-36.68,0-75.38-6.44-106.75-13.5-56.89-12.79-102.63-30.3-103.09-30.48l.34-.87c.45.18,46.14,17.66,102.97,30.44,52.41,11.79,125.3,21.86,174.85,2.94,49.76-19,102.45-16.25,137.88-10.61,38.38,6.12,65.36,16.87,65.63,16.98l-.35.86c-.27-.11-27.17-10.83-65.45-16.93-35.32-5.63-87.81-8.36-137.38,10.56-20.05,7.66-43.89,10.59-68.65,10.59Z"/>
      <path class="cls-51" d="M1404.9,657.04c0-2.12,1.72-3.83,3.83-3.83s3.83,1.72,3.83,3.83-1.72,3.83-3.83,3.83-3.83-1.72-3.83-3.83Z"/>
      <path class="cls-51" d="M1298.59,670.52c0-2.12,1.72-3.83,3.83-3.83s3.83,1.72,3.83,3.83-1.72,3.83-3.83,3.83-3.83-1.72-3.83-3.83Z"/>
      <g>
        <path class="cls-7" d="M1323.23,764.38c-7.91,0-16.75-1.36-25.57-5.42l.39-.84c26.43,12.15,53.04-.21,53.3-.33l.4.84c-.18.09-12.4,5.76-28.52,5.76Z"/>
        <path class="cls-36" d="M1353.95,761.18c-1.65,1.33-4.06,1.07-5.39-.57-1.33-1.65-1.07-4.06.57-5.39,1.65-1.33,4.06-1.08,5.39.57,1.33,1.65,1.07,4.06-.57,5.39Z"/>
        <path class="cls-36" d="M1300.26,761.52c-1.65,1.33-4.06,1.07-5.39-.57-1.33-1.65-1.08-4.06.57-5.39,1.65-1.33,4.06-1.08,5.39.57,1.33,1.65,1.07,4.06-.57,5.39Z"/>
      </g>
      <g>
        <path class="cls-7" d="M1449.93,764.38c-7.91,0-16.75-1.36-25.57-5.42l.39-.84c26.43,12.15,53.04-.21,53.3-.33l.4.84c-.18.09-12.4,5.76-28.52,5.76Z"/>
        <path class="cls-36" d="M1480.66,761.18c-1.65,1.33-4.06,1.07-5.39-.57-1.33-1.65-1.07-4.06.57-5.39,1.65-1.33,4.06-1.08,5.39.57,1.33,1.65,1.07,4.06-.57,5.39Z"/>
        <path class="cls-36" d="M1426.96,761.52c-1.65,1.33-4.06,1.07-5.39-.57-1.33-1.65-1.07-4.06.57-5.39,1.65-1.33,4.06-1.08,5.39.57,1.33,1.65,1.07,4.06-.57,5.39Z"/>
      </g>
      <g class="cls-55">
        <path class="cls-28" d="M1616.83,623.09v131.28l-46.93-6.09s-4.19-27.67,15.75-36.46c18.54-8.16,6.07-79.37,31.18-88.73Z"/>
      </g>
      <path class="cls-36" d="M1595.32,666.82c0-2.12,1.72-3.83,3.83-3.83s3.83,1.72,3.83,3.83-1.72,3.83-3.83,3.83-3.83-1.72-3.83-3.83Z"/>
      <path class="cls-36" d="M1117.21,627.07c0-2.12,1.72-3.83,3.83-3.83s3.83,1.72,3.83,3.83-1.72,3.83-3.83,3.83-3.83-1.72-3.83-3.83Z"/>
    </g>
    <g class="cls-54">
      <rect class="cls-38" x="1659.48" y="490.49" width="247.56" height="281.1"/>
    </g>
    <g>
      <g>
        <rect class="cls-28" x="1681.02" y="507.41" width="120.84" height="3.45"/>
        <rect class="cls-28" x="1681.02" y="515.99" width="93.5" height="3.45"/>
      </g>
      <rect class="cls-28" x="1865.5" y="509.41" width="6.54" height="6.54"/>
      <g>
        <rect class="cls-28" x="1681.02" y="545.54" width="120.84" height="3.45"/>
        <rect class="cls-28" x="1681.02" y="554.12" width="93.5" height="3.45"/>
      </g>
      <rect class="cls-28" x="1865.5" y="547.54" width="6.54" height="6.54"/>
      <g>
        <rect class="cls-28" x="1681.02" y="583.67" width="120.84" height="3.45"/>
        <rect class="cls-28" x="1681.02" y="592.25" width="93.5" height="3.45"/>
      </g>
      <rect class="cls-28" x="1865.5" y="585.67" width="6.54" height="6.54"/>
      <g>
        <rect class="cls-28" x="1681.02" y="621.8" width="120.84" height="3.45"/>
        <rect class="cls-28" x="1681.02" y="630.38" width="93.5" height="3.45"/>
      </g>
      <rect class="cls-28" x="1865.5" y="623.8" width="6.54" height="6.54"/>
      <g>
        <rect class="cls-28" x="1681.02" y="659.93" width="120.84" height="3.45"/>
        <rect class="cls-28" x="1681.02" y="668.51" width="93.5" height="3.45"/>
      </g>
      <rect class="cls-28" x="1865.5" y="661.93" width="6.54" height="6.54"/>
      <rect class="cls-28" x="1865.5" y="696.51" width="6.54" height="6.54"/>
      <g>
        <rect class="cls-28" x="1681.02" y="698.06" width="120.84" height="3.45"/>
        <rect class="cls-28" x="1681.02" y="706.64" width="93.5" height="3.45"/>
      </g>
      <g>
        <rect class="cls-28" x="1681.02" y="736.19" width="120.84" height="3.45"/>
        <rect class="cls-28" x="1681.02" y="744.77" width="93.5" height="3.45"/>
      </g>
      <rect class="cls-28" x="1865.5" y="738.19" width="6.54" height="6.54"/>
    </g>
    <g>
      <g>
        <path class="cls-11" d="M1764.23,1332.64s-17.28,42.7-11.19,47.16c6.09,4.46,26.99-13.68,32.53-32.82,5.54-19.14-21.35-14.34-21.35-14.34Z"/>
        <path class="cls-50" d="M2117.31,1620.7c-76.45,0-156.26,0-231.69-.03-2.91-7.02-6-14.39-9.22-21.89-20.92-48.73-47.17-103.59-61.78-110.12-26.88-12.01-43.06-1.5-76.51-40.54-33.45-39.04-54.72-52.31-41.58-61.33,13.14-9,56.52,24.85,68.55,23.39,9.66-1.18,14.69-24.59,13.9-49.32-.2-6.47-.81-13.02-1.84-19.29h0c-.51-3.17-1.14-6.26-1.86-9.22-1.15-4.64-2.56-8.98-4.25-12.84-3.29-7.5-2.99-12.65-.49-16.09,7.5-10.33,34.92-5.35,45.27-2.9,4.62,1.1,18.91-7.56,28.92-2.63,15.53,7.65,24.58-1.18,34.89,5.46,7.29,4.69,22.31,6.89,27.48,13.66,9.85,12.88,12.28,40.14,21.88,65.33,8.88,23.31,11.97,47.77,42.43,89.06,13.57,18.39,55.59,61.07,98.02,102.75,16.45,16.15,32.96,32.17,47.89,46.54Z"/>
        <path class="cls-50" d="M1770.34,1303.37s-63.78,52.22-55.5,59.23c8.29,7.01,29.31.12,63.72-21.92,34.41-22.05-8.23-37.3-8.23-37.3Z"/>
      </g>
      <path class="cls-41" d="M2136.42,1620.7h-19.12c-76.45,0-156.26,0-231.69-.03h-22.54l-2.62-5.42s5.31-7.19,15.93-16.47c27.87-24.38,92.27-63.22,193.03-24.62,4.48,1.72,9.03,3.58,13.66,5.62l53.35,40.92Z"/>
    </g>
    <g>
      <g>
        <path class="cls-11" d="M1094.03,1359.31s11.07,44.71,4.41,48.26c-6.66,3.55-24.79-17.35-27.57-37.09-2.78-19.73,23.16-11.18,23.16-11.18Z"/>
        <path class="cls-50" d="M1103.57,1477.33c-38.63,33.91-53.16,21.23-81.47,29.32-15.38,4.4-49.12,55-76.72,100.29-2.36,3.87-4.67,7.7-6.93,11.47-91.12-.33-182.43-.65-266.55-.96,22.8-16.27,54.38-38.99,85.85-62.16,47.9-35.27,95.55-71.59,111.59-87.89,35.99-36.56,42.5-60.33,54.59-82.16,12.88-23.27,12.5-50.65,30.29-50.38,8.77.13,16.5-11.31,24.59-15.02,11.14-5.1,21.79,6.25,38.25.88,10.61-3.46,25.15,5.91,29.87,5.47,9.09-.83,31.08-4.2,41.04.94,5.53,2.84,7.35,8.29,1.2,18.24-2.22,3.58-4.23,7.68-6.02,12.11-1.01,2.51-1.96,5.12-2.83,7.82-2.05,6.37-3.7,13.14-4.88,19.87-4.28,24.37-2.6,48.26,6.8,50.79,11.7,3.15,60.13-29.35,71.87-18.57,11.74,10.77-11.9,26.03-50.53,59.94Z"/>
        <path class="cls-50" d="M1086.95,1326.82s96.32,28.7,91.32,38.32c-5.01,9.63-55.42,7.98-95.62.63-40.2-7.35,4.3-38.95,4.3-38.95Z"/>
      </g>
      <path class="cls-41" d="M954.35,1618.47c-5.3-.02-10.6-.04-15.9-.06-91.12-.33-182.43-.65-266.55-.96-10.89-.04-21.65-.08-32.28-.11l103.83-58.42c4.87-1.36,9.62-2.56,14.3-3.62,105.23-23.99,163.5,23.58,187.64,51.65,3.83,4.45,6.81,8.42,8.97,11.53Z"/>
    </g>
    <g>
      <path class="cls-41" d="M1447.7,1546.48c0,.62.04,1.24.11,1.83.23,1.93.83,3.74,1.71,5.37.69,1.27,1.57,2.43,2.58,3.45,2.73,2.73,6.49,4.41,10.65,4.41h211.81c8.32,0,15.06-6.74,15.06-15.06,0-4.16-1.68-7.93-4.41-10.65-2.73-2.73-6.49-4.41-10.65-4.41h-211.81c-8.32,0-15.06,6.74-15.06,15.06Z"/>
      <path class="cls-41" d="M1463.86,1528.7h72.62c1.27,0,2.31-1.04,2.31-2.31h0c0-1.27-1.04-2.31-2.31-2.31h-72.62c-1.27,0-2.31,1.04-2.31,2.31h0c0,1.27,1.04,2.31,2.31,2.31Z"/>
      <rect class="cls-4" x="1467.87" y="1528.7" width="7.87" height="2.73" transform="translate(2943.61 3060.12) rotate(180)"/>
      <path class="cls-4" d="M1449.53,1553.69c.69,1.27,1.57,2.43,2.58,3.45,2.73,2.73,6.49,4.41,10.65,4.41h44.87v-7.86h-58.1Z"/>
      <path class="cls-49" d="M1717.68,1542.07v8.82c0,.97-.13,1.91-.37,2.79-1.22,4.53-5.36,7.86-10.28,7.86h-220.64c-4.92,0-9.05-3.33-10.28-7.86-.24-.89-.37-1.83-.37-2.79v-8.82c0-5.88,4.76-10.65,10.65-10.65h220.64c5.88,0,10.65,4.77,10.65,10.65Z"/>
      <path class="cls-42" d="M1717.31,1553.69c-1.22,4.53-5.36,7.86-10.28,7.86h-220.64c-4.92,0-9.05-3.33-10.28-7.86h241.19Z"/>
      <g>
        <path class="cls-35" d="M1695.76,1546.54c0,4.68,1.7,8.86,4.38,11.63.06.06.12.12.18.18,2.07,2.06,4.7,3.3,7.56,3.3,4.47,0,15.54-6.74,22.4-11.21,3.42-2.23,5.79-3.9,5.79-3.9,0,0-2.38-1.67-5.79-3.9-6.86-4.48-17.93-11.22-22.4-11.22-1.29,0-2.54.25-3.71.72-1.97.79-3.72,2.19-5.11,4.03-1.53,2.01-2.61,4.55-3.07,7.37,0,.03-.01.06-.01.1-.15.93-.22,1.91-.22,2.9Z"/>
        <path class="cls-29" d="M1695.76,1546.54c0,4.68,1.7,8.86,4.38,11.63l33.96-11.68-38.12-2.85c-.15.93-.22,1.91-.22,2.9Z"/>
        <path class="cls-52" d="M1699.07,1536.17l33.88,9.25-28.77-13.28c-1.97.79-3.72,2.19-5.11,4.03Z"/>
        <path class="cls-10" d="M1728.07,1546.54c0,1.8.92,3.33,2.21,3.9,3.42-2.23,5.79-3.9,5.79-3.9,0,0-2.38-1.67-5.79-3.9-1.29.56-2.21,2.1-2.21,3.9Z"/>
      </g>
    </g>
    <g>
      <path class="cls-19" d="M386.53,1506.68c8.86.02,18.09-1,27.52-3.15,35.72-8.14,73.86-32.39,101.85-77.09,0,0-5.86-30.02-22.7-53.54h-.01c-11.68-16.3-31.87-35.66-55.96-35.78-15.52-.08-26.5,5.57-35.08,12.91-14.6,12.47-22.29,29.84-33.61,32.35-11.16,2.47-23.23,8.43-33.42,16.92-1.67,1.39-3.29,2.84-4.84,4.37h0c-.65.64-1.28,1.27-1.91,1.92-.02.01-.03.03-.04.04-13.71,14.38-21.79,33.94-14.94,55.51,1.58,5,4.04,10.19,7.58,15.53,12.57,19.05,37.01,29.94,65.56,30Z"/>
      <path class="cls-24" d="M425.65,1349.63s20.89-7.3,30.75,5.33c9.86,12.64-3.43,20.46-14.57,18.45-11.14-2.01-26.62-16.88-16.18-23.78Z"/>
      <path class="cls-22" d="M313.38,1461.15c1.58,5,4.55,9.9,7.58,15.54,21.42,39.83,51.4,56.56,74.18,62.03,25.18,6.04,72.33-4.16,91.07-16.28,30.78-19.88,40.16-55.29,29.67-96,0,0-5.86-30.02-22.7-53.53h0s-13.4,68.87-91.9,91.61c-35.66,10.33-65.71,5.25-87.91-3.37Z"/>
      <g>
        <path class="cls-53" d="M343.8,1362.5c.4-12.53,13.86-16.85,24.84-24.85,10.99-7.99,24.02-28.56,24.02-28.56,0,0-17.54.67-38.44,6.79-20.9,6.11-10.41,46.62-10.41,46.62Z"/>
        <path class="cls-23" d="M343.8,1362.5c-1.55-13,4.52-31.34,12.59-37.02,8.07-5.68,36.26-16.38,36.26-16.38,0,0-17.54.67-38.44,6.79-20.9,6.11-10.41,46.62-10.41,46.62Z"/>
      </g>
      <path class="cls-22" d="M368.54,1382.39c-11.16,2.47-23.23,8.43-33.42,16.92,18.38-13.78,47.74-9.09,49.48-17.67,1.85-9.2,16.97-30.79,17.55-31.61-14.6,12.47-22.29,29.84-33.61,32.35Z"/>
      <path class="cls-46" d="M328.37,1405.6c.53-.47,1.16-1.1,1.91-1.91-.65.63-1.28,1.26-1.91,1.91Z"/>
      <path class="cls-23" d="M383.31,1382.63h0c-9.12-14.02-27.06-21.07-40.5-24.5-10.7-2.74-26.19-4.78-33.62-5.66-1.57-.19-2.56,1.63-1.56,2.86l2.64,3.24c2.64,3.25,6.57,5.19,10.76,5.3,12.88.32,41.8,2.92,56.41,19.42,1.64,1.86,7.51,1.85,5.87-.65Z"/>
    </g>
    <g>
      <g>
        <rect class="cls-40" x="553.51" y="1111.02" width="15.04" height="177.27" transform="translate(-183.19 104.18) rotate(-9.13)"/>
        <polygon class="cls-39" points="542.03 1081.33 539.55 1113.34 554.4 1110.95 542.03 1081.33"/>
      </g>
      <g>
        <rect class="cls-40" x="684.19" y="1125.61" width="15.04" height="177.27" transform="translate(233.41 -105.91) rotate(10.52)"/>
        <polygon class="cls-39" points="713.6 1096.42 700.5 1125.73 715.29 1128.48 713.6 1096.42"/>
      </g>
      <g>
        <rect class="cls-40" x="665.44" y="1074.49" width="15.04" height="177.27" transform="translate(223.78 -103.36) rotate(10.52)"/>
        <polygon class="cls-39" points="694.85 1045.3 681.75 1074.61 696.54 1077.36 694.85 1045.3"/>
      </g>
      <g>
        <rect class="cls-19" x="595.23" y="1184.85" width="118.47" height="170.73"/>
        <rect class="cls-49" x="536" y="1184.85" width="118.47" height="170.73"/>
      </g>
    </g>
    <rect class="cls-53" x="1744.04" y="1086.13" width="143.23" height="129.05" transform="translate(246.92 -318.93) rotate(10.77)"/>
    <rect class="cls-23" x="1744.04" y="1097.68" width="143.23" height="18.59" transform="translate(238.77 -319.71) rotate(10.77)"/>
    <g>
      <rect class="cls-35" x="824.52" y="1069.08" width="143.23" height="129.05" transform="translate(-239.28 239.77) rotate(-13.46)"/>
      <rect class="cls-29" x="812.81" y="1070.46" width="143.23" height="28.38" transform="translate(-228.2 235.68) rotate(-13.46)"/>
    </g>
    <g>
      <rect class="cls-8" x="1844.14" y="988.09" width="143.23" height="129.05" transform="translate(-152.86 346.25) rotate(-9.93)"/>
      <rect class="cls-30" x="1835.45" y="988.85" width="143.23" height="28.38" transform="translate(-144.43 344) rotate(-9.93)"/>
    </g>
  </g>
</svg>