<svg width="2811" height="861" viewBox="0 0 2811 861" fill="none" xmlns="http://www.w3.org/2000/svg">
<g filter="url(#filter0_ddiii_34_5)">
<mask id="path-1-outside-1_34_5" maskUnits="userSpaceOnUse" x="40.14" y="36.8398" width="2731" height="776" fill="black">
<rect fill="white" x="40.14" y="36.8398" width="2731" height="776"/>
<path d="M387.98 527.55C373.327 540.11 344.805 563.398 302.415 597.415C246.418 642.422 209.262 664.925 190.945 664.925C188.328 664.925 186.497 664.14 185.45 662.57L87.325 544.82C73.7184 515.513 66.915 496.15 66.915 486.73C66.915 475.217 73.195 465.535 85.755 457.685L113.23 440.415L172.89 426.285C165.563 433.088 158.237 439.63 150.91 445.91C143.06 454.283 138.612 462.918 137.565 471.815C141.228 484.898 155.358 507.663 179.955 540.11C206.122 574.65 223.653 590.612 232.55 587.995C241.447 572.295 258.455 550.577 283.575 522.84L277.295 524.41C280.958 521.793 282.79 517.868 282.79 512.635C282.79 500.598 244.848 451.143 168.965 364.27C93.0817 276.873 55.14 229.773 55.14 222.97C55.14 218.783 56.71 215.643 59.85 213.55L71.625 199.42L157.975 130.34C214.495 85.3332 251.39 62.8298 268.66 62.8298C271.277 62.8298 273.37 63.6148 274.94 65.1848L373.065 182.935C386.672 212.242 393.475 231.605 393.475 241.025C393.475 252.538 386.933 262.22 373.85 270.07L296.135 289.695L295.35 284.2C301.107 278.443 307.91 273.21 315.76 268.5C318.377 267.453 320.208 263.005 321.255 255.155C317.068 241.548 298.752 220.877 266.305 193.14C233.858 164.88 211.617 152.058 199.58 154.675C192.777 156.245 185.45 163.31 177.6 175.87C169.75 187.907 165.825 197.588 165.825 204.915C165.825 211.195 168.18 217.475 172.89 223.755C205.337 265.622 256.623 323.973 326.75 398.81C377.513 452.713 402.895 488.038 402.895 504.785C402.895 510.542 400.54 515.513 395.83 519.7L387.195 521.27L387.98 527.55Z"/>
<path d="M460.335 579.36L454.84 187.645C438.617 193.402 422.655 204.915 406.955 222.185L429.72 106.005C444.897 107.575 454.578 109.668 458.765 112.285C460.858 113.332 474.988 113.855 501.155 113.855C575.992 113.855 646.38 109.93 712.32 102.08L741.365 226.895C733.515 213.288 722.263 202.037 707.61 193.14C692.957 183.72 677.78 179.272 662.08 179.795L541.19 182.15C540.667 184.767 540.405 187.122 540.405 189.215L541.975 348.57L640.885 347.785C654.492 345.692 666.79 330.777 677.78 303.04L675.425 451.405C666.528 422.622 650.828 408.23 628.325 408.23L542.76 409.015L544.33 583.285L662.08 585.64C677.78 586.163 692.957 581.977 707.61 573.08C722.263 563.66 733.515 552.147 741.365 538.54L712.32 663.355C646.38 655.505 575.992 651.58 501.155 651.58C474.988 651.58 460.858 652.103 458.765 653.15C454.578 655.767 444.897 657.86 429.72 659.43L406.955 543.25C424.748 562.613 442.542 574.65 460.335 579.36Z"/>
<path d="M960.699 333.655L951.279 103.65L897.899 128.77L898.684 325.805L937.149 354.065L960.699 333.655ZM974.044 385.465C978.231 425.762 993.669 483.59 1020.36 558.95C1048.62 638.497 1069.29 675.915 1082.37 671.205C1095.98 672.252 1112.73 679.578 1132.61 693.185C1157.73 710.455 1178.67 722.492 1195.41 729.295C1190.7 729.818 1185.73 730.08 1180.5 730.08C1161.66 730.08 1133.4 725.37 1095.72 715.95C1058.56 706.53 1030.56 701.82 1011.72 701.82C1003.87 701.82 996.809 702.605 990.529 704.175C994.192 698.942 996.024 691.092 996.024 680.625C996.024 656.552 985.296 612.592 963.839 548.745C937.149 469.198 922.496 423.668 919.879 412.155L894.759 372.905L899.469 507.925L869.639 462.395L866.499 456.115L871.209 661L846.089 621.75L828.819 810.15L772.299 485.945L800.559 504.785L770.729 310.105L809.979 327.375L777.009 51.8398H897.899V94.2298L957.559 62.8298L1053.33 179.795L1036.06 357.205L974.044 385.465Z"/>
<path d="M1406.43 345.43L1316.94 651.58C1316.94 651.58 1310.92 654.982 1298.89 661.785C1287.37 669.112 1277.95 672.775 1270.63 672.775C1229.28 673.822 1196.31 687.428 1171.72 713.595C1171.72 713.595 1172.24 713.072 1173.29 712.025C1187.94 694.755 1206.26 676.438 1228.24 657.075L1137.18 345.43C1119.91 286.817 1109.18 252.538 1104.99 242.595C1087.72 202.298 1065.74 175.608 1039.05 162.525C1036.44 161.478 1030.42 158.338 1021 153.105L1018.64 151.535C1092.96 160.432 1143.98 163.833 1171.72 161.74L1228.24 364.27C1242.89 416.08 1257.28 466.582 1271.41 515.775L1391.52 106.005C1411.93 108.098 1437.83 107.575 1469.23 104.435L1546.95 96.5848C1506.65 125.368 1475.77 161.74 1454.32 205.7C1442.8 228.727 1426.84 275.303 1406.43 345.43Z"/>
<path d="M1643.38 613.115C1646 628.815 1658.29 641.113 1680.27 650.01L1516.21 647.655C1544.99 638.758 1559.38 623.058 1559.38 600.555L1555.46 177.44C1553.37 159.123 1543.68 146.04 1526.41 138.19H1657.51C1645.47 147.61 1639.45 158.6 1639.45 171.16L1643.38 613.115Z"/>
<path d="M2028.91 540.11C2032.05 553.717 2016.61 574.388 1982.6 602.125C1941.25 635.618 1901.22 655.243 1862.49 661L1838.94 657.075C1815.39 637.712 1792.63 618.348 1770.65 598.985C1730.87 563.922 1708.63 536.185 1703.92 515.775C1702.35 479.665 1701.57 452.452 1701.57 434.135C1701.57 367.148 1703.66 295.713 1707.85 219.83C1769.08 173.253 1832.66 137.667 1898.6 113.07H1918.23L1988.09 200.205C1996.47 208.578 2003.27 220.877 2008.5 237.1L1899.39 321.095C1912.99 302.778 1919.8 286.817 1919.8 273.21C1919.8 269.547 1919.27 265.883 1918.23 262.22C1918.75 260.127 1919.01 257.772 1919.01 255.155C1919.01 246.782 1909.85 218.26 1891.54 169.59C1876.88 175.87 1857 185.29 1831.88 197.85C1817.75 207.27 1808.59 219.307 1804.4 233.96L1802.83 558.165C1805.97 567.062 1814.61 577.79 1828.74 590.35C1841.3 601.863 1852.55 609.975 1862.49 614.685C1901.74 602.125 1925.29 588.518 1933.14 573.865L1932.36 499.29L2027.34 519.7L2028.91 540.11Z"/>
<path d="M2112.36 579.36L2106.87 187.645C2090.64 193.402 2074.68 204.915 2058.98 222.185L2081.75 106.005C2096.92 107.575 2106.6 109.668 2110.79 112.285C2112.88 113.332 2127.01 113.855 2153.18 113.855C2228.02 113.855 2298.41 109.93 2364.35 102.08L2393.39 226.895C2385.54 213.288 2374.29 202.037 2359.64 193.14C2344.98 183.72 2329.81 179.272 2314.11 179.795L2193.22 182.15C2192.69 184.767 2192.43 187.122 2192.43 189.215L2194 348.57L2292.91 347.785C2306.52 345.692 2318.82 330.777 2329.81 303.04L2327.45 451.405C2318.55 422.622 2302.85 408.23 2280.35 408.23L2194.79 409.015L2196.36 583.285L2314.11 585.64C2329.81 586.163 2344.98 581.977 2359.64 573.08C2374.29 563.66 2385.54 552.147 2393.39 538.54L2364.35 663.355C2298.41 655.505 2228.02 651.58 2153.18 651.58C2127.01 651.58 2112.88 652.103 2110.79 653.15C2106.6 655.767 2096.92 657.86 2081.75 659.43L2058.98 543.25C2076.77 562.613 2094.57 574.65 2112.36 579.36Z"/>
<path d="M2740.68 527.55C2726.03 540.11 2697.51 563.398 2655.12 597.415C2599.12 642.422 2561.96 664.925 2543.65 664.925C2541.03 664.925 2539.2 664.14 2538.15 662.57L2440.03 544.82C2426.42 515.513 2419.62 496.15 2419.62 486.73C2419.62 475.217 2425.9 465.535 2438.46 457.685L2465.93 440.415L2525.59 426.285C2518.26 433.088 2510.94 439.63 2503.61 445.91C2495.76 454.283 2491.31 462.918 2490.27 471.815C2493.93 484.898 2508.06 507.663 2532.66 540.11C2558.82 574.65 2576.35 590.612 2585.25 587.995C2594.15 572.295 2611.16 550.577 2636.28 522.84L2630 524.41C2633.66 521.793 2635.49 517.868 2635.49 512.635C2635.49 500.598 2597.55 451.143 2521.67 364.27C2445.78 276.873 2407.84 229.773 2407.84 222.97C2407.84 218.783 2409.41 215.643 2412.55 213.55L2424.33 199.42L2510.68 130.34C2567.2 85.3332 2604.09 62.8298 2621.36 62.8298C2623.98 62.8298 2626.07 63.6148 2627.64 65.1848L2725.77 182.935C2739.37 212.242 2746.18 231.605 2746.18 241.025C2746.18 252.538 2739.63 262.22 2726.55 270.07L2648.84 289.695L2648.05 284.2C2653.81 278.443 2660.61 273.21 2668.46 268.5C2671.08 267.453 2672.91 263.005 2673.96 255.155C2669.77 241.548 2651.45 220.877 2619.01 193.14C2586.56 164.88 2564.32 152.058 2552.28 154.675C2545.48 156.245 2538.15 163.31 2530.3 175.87C2522.45 187.907 2518.53 197.588 2518.53 204.915C2518.53 211.195 2520.88 217.475 2525.59 223.755C2558.04 265.622 2609.32 323.973 2679.45 398.81C2730.21 452.713 2755.6 488.038 2755.6 504.785C2755.6 510.542 2753.24 515.513 2748.53 519.7L2739.9 521.27L2740.68 527.55Z"/>
</mask>
<path d="M387.98 527.55C373.327 540.11 344.805 563.398 302.415 597.415C246.418 642.422 209.262 664.925 190.945 664.925C188.328 664.925 186.497 664.14 185.45 662.57L87.325 544.82C73.7184 515.513 66.915 496.15 66.915 486.73C66.915 475.217 73.195 465.535 85.755 457.685L113.23 440.415L172.89 426.285C165.563 433.088 158.237 439.63 150.91 445.91C143.06 454.283 138.612 462.918 137.565 471.815C141.228 484.898 155.358 507.663 179.955 540.11C206.122 574.65 223.653 590.612 232.55 587.995C241.447 572.295 258.455 550.577 283.575 522.84L277.295 524.41C280.958 521.793 282.79 517.868 282.79 512.635C282.79 500.598 244.848 451.143 168.965 364.27C93.0817 276.873 55.14 229.773 55.14 222.97C55.14 218.783 56.71 215.643 59.85 213.55L71.625 199.42L157.975 130.34C214.495 85.3332 251.39 62.8298 268.66 62.8298C271.277 62.8298 273.37 63.6148 274.94 65.1848L373.065 182.935C386.672 212.242 393.475 231.605 393.475 241.025C393.475 252.538 386.933 262.22 373.85 270.07L296.135 289.695L295.35 284.2C301.107 278.443 307.91 273.21 315.76 268.5C318.377 267.453 320.208 263.005 321.255 255.155C317.068 241.548 298.752 220.877 266.305 193.14C233.858 164.88 211.617 152.058 199.58 154.675C192.777 156.245 185.45 163.31 177.6 175.87C169.75 187.907 165.825 197.588 165.825 204.915C165.825 211.195 168.18 217.475 172.89 223.755C205.337 265.622 256.623 323.973 326.75 398.81C377.513 452.713 402.895 488.038 402.895 504.785C402.895 510.542 400.54 515.513 395.83 519.7L387.195 521.27L387.98 527.55Z" fill="#FFE600"/>
<path d="M460.335 579.36L454.84 187.645C438.617 193.402 422.655 204.915 406.955 222.185L429.72 106.005C444.897 107.575 454.578 109.668 458.765 112.285C460.858 113.332 474.988 113.855 501.155 113.855C575.992 113.855 646.38 109.93 712.32 102.08L741.365 226.895C733.515 213.288 722.263 202.037 707.61 193.14C692.957 183.72 677.78 179.272 662.08 179.795L541.19 182.15C540.667 184.767 540.405 187.122 540.405 189.215L541.975 348.57L640.885 347.785C654.492 345.692 666.79 330.777 677.78 303.04L675.425 451.405C666.528 422.622 650.828 408.23 628.325 408.23L542.76 409.015L544.33 583.285L662.08 585.64C677.78 586.163 692.957 581.977 707.61 573.08C722.263 563.66 733.515 552.147 741.365 538.54L712.32 663.355C646.38 655.505 575.992 651.58 501.155 651.58C474.988 651.58 460.858 652.103 458.765 653.15C454.578 655.767 444.897 657.86 429.72 659.43L406.955 543.25C424.748 562.613 442.542 574.65 460.335 579.36Z" fill="#FFE600"/>
<path d="M960.699 333.655L951.279 103.65L897.899 128.77L898.684 325.805L937.149 354.065L960.699 333.655ZM974.044 385.465C978.231 425.762 993.669 483.59 1020.36 558.95C1048.62 638.497 1069.29 675.915 1082.37 671.205C1095.98 672.252 1112.73 679.578 1132.61 693.185C1157.73 710.455 1178.67 722.492 1195.41 729.295C1190.7 729.818 1185.73 730.08 1180.5 730.08C1161.66 730.08 1133.4 725.37 1095.72 715.95C1058.56 706.53 1030.56 701.82 1011.72 701.82C1003.87 701.82 996.809 702.605 990.529 704.175C994.192 698.942 996.024 691.092 996.024 680.625C996.024 656.552 985.296 612.592 963.839 548.745C937.149 469.198 922.496 423.668 919.879 412.155L894.759 372.905L899.469 507.925L869.639 462.395L866.499 456.115L871.209 661L846.089 621.75L828.819 810.15L772.299 485.945L800.559 504.785L770.729 310.105L809.979 327.375L777.009 51.8398H897.899V94.2298L957.559 62.8298L1053.33 179.795L1036.06 357.205L974.044 385.465Z" fill="#FFE600"/>
<path d="M1406.43 345.43L1316.94 651.58C1316.94 651.58 1310.92 654.982 1298.89 661.785C1287.37 669.112 1277.95 672.775 1270.63 672.775C1229.28 673.822 1196.31 687.428 1171.72 713.595C1171.72 713.595 1172.24 713.072 1173.29 712.025C1187.94 694.755 1206.26 676.438 1228.24 657.075L1137.18 345.43C1119.91 286.817 1109.18 252.538 1104.99 242.595C1087.72 202.298 1065.74 175.608 1039.05 162.525C1036.44 161.478 1030.42 158.338 1021 153.105L1018.64 151.535C1092.96 160.432 1143.98 163.833 1171.72 161.74L1228.24 364.27C1242.89 416.08 1257.28 466.582 1271.41 515.775L1391.52 106.005C1411.93 108.098 1437.83 107.575 1469.23 104.435L1546.95 96.5848C1506.65 125.368 1475.77 161.74 1454.32 205.7C1442.8 228.727 1426.84 275.303 1406.43 345.43Z" fill="#FFE600"/>
<path d="M1643.38 613.115C1646 628.815 1658.29 641.113 1680.27 650.01L1516.21 647.655C1544.99 638.758 1559.38 623.058 1559.38 600.555L1555.46 177.44C1553.37 159.123 1543.68 146.04 1526.41 138.19H1657.51C1645.47 147.61 1639.45 158.6 1639.45 171.16L1643.38 613.115Z" fill="#FFE600"/>
<path d="M2028.91 540.11C2032.05 553.717 2016.61 574.388 1982.6 602.125C1941.25 635.618 1901.22 655.243 1862.49 661L1838.94 657.075C1815.39 637.712 1792.63 618.348 1770.65 598.985C1730.87 563.922 1708.63 536.185 1703.92 515.775C1702.35 479.665 1701.57 452.452 1701.57 434.135C1701.57 367.148 1703.66 295.713 1707.85 219.83C1769.08 173.253 1832.66 137.667 1898.6 113.07H1918.23L1988.09 200.205C1996.47 208.578 2003.27 220.877 2008.5 237.1L1899.39 321.095C1912.99 302.778 1919.8 286.817 1919.8 273.21C1919.8 269.547 1919.27 265.883 1918.23 262.22C1918.75 260.127 1919.01 257.772 1919.01 255.155C1919.01 246.782 1909.85 218.26 1891.54 169.59C1876.88 175.87 1857 185.29 1831.88 197.85C1817.75 207.27 1808.59 219.307 1804.4 233.96L1802.83 558.165C1805.97 567.062 1814.61 577.79 1828.74 590.35C1841.3 601.863 1852.55 609.975 1862.49 614.685C1901.74 602.125 1925.29 588.518 1933.14 573.865L1932.36 499.29L2027.34 519.7L2028.91 540.11Z" fill="#FFE600"/>
<path d="M2112.36 579.36L2106.87 187.645C2090.64 193.402 2074.68 204.915 2058.98 222.185L2081.75 106.005C2096.92 107.575 2106.6 109.668 2110.79 112.285C2112.88 113.332 2127.01 113.855 2153.18 113.855C2228.02 113.855 2298.41 109.93 2364.35 102.08L2393.39 226.895C2385.54 213.288 2374.29 202.037 2359.64 193.14C2344.98 183.72 2329.81 179.272 2314.11 179.795L2193.22 182.15C2192.69 184.767 2192.43 187.122 2192.43 189.215L2194 348.57L2292.91 347.785C2306.52 345.692 2318.82 330.777 2329.81 303.04L2327.45 451.405C2318.55 422.622 2302.85 408.23 2280.35 408.23L2194.79 409.015L2196.36 583.285L2314.11 585.64C2329.81 586.163 2344.98 581.977 2359.64 573.08C2374.29 563.66 2385.54 552.147 2393.39 538.54L2364.35 663.355C2298.41 655.505 2228.02 651.58 2153.18 651.58C2127.01 651.58 2112.88 652.103 2110.79 653.15C2106.6 655.767 2096.92 657.86 2081.75 659.43L2058.98 543.25C2076.77 562.613 2094.57 574.65 2112.36 579.36Z" fill="#FFE600"/>
<path d="M2740.68 527.55C2726.03 540.11 2697.51 563.398 2655.12 597.415C2599.12 642.422 2561.96 664.925 2543.65 664.925C2541.03 664.925 2539.2 664.14 2538.15 662.57L2440.03 544.82C2426.42 515.513 2419.62 496.15 2419.62 486.73C2419.62 475.217 2425.9 465.535 2438.46 457.685L2465.93 440.415L2525.59 426.285C2518.26 433.088 2510.94 439.63 2503.61 445.91C2495.76 454.283 2491.31 462.918 2490.27 471.815C2493.93 484.898 2508.06 507.663 2532.66 540.11C2558.82 574.65 2576.35 590.612 2585.25 587.995C2594.15 572.295 2611.16 550.577 2636.28 522.84L2630 524.41C2633.66 521.793 2635.49 517.868 2635.49 512.635C2635.49 500.598 2597.55 451.143 2521.67 364.27C2445.78 276.873 2407.84 229.773 2407.84 222.97C2407.84 218.783 2409.41 215.643 2412.55 213.55L2424.33 199.42L2510.68 130.34C2567.2 85.3332 2604.09 62.8298 2621.36 62.8298C2623.98 62.8298 2626.07 63.6148 2627.64 65.1848L2725.77 182.935C2739.37 212.242 2746.18 231.605 2746.18 241.025C2746.18 252.538 2739.63 262.22 2726.55 270.07L2648.84 289.695L2648.05 284.2C2653.81 278.443 2660.61 273.21 2668.46 268.5C2671.08 267.453 2672.91 263.005 2673.96 255.155C2669.77 241.548 2651.45 220.877 2619.01 193.14C2586.56 164.88 2564.32 152.058 2552.28 154.675C2545.48 156.245 2538.15 163.31 2530.3 175.87C2522.45 187.907 2518.53 197.588 2518.53 204.915C2518.53 211.195 2520.88 217.475 2525.59 223.755C2558.04 265.622 2609.32 323.973 2679.45 398.81C2730.21 452.713 2755.6 488.038 2755.6 504.785C2755.6 510.542 2753.24 515.513 2748.53 519.7L2739.9 521.27L2740.68 527.55Z" fill="#FFE600"/>
<path d="M387.98 527.55C373.327 540.11 344.805 563.398 302.415 597.415C246.418 642.422 209.262 664.925 190.945 664.925C188.328 664.925 186.497 664.14 185.45 662.57L87.325 544.82C73.7184 515.513 66.915 496.15 66.915 486.73C66.915 475.217 73.195 465.535 85.755 457.685L113.23 440.415L172.89 426.285C165.563 433.088 158.237 439.63 150.91 445.91C143.06 454.283 138.612 462.918 137.565 471.815C141.228 484.898 155.358 507.663 179.955 540.11C206.122 574.65 223.653 590.612 232.55 587.995C241.447 572.295 258.455 550.577 283.575 522.84L277.295 524.41C280.958 521.793 282.79 517.868 282.79 512.635C282.79 500.598 244.848 451.143 168.965 364.27C93.0817 276.873 55.14 229.773 55.14 222.97C55.14 218.783 56.71 215.643 59.85 213.55L71.625 199.42L157.975 130.34C214.495 85.3332 251.39 62.8298 268.66 62.8298C271.277 62.8298 273.37 63.6148 274.94 65.1848L373.065 182.935C386.672 212.242 393.475 231.605 393.475 241.025C393.475 252.538 386.933 262.22 373.85 270.07L296.135 289.695L295.35 284.2C301.107 278.443 307.91 273.21 315.76 268.5C318.377 267.453 320.208 263.005 321.255 255.155C317.068 241.548 298.752 220.877 266.305 193.14C233.858 164.88 211.617 152.058 199.58 154.675C192.777 156.245 185.45 163.31 177.6 175.87C169.75 187.907 165.825 197.588 165.825 204.915C165.825 211.195 168.18 217.475 172.89 223.755C205.337 265.622 256.623 323.973 326.75 398.81C377.513 452.713 402.895 488.038 402.895 504.785C402.895 510.542 400.54 515.513 395.83 519.7L387.195 521.27L387.98 527.55Z" stroke="#452C06" stroke-width="30" mask="url(#path-1-outside-1_34_5)"/>
<path d="M460.335 579.36L454.84 187.645C438.617 193.402 422.655 204.915 406.955 222.185L429.72 106.005C444.897 107.575 454.578 109.668 458.765 112.285C460.858 113.332 474.988 113.855 501.155 113.855C575.992 113.855 646.38 109.93 712.32 102.08L741.365 226.895C733.515 213.288 722.263 202.037 707.61 193.14C692.957 183.72 677.78 179.272 662.08 179.795L541.19 182.15C540.667 184.767 540.405 187.122 540.405 189.215L541.975 348.57L640.885 347.785C654.492 345.692 666.79 330.777 677.78 303.04L675.425 451.405C666.528 422.622 650.828 408.23 628.325 408.23L542.76 409.015L544.33 583.285L662.08 585.64C677.78 586.163 692.957 581.977 707.61 573.08C722.263 563.66 733.515 552.147 741.365 538.54L712.32 663.355C646.38 655.505 575.992 651.58 501.155 651.58C474.988 651.58 460.858 652.103 458.765 653.15C454.578 655.767 444.897 657.86 429.72 659.43L406.955 543.25C424.748 562.613 442.542 574.65 460.335 579.36Z" stroke="#452C06" stroke-width="30" mask="url(#path-1-outside-1_34_5)"/>
<path d="M960.699 333.655L951.279 103.65L897.899 128.77L898.684 325.805L937.149 354.065L960.699 333.655ZM974.044 385.465C978.231 425.762 993.669 483.59 1020.36 558.95C1048.62 638.497 1069.29 675.915 1082.37 671.205C1095.98 672.252 1112.73 679.578 1132.61 693.185C1157.73 710.455 1178.67 722.492 1195.41 729.295C1190.7 729.818 1185.73 730.08 1180.5 730.08C1161.66 730.08 1133.4 725.37 1095.72 715.95C1058.56 706.53 1030.56 701.82 1011.72 701.82C1003.87 701.82 996.809 702.605 990.529 704.175C994.192 698.942 996.024 691.092 996.024 680.625C996.024 656.552 985.296 612.592 963.839 548.745C937.149 469.198 922.496 423.668 919.879 412.155L894.759 372.905L899.469 507.925L869.639 462.395L866.499 456.115L871.209 661L846.089 621.75L828.819 810.15L772.299 485.945L800.559 504.785L770.729 310.105L809.979 327.375L777.009 51.8398H897.899V94.2298L957.559 62.8298L1053.33 179.795L1036.06 357.205L974.044 385.465Z" stroke="#452C06" stroke-width="30" mask="url(#path-1-outside-1_34_5)"/>
<path d="M1406.43 345.43L1316.94 651.58C1316.94 651.58 1310.92 654.982 1298.89 661.785C1287.37 669.112 1277.95 672.775 1270.63 672.775C1229.28 673.822 1196.31 687.428 1171.72 713.595C1171.72 713.595 1172.24 713.072 1173.29 712.025C1187.94 694.755 1206.26 676.438 1228.24 657.075L1137.18 345.43C1119.91 286.817 1109.18 252.538 1104.99 242.595C1087.72 202.298 1065.74 175.608 1039.05 162.525C1036.44 161.478 1030.42 158.338 1021 153.105L1018.64 151.535C1092.96 160.432 1143.98 163.833 1171.72 161.74L1228.24 364.27C1242.89 416.08 1257.28 466.582 1271.41 515.775L1391.52 106.005C1411.93 108.098 1437.83 107.575 1469.23 104.435L1546.95 96.5848C1506.65 125.368 1475.77 161.74 1454.32 205.7C1442.8 228.727 1426.84 275.303 1406.43 345.43Z" stroke="#452C06" stroke-width="30" mask="url(#path-1-outside-1_34_5)"/>
<path d="M1643.38 613.115C1646 628.815 1658.29 641.113 1680.27 650.01L1516.21 647.655C1544.99 638.758 1559.38 623.058 1559.38 600.555L1555.46 177.44C1553.37 159.123 1543.68 146.04 1526.41 138.19H1657.51C1645.47 147.61 1639.45 158.6 1639.45 171.16L1643.38 613.115Z" stroke="#452C06" stroke-width="30" mask="url(#path-1-outside-1_34_5)"/>
<path d="M2028.91 540.11C2032.05 553.717 2016.61 574.388 1982.6 602.125C1941.25 635.618 1901.22 655.243 1862.49 661L1838.94 657.075C1815.39 637.712 1792.63 618.348 1770.65 598.985C1730.87 563.922 1708.63 536.185 1703.92 515.775C1702.35 479.665 1701.57 452.452 1701.57 434.135C1701.57 367.148 1703.66 295.713 1707.85 219.83C1769.08 173.253 1832.66 137.667 1898.6 113.07H1918.23L1988.09 200.205C1996.47 208.578 2003.27 220.877 2008.5 237.1L1899.39 321.095C1912.99 302.778 1919.8 286.817 1919.8 273.21C1919.8 269.547 1919.27 265.883 1918.23 262.22C1918.75 260.127 1919.01 257.772 1919.01 255.155C1919.01 246.782 1909.85 218.26 1891.54 169.59C1876.88 175.87 1857 185.29 1831.88 197.85C1817.75 207.27 1808.59 219.307 1804.4 233.96L1802.83 558.165C1805.97 567.062 1814.61 577.79 1828.74 590.35C1841.3 601.863 1852.55 609.975 1862.49 614.685C1901.74 602.125 1925.29 588.518 1933.14 573.865L1932.36 499.29L2027.34 519.7L2028.91 540.11Z" stroke="#452C06" stroke-width="30" mask="url(#path-1-outside-1_34_5)"/>
<path d="M2112.36 579.36L2106.87 187.645C2090.64 193.402 2074.68 204.915 2058.98 222.185L2081.75 106.005C2096.92 107.575 2106.6 109.668 2110.79 112.285C2112.88 113.332 2127.01 113.855 2153.18 113.855C2228.02 113.855 2298.41 109.93 2364.35 102.08L2393.39 226.895C2385.54 213.288 2374.29 202.037 2359.64 193.14C2344.98 183.72 2329.81 179.272 2314.11 179.795L2193.22 182.15C2192.69 184.767 2192.43 187.122 2192.43 189.215L2194 348.57L2292.91 347.785C2306.52 345.692 2318.82 330.777 2329.81 303.04L2327.45 451.405C2318.55 422.622 2302.85 408.23 2280.35 408.23L2194.79 409.015L2196.36 583.285L2314.11 585.64C2329.81 586.163 2344.98 581.977 2359.64 573.08C2374.29 563.66 2385.54 552.147 2393.39 538.54L2364.35 663.355C2298.41 655.505 2228.02 651.58 2153.18 651.58C2127.01 651.58 2112.88 652.103 2110.79 653.15C2106.6 655.767 2096.92 657.86 2081.75 659.43L2058.98 543.25C2076.77 562.613 2094.57 574.65 2112.36 579.36Z" stroke="#452C06" stroke-width="30" mask="url(#path-1-outside-1_34_5)"/>
<path d="M2740.68 527.55C2726.03 540.11 2697.51 563.398 2655.12 597.415C2599.12 642.422 2561.96 664.925 2543.65 664.925C2541.03 664.925 2539.2 664.14 2538.15 662.57L2440.03 544.82C2426.42 515.513 2419.62 496.15 2419.62 486.73C2419.62 475.217 2425.9 465.535 2438.46 457.685L2465.93 440.415L2525.59 426.285C2518.26 433.088 2510.94 439.63 2503.61 445.91C2495.76 454.283 2491.31 462.918 2490.27 471.815C2493.93 484.898 2508.06 507.663 2532.66 540.11C2558.82 574.65 2576.35 590.612 2585.25 587.995C2594.15 572.295 2611.16 550.577 2636.28 522.84L2630 524.41C2633.66 521.793 2635.49 517.868 2635.49 512.635C2635.49 500.598 2597.55 451.143 2521.67 364.27C2445.78 276.873 2407.84 229.773 2407.84 222.97C2407.84 218.783 2409.41 215.643 2412.55 213.55L2424.33 199.42L2510.68 130.34C2567.2 85.3332 2604.09 62.8298 2621.36 62.8298C2623.98 62.8298 2626.07 63.6148 2627.64 65.1848L2725.77 182.935C2739.37 212.242 2746.18 231.605 2746.18 241.025C2746.18 252.538 2739.63 262.22 2726.55 270.07L2648.84 289.695L2648.05 284.2C2653.81 278.443 2660.61 273.21 2668.46 268.5C2671.08 267.453 2672.91 263.005 2673.96 255.155C2669.77 241.548 2651.45 220.877 2619.01 193.14C2586.56 164.88 2564.32 152.058 2552.28 154.675C2545.48 156.245 2538.15 163.31 2530.3 175.87C2522.45 187.907 2518.53 197.588 2518.53 204.915C2518.53 211.195 2520.88 217.475 2525.59 223.755C2558.04 265.622 2609.32 323.973 2679.45 398.81C2730.21 452.713 2755.6 488.038 2755.6 504.785C2755.6 510.542 2753.24 515.513 2748.53 519.7L2739.9 521.27L2740.68 527.55Z" stroke="#452C06" stroke-width="30" mask="url(#path-1-outside-1_34_5)"/>
</g>
<defs>
<filter id="filter0_ddiii_34_5" x="0.140015" y="0.839844" width="2810.46" height="859.886" filterUnits="userSpaceOnUse" color-interpolation-filters="sRGB">
<feFlood flood-opacity="0" result="BackgroundImageFix"/>
<feColorMatrix in="SourceAlpha" type="matrix" values="0 0 0 0 0 0 0 0 0 0 0 0 0 0 0 0 0 0 127 0" result="hardAlpha"/>
<feOffset dy="44"/>
<feGaussianBlur stdDeviation="2"/>
<feComposite in2="hardAlpha" operator="out"/>
<feColorMatrix type="matrix" values="0 0 0 0 0.305882 0 0 0 0 0.345098 0 0 0 0 0.113725 0 0 0 1 0"/>
<feBlend mode="normal" in2="BackgroundImageFix" result="effect1_dropShadow_34_5"/>
<feColorMatrix in="SourceAlpha" type="matrix" values="0 0 0 0 0 0 0 0 0 0 0 0 0 0 0 0 0 0 127 0" result="hardAlpha"/>
<feOffset dy="4"/>
<feGaussianBlur stdDeviation="20"/>
<feComposite in2="hardAlpha" operator="out"/>
<feColorMatrix type="matrix" values="0 0 0 0 0.635726 0 0 0 0 0.305148 0 0 0 0 0 0 0 0 1 0"/>
<feBlend mode="normal" in2="effect1_dropShadow_34_5" result="effect2_dropShadow_34_5"/>
<feBlend mode="normal" in="SourceGraphic" in2="effect2_dropShadow_34_5" result="shape"/>
<feColorMatrix in="SourceAlpha" type="matrix" values="0 0 0 0 0 0 0 0 0 0 0 0 0 0 0 0 0 0 127 0" result="hardAlpha"/>
<feOffset dx="-20.1282" dy="20.1282"/>
<feComposite in2="hardAlpha" operator="arithmetic" k2="-1" k3="1"/>
<feColorMatrix type="matrix" values="0 0 0 0 1 0 0 0 0 0.54 0 0 0 0 0 0 0 0 1 0"/>
<feBlend mode="normal" in2="shape" result="effect3_innerShadow_34_5"/>
<feColorMatrix in="SourceAlpha" type="matrix" values="0 0 0 0 0 0 0 0 0 0 0 0 0 0 0 0 0 0 127 0" result="hardAlpha"/>
<feOffset dx="50"/>
<feComposite in2="hardAlpha" operator="arithmetic" k2="-1" k3="1"/>
<feColorMatrix type="matrix" values="0 0 0 0 0.929412 0 0 0 0 0.117647 0 0 0 0 0 0 0 0 1 0"/>
<feBlend mode="plus-lighter" in2="effect3_innerShadow_34_5" result="effect4_innerShadow_34_5"/>
<feColorMatrix in="SourceAlpha" type="matrix" values="0 0 0 0 0 0 0 0 0 0 0 0 0 0 0 0 0 0 127 0" result="hardAlpha"/>
<feOffset dx="-47"/>
<feComposite in2="hardAlpha" operator="arithmetic" k2="-1" k3="1"/>
<feColorMatrix type="matrix" values="0 0 0 0 1 0 0 0 0 0.54 0 0 0 0 0 0 0 0 1 0"/>
<feBlend mode="normal" in2="effect4_innerShadow_34_5" result="effect5_innerShadow_34_5"/>
</filter>
</defs>
</svg>
