<svg xmlns="http://www.w3.org/2000/svg" viewBox="-0.5 -0.5 24 24" id="Logo-Social-Media-Tiktok--Streamline-Pixel.svg" height="24" width="24"><desc>Logo Social Media Tiktok Streamline Icon: https://streamlinehq.com</desc><title>logo-social-media-tiktok</title><g><path d="M21.9003125 2.1921874999999997H23v18.615624999999998h-1.0996875Z" fill="#ffb900" stroke-width="1"></path><path d="M20.8078125 20.8078125h1.0925v1.0996875h-1.0925Z" fill="#ffb900" stroke-width="1"></path><path d="M20.8078125 1.0925h1.0925v1.0996875h-1.0925Z" fill="#ffb900" stroke-width="1"></path><path d="M2.185 21.9075h18.6228125V23H2.185Z" fill="#ffb900" stroke-width="1"></path><path d="M19.708125000000003 6.569375000000001h-2.185v1.0996875h-1.0996875V6.569375000000001h-1.0925V5.476875h-1.0925V4.3771875h1.0925V3.2846875000000004h-1.0925V2.1921874999999997h-2.1921874999999997v1.0925h-1.0996875v13.145937499999999h-1.0925v1.0925h-2.1921874999999997v-1.0925H6.569375000000001v-4.3843749999999995h1.0925v-1.0925h1.0996875v-3.2846875000000004H5.4696875v1.0925H4.3771875v1.0925H3.2846875000000004v1.0996875H2.185v5.476875h1.0996875v-4.3843749999999995h1.0925v-1.0925h1.0925v-1.0996875h1.0996875v1.0996875H5.4696875v1.0925H4.3771875v4.3843749999999995H3.2846875000000004v2.185h1.0925v-1.0925h1.0925v1.0925h1.0996875v1.0996875H5.4696875v1.0925h6.5765625000000005v-1.0925h1.0925V18.615624999999998h1.0996875v-1.0925h1.0925V9.854062500000001h1.0925v1.0996875h3.2846875000000004v-1.0996875h1.0996875v-2.185h-1.0996875Zm-5.4696875 9.86125h-1.0996875V8.7615625h1.0996875Z" fill="#ffb900" stroke-width="1"></path><path d="M16.423437500000002 5.476875h1.0996875v1.0925h-1.0996875Z" fill="#ffb900" stroke-width="1"></path><path d="M15.3309375 4.3771875h1.0925v1.0996875h-1.0925Z" fill="#ffb900" stroke-width="1"></path><path d="M4.3771875 18.615624999999998h1.0925v1.0996875H4.3771875Z" fill="#ffb900" stroke-width="1"></path><path d="M2.185 0h18.6228125v1.0925H2.185Z" fill="#ffb900" stroke-width="1"></path><path d="M1.0925 20.8078125h1.0925v1.0996875H1.0925Z" fill="#ffb900" stroke-width="1"></path><path d="M1.0925 1.0925h1.0925v1.0996875H1.0925Z" fill="#ffb900" stroke-width="1"></path><path d="M0 2.1921874999999997h1.0925v18.615624999999998H0Z" fill="#ffb900" stroke-width="1"></path></g></svg>