<svg width="1323" height="835" viewBox="0 0 1323 835" fill="none" xmlns="http://www.w3.org/2000/svg">
<g filter="url(#filter0_ddiii_34_11)">
<path d="M436.25 319.43L346.76 625.58C346.76 625.58 340.742 628.982 328.705 635.785C317.192 643.112 307.772 646.775 300.445 646.775C259.102 647.822 226.132 661.429 201.535 687.595C201.535 687.595 202.058 687.072 203.105 686.025C217.758 668.755 236.075 650.439 258.055 631.075L166.995 319.43C149.725 260.817 138.997 226.539 134.81 216.595C117.54 176.299 95.56 149.609 68.87 136.525C66.2533 135.479 60.235 132.339 50.815 127.105L48.46 125.535C122.773 134.432 173.798 137.834 201.535 135.74L258.055 338.27C272.708 390.08 287.1 440.582 301.23 489.775L421.335 80.0053C441.745 82.0986 467.65 81.5753 499.05 78.4353L576.765 70.5853C536.468 99.3686 505.592 135.74 484.135 179.7C472.622 202.727 456.66 249.304 436.25 319.43Z" fill="#FFE600"/>
<path d="M796.442 282.535C812.142 279.919 824.441 267.62 833.337 245.64L830.982 386.155C822.086 357.372 806.386 342.98 783.882 342.98L692.822 343.765V481.925L662.992 436.395L659.852 430.115L664.562 635L639.442 595.75L622.172 784.15L565.652 459.945L593.912 478.785L564.082 284.105L603.332 301.375L570.362 65.0903H571.147L569.577 56.4553C623.481 61.6886 662.992 64.3053 688.112 64.3053C752.482 64.3053 817.637 60.3803 883.577 52.5303L912.622 177.345C904.772 164.262 893.259 153.01 878.082 143.59C863.429 134.17 848.514 129.722 833.337 130.245L690.467 133.385L692.822 283.32L796.442 282.535Z" fill="#FFE600"/>
<path d="M1047.5 447.385L1036.51 463.085L1041.22 438.75L1034.94 429.33L936.025 577.695L945.445 533.735L841.04 667.97L834.76 664.045L990.19 368.885L994.9 394.79L1002.75 381.445L832.405 131.03L899.13 86.2853L995.685 255.845L1007.46 227.585L1047.5 299.805L1086.75 227.585L1098.52 255.845L1195.08 86.2853L1261.8 131.03L1091.46 381.445L1099.31 394.79L1104.02 368.885L1259.45 664.045L1253.17 667.97L1148.76 533.735L1158.18 577.695L1059.27 429.33L1052.99 438.75L1057.7 463.085L1047.5 447.385ZM1023.95 410.49L1023.16 411.275L1023.95 412.06V410.49Z" fill="#FFE600"/>
<path d="M443.449 321.535L443.451 321.526C463.886 251.316 479.68 205.382 490.843 183.054L490.859 183.022L490.875 182.99C509.013 145.83 534.039 114.253 566.016 88.2119L594.046 289.096L567.103 277.24L554.6 271.739L556.669 285.241L583.923 463.112L569.813 453.705L555.26 444.003L558.264 461.233L614.784 785.438L629.641 784.835L644.915 618.214L658.245 639.043L672.676 661.591L672.06 634.828L667.989 457.707L686.549 486.036L700.322 507.058V481.925V351.201L783.882 350.48C783.893 350.48 783.903 350.48 783.914 350.48C793.391 350.487 801.091 353.458 807.467 359.303C814.012 365.302 819.607 374.75 823.817 388.37L838.481 386.281L840.836 245.766L826.385 242.826C818.08 263.346 807.546 272.843 795.76 275.04L700.205 275.764L698.083 140.72L827.984 137.865L983.207 366.05L828.124 660.551L824.879 666.714L830.785 670.405L837.065 674.33L842.805 677.918L846.96 672.575L931.245 564.209L928.692 576.124L942.266 581.856L1031.9 447.401L1029.14 461.66L1042.65 467.386L1047.26 460.793L1051.41 467.173L1065.06 461.66L1062.3 447.402L1151.94 581.856L1165.51 576.124L1162.96 564.209L1247.24 672.575L1251.4 677.918L1257.14 674.33L1263.42 670.405L1269.33 666.714L1266.08 660.551L1111 366.05L1268 135.249L1272.25 129.006L1265.98 124.801L1199.25 80.0562L1192.55 75.5621L1188.56 82.574L1099.57 238.854L1093.67 224.701L1087.64 210.233L1080.16 224.004L1047.43 284.219L1014.02 223.949L1006.5 210.386L1000.54 224.701L994.64 238.854L905.648 82.574L901.655 75.5621L897.315 78.4725L890.882 50.8304L889.36 44.2889L882.691 45.0829C817.036 52.8989 752.177 56.8053 688.112 56.8053C663.379 56.8053 624.174 54.2206 570.302 48.9904L560.423 48.0312L562.161 57.5903H561.743L562.703 64.4675L498.304 70.9725C498.302 70.9727 498.3 70.9729 498.298 70.973C467.166 74.0861 441.815 74.5664 422.1 72.5444L415.893 71.9078L414.138 77.8958L301.308 462.845C289.478 421.551 277.468 379.349 265.275 336.242C265.274 336.238 265.273 336.233 265.272 336.229L208.759 133.724L207.105 127.799L200.971 128.262C174.064 130.292 123.729 126.993 49.3515 118.088L44.2997 131.776L46.6547 133.346L46.9073 133.514L47.1726 133.661C56.173 138.662 62.541 142.022 65.7936 143.37C90.157 155.402 111.07 180.251 127.907 219.527C131.892 229.005 142.472 262.737 159.798 321.54C159.799 321.543 159.8 321.547 159.801 321.55L249.523 628.616C229.228 646.717 212.05 663.982 198.032 680.413C197.373 681.087 196.719 681.768 196.07 682.458L206.838 692.899L206.838 692.898L206.84 692.897L206.844 692.893L206.863 692.874L206.936 692.801L207.231 692.506L208.408 691.329L208.625 691.112L208.824 690.878C208.917 690.768 209.01 690.659 209.103 690.549C231.871 667.495 262.116 655.265 300.549 654.275C310.006 654.242 320.838 649.659 332.564 642.22L345.937 634.661L349.322 632.747L350.168 632.269L350.38 632.149L350.433 632.12L350.446 632.112L350.449 632.11L350.45 632.11L346.76 625.58L350.45 632.11L353.104 630.61L353.959 627.685L443.449 321.535Z" stroke="#452C06" stroke-width="15"/>
</g>
<defs>
<filter id="filter0_ddiii_34_11" x="0.139404" y="0.0478516" width="1322.56" height="834.679" filterUnits="userSpaceOnUse" color-interpolation-filters="sRGB">
<feFlood flood-opacity="0" result="BackgroundImageFix"/>
<feColorMatrix in="SourceAlpha" type="matrix" values="0 0 0 0 0 0 0 0 0 0 0 0 0 0 0 0 0 0 127 0" result="hardAlpha"/>
<feOffset dy="44"/>
<feGaussianBlur stdDeviation="2"/>
<feComposite in2="hardAlpha" operator="out"/>
<feColorMatrix type="matrix" values="0 0 0 0 0.305882 0 0 0 0 0.345098 0 0 0 0 0.113725 0 0 0 1 0"/>
<feBlend mode="normal" in2="BackgroundImageFix" result="effect1_dropShadow_34_11"/>
<feColorMatrix in="SourceAlpha" type="matrix" values="0 0 0 0 0 0 0 0 0 0 0 0 0 0 0 0 0 0 127 0" result="hardAlpha"/>
<feOffset dy="4"/>
<feGaussianBlur stdDeviation="20"/>
<feComposite in2="hardAlpha" operator="out"/>
<feColorMatrix type="matrix" values="0 0 0 0 0.635726 0 0 0 0 0.305148 0 0 0 0 0 0 0 0 1 0"/>
<feBlend mode="normal" in2="effect1_dropShadow_34_11" result="effect2_dropShadow_34_11"/>
<feBlend mode="normal" in="SourceGraphic" in2="effect2_dropShadow_34_11" result="shape"/>
<feColorMatrix in="SourceAlpha" type="matrix" values="0 0 0 0 0 0 0 0 0 0 0 0 0 0 0 0 0 0 127 0" result="hardAlpha"/>
<feOffset dx="-20.1282" dy="20.1282"/>
<feComposite in2="hardAlpha" operator="arithmetic" k2="-1" k3="1"/>
<feColorMatrix type="matrix" values="0 0 0 0 1 0 0 0 0 0.54 0 0 0 0 0 0 0 0 1 0"/>
<feBlend mode="normal" in2="shape" result="effect3_innerShadow_34_11"/>
<feColorMatrix in="SourceAlpha" type="matrix" values="0 0 0 0 0 0 0 0 0 0 0 0 0 0 0 0 0 0 127 0" result="hardAlpha"/>
<feOffset dx="50"/>
<feComposite in2="hardAlpha" operator="arithmetic" k2="-1" k3="1"/>
<feColorMatrix type="matrix" values="0 0 0 0 0.929412 0 0 0 0 0.117647 0 0 0 0 0 0 0 0 1 0"/>
<feBlend mode="plus-lighter" in2="effect3_innerShadow_34_11" result="effect4_innerShadow_34_11"/>
<feColorMatrix in="SourceAlpha" type="matrix" values="0 0 0 0 0 0 0 0 0 0 0 0 0 0 0 0 0 0 127 0" result="hardAlpha"/>
<feOffset dx="-47"/>
<feComposite in2="hardAlpha" operator="arithmetic" k2="-1" k3="1"/>
<feColorMatrix type="matrix" values="0 0 0 0 1 0 0 0 0 0.54 0 0 0 0 0 0 0 0 1 0"/>
<feBlend mode="normal" in2="effect4_innerShadow_34_11" result="effect5_innerShadow_34_11"/>
</filter>
</defs>
</svg>
